<svg width="33" height="27" viewBox="0 0 33 27" fill="none" xmlns="http://www.w3.org/2000/svg">
  <path d="M27.6855 1.45459C27.8657 1.45163 28.1158 1.47154 28.3799 1.53369C28.637 1.59422 28.9841 1.71265 29.292 1.9585L29.3896 2.04248C29.7307 2.3542 29.8823 2.72011 29.9551 2.98779L30.0088 3.23291V3.23486C30.0463 3.45187 30.091 3.88385 30.0723 4.29346L30.0605 4.46729C29.6803 8.40012 28.0481 17.8608 27.2227 22.2046C26.853 24.1495 26.0019 25.4062 24.626 25.5308C23.0505 25.6734 21.8138 24.7545 20.8535 24.0806C20.5797 23.8885 20.3166 23.7036 20.0439 23.5278C18.8907 22.7834 17.9991 22.1855 17.1113 21.5903C16.2987 21.0454 15.4894 20.503 14.4785 19.8472C13.3781 19.1334 12.5413 18.2367 12.7793 17.0483C12.8802 16.5448 13.1606 16.1367 13.418 15.8296C13.6783 15.5189 14.001 15.2145 14.2852 14.9448C14.4776 14.7622 14.6631 14.5844 14.8438 14.3999C14.9572 14.2838 15.4204 13.8613 16 13.3306L17.5557 11.9019C16.0193 12.9119 14.1116 14.1725 11.834 15.686L11.833 15.6851C10.7478 16.4175 9.64586 16.8593 8.55566 16.8364H8.55469C7.99028 16.8243 7.24711 16.6753 6.54297 16.5015C5.81584 16.322 5.04655 16.0934 4.39648 15.8853C4.21462 15.8271 4.03666 15.7722 3.85938 15.7173C3.25356 15.5298 2.57219 15.325 2.07129 15.0444C1.81009 14.8981 1.51489 14.6876 1.29785 14.3735C1.06046 14.0298 0.960149 13.6234 1.01465 13.1948L1.03418 13.0776C1.15119 12.5056 1.56484 12.1043 1.92188 11.8433C2.32445 11.549 2.8542 11.287 3.4668 11.0454C10.7337 7.92853 15.5885 5.87022 18.0225 4.87354C21.4805 3.45755 23.5925 2.61697 24.96 2.12842C26.3106 1.64591 27.0389 1.46593 27.6846 1.45459H27.6855Z" stroke="white" stroke-width="2" />
</svg>