<svg width="38" height="36" viewBox="0 0 38 36" fill="none" xmlns="http://www.w3.org/2000/svg">
  <path fill-rule="evenodd" clip-rule="evenodd" d="M0.719727 11.4682V22.5055L1.34812 21.766C3.98506 18.663 5.06028 17.5902 6.49691 16.6292C7.97422 15.6412 9.0792 15.1503 10.891 14.6777C11.6661 14.4755 12.026 14.4639 19.3418 14.4066C27.8695 14.3399 27.187 14.402 28.0594 13.6138C28.7046 13.0309 28.9938 12.3685 28.9989 11.4624C29.0024 10.832 28.9579 10.6177 28.7358 10.1974C28.4177 9.59518 27.9592 9.14258 27.3371 8.8167L26.8817 8.57805L19.2912 8.52178C11.9529 8.46733 11.6734 8.45823 10.882 8.24883C9.24386 7.81546 7.74843 7.11207 6.29601 6.09181C5.23607 5.34723 3.39776 3.52167 2.03541 1.86056C1.39528 1.08016 0.83743 0.439216 0.795632 0.436281C0.753833 0.433346 0.719727 5.39774 0.719727 11.4682ZM27.3877 22.5049C27.1094 22.5448 24.0352 22.5838 20.5562 22.5917L14.2308 22.606L14.9899 22.8326C16.0667 23.1541 17.1581 23.7621 17.8934 24.4499C18.3045 24.8345 19.6345 26.5544 21.6902 29.3595C23.4304 31.7343 25.0292 33.8684 25.2431 34.1019C25.7582 34.664 26.4891 35.1225 27.2451 35.3578C27.813 35.5346 28.2337 35.5496 32.6197 35.5496C36.5773 35.5496 37.3694 35.5266 37.3257 35.4127C37.2968 35.3375 36.14 33.7093 34.755 31.7946C33.3701 29.8799 31.2918 27.0055 30.1367 25.4068C28.9816 23.8082 28.0043 22.4851 27.9651 22.4663C27.9258 22.4476 27.666 22.465 27.3877 22.5049ZM5.04672 26.9492C2.8225 27.5111 1.32555 29.7737 1.71955 31.9782C1.89261 32.9465 2.20767 33.5745 2.89021 34.3118C4.23717 35.7665 6.20007 36.1299 8.04598 35.2662C10.5164 34.1101 11.32 30.9091 9.69372 28.7025C9.17271 27.9956 8.73681 27.6486 7.8465 27.232C7.29765 26.9751 7.02824 26.9149 6.30371 26.887C5.82085 26.8685 5.2552 26.8965 5.04672 26.9492Z" fill="#484848" />
  <path fill-rule="evenodd" clip-rule="evenodd" d="M0.774058 0.386376C0.850368 0.483636 1.54926 1.27621 2.19638 2.0556C4.93614 5.35514 7.09387 7.0794 10.0236 8.02751C11.5608 8.52504 12.0564 8.58414 19.537 8.58414C27.6097 8.58414 27.0263 8.53354 28.1088 9.39389C28.5454 9.8301 28.72 10.0951 28.8426 10.5078C29.1711 11.6138 28.9636 12.5293 28.1935 13.3718C27.2669 14.3857 28.0202 14.2437 19.1431 14.3529C12.8683 14.3529 11.1983 14.4268 10.4432 14.7458C9.25524 15.079 8.0693 15.5838 7.10146 16.1685C5.42811 17.1791 4.40697 18.0539 2.29216 20.5265C1.48281 21.4728 0.766226 22.354 0.680807 22.4235C0.556323 22.5251 1.85501 22.5504 7.24993 22.5516C26.2767 22.5557 26.5417 22.5536 27.7011 22.392C32.1378 21.7731 35.8047 18.5314 36.894 14.2651C37.5592 11.6594 37.3109 9.0171 36.1798 6.66476C35.5553 5.36648 35.0255 4.6135 34.0369 3.61975C32.7436 2.31955 31.3072 1.44927 29.4486 0.839908C27.7514 0.283473 27.819 0.285802 13.7341 0.285195C1.37903 0.284588 0.641882 0.21807 0.774058 0.386376Z" fill="#FCBF09" />
</svg>