<svg width="36" height="36" viewBox="0 0 36 36" fill="none" xmlns="http://www.w3.org/2000/svg">
  <path d="M22.375 31.125V23.8333C22.375 23.4466 22.2214 23.0756 21.9479 22.8021C21.6744 22.5286 21.3034 22.375 20.9167 22.375H15.0833C14.6966 22.375 14.3256 22.5286 14.0521 22.8021C13.7786 23.0756 13.625 23.4466 13.625 23.8333V31.125" stroke="white" stroke-width="2.91667" stroke-linecap="round" stroke-linejoin="round" />
  <path d="M26.4204 15.5354C26.1164 15.2443 25.7118 15.0819 25.2909 15.0819C24.8701 15.0819 24.4654 15.2443 24.1614 15.5354C23.4833 16.1822 22.5822 16.543 21.6451 16.543C20.708 16.543 19.8068 16.1822 19.1287 15.5354C18.8248 15.2448 18.4205 15.0826 18 15.0826C17.5795 15.0826 17.1752 15.2448 16.8712 15.5354C16.193 16.1826 15.2916 16.5437 14.3541 16.5437C13.4167 16.5437 12.5152 16.1826 11.8371 15.5354C11.533 15.2443 11.1284 15.0819 10.7076 15.0819C10.2867 15.0819 9.88211 15.2443 9.5781 15.5354C8.92308 16.1604 8.05891 16.5194 7.1538 16.5424C6.24869 16.5654 5.3674 16.2509 4.68146 15.6599C3.99552 15.0689 3.55401 14.2439 3.44287 13.3453C3.33172 12.4468 3.5589 11.539 4.08018 10.7987L8.2933 4.69704C8.56063 4.30258 8.92052 3.97962 9.34152 3.75641C9.76252 3.5332 10.2318 3.41654 10.7083 3.41663H25.2916C25.7668 3.41644 26.2347 3.53233 26.6548 3.75421C27.075 3.97609 27.4345 4.29725 27.7023 4.68975L31.9241 10.8031C32.4455 11.544 32.6724 12.4524 32.5606 13.3514C32.4488 14.2505 32.0062 15.0756 31.3192 15.6662C30.6322 16.2567 29.7499 16.5703 28.8442 16.5459C27.9386 16.5214 27.0745 16.1607 26.4204 15.5339" stroke="white" stroke-width="2.91667" stroke-linecap="round" stroke-linejoin="round" />
  <path d="M6.33325 16.4688V28.2083C6.33325 28.9819 6.64054 29.7237 7.18752 30.2707C7.7345 30.8177 8.47637 31.125 9.24992 31.125H26.7499C27.5235 31.125 28.2653 30.8177 28.8123 30.2707C29.3593 29.7237 29.6666 28.9819 29.6666 28.2083V16.4688" stroke="white" stroke-width="2.91667" stroke-linecap="round" stroke-linejoin="round" />
</svg>