<svg width="46" height="38" viewBox="0 0 46 38" fill="none" xmlns="http://www.w3.org/2000/svg">
  <path d="M14.873 10.5H12.039C10.2753 10.5 9.3928 10.5 8.71915 10.9087C8.12659 11.2683 7.64517 11.8415 7.34324 12.5471C7 13.3493 7 14.4002 7 16.5004V27.0004C7 29.1006 7 30.1501 7.34324 30.9523C7.64517 31.6579 8.12659 32.2321 8.71915 32.5917C9.39214 33 10.2736 33 12.0339 33H30.309C32.0693 33 32.9495 33 33.6225 32.5917C34.215 32.2321 34.6981 31.6579 35 30.9523M14.873 10.5H27.4699M14.873 10.5C14.873 6.35786 17.6929 3 21.1715 3C24.65 3 27.4699 6.35786 27.4699 10.5M27.4699 10.5H30.3045C32.0682 10.5 32.9488 10.5 33.6225 10.9087" stroke="white" stroke-width="2.92" stroke-linecap="round" stroke-linejoin="round" />
  <path d="M35 15V26M40.5 20.5H29.5" stroke="white" stroke-width="2.92" stroke-linecap="round" stroke-linejoin="round" />
</svg>