<svg width="16" height="16" viewBox="0 0 16 16" fill="none" xmlns="http://www.w3.org/2000/svg">
  <g clip-path="url(#clip0_6054_35418)">
    <path d="M9.32852 11.9931V3.99762C9.32852 3.6442 9.18812 3.30525 8.93822 3.05534C8.68831 2.80544 8.34936 2.66504 7.99594 2.66504H2.66559C2.31217 2.66504 1.97322 2.80544 1.72331 3.05534C1.4734 3.30525 1.33301 3.6442 1.33301 3.99762V11.3268C1.33301 11.5036 1.40321 11.673 1.52816 11.798C1.65311 11.9229 1.82259 11.9931 1.9993 11.9931H3.33189" stroke="#99A1AF" stroke-width="1.33259" stroke-linecap="round" stroke-linejoin="round" />
    <path d="M9.99483 11.9932H5.99707" stroke="#99A1AF" stroke-width="1.33259" stroke-linecap="round" stroke-linejoin="round" />
    <path d="M12.6596 11.9935H13.9922C14.1689 11.9935 14.3384 11.9233 14.4633 11.7983C14.5883 11.6734 14.6585 11.5039 14.6585 11.3272V8.89523C14.6582 8.74403 14.6065 8.59741 14.5119 8.47947L12.1932 5.58109C12.1309 5.50306 12.0518 5.44003 11.9619 5.39666C11.8719 5.3533 11.7733 5.33071 11.6735 5.33057H9.32812" stroke="#99A1AF" stroke-width="1.33259" stroke-linecap="round" stroke-linejoin="round" />
    <path d="M11.3267 13.3258C12.0627 13.3258 12.6593 12.7292 12.6593 11.9932C12.6593 11.2573 12.0627 10.6606 11.3267 10.6606C10.5908 10.6606 9.99414 11.2573 9.99414 11.9932C9.99414 12.7292 10.5908 13.3258 11.3267 13.3258Z" stroke="#99A1AF" stroke-width="1.33259" stroke-linecap="round" stroke-linejoin="round" />
    <path d="M4.66364 13.3258C5.39961 13.3258 5.99623 12.7292 5.99623 11.9932C5.99623 11.2573 5.39961 10.6606 4.66364 10.6606C3.92767 10.6606 3.33105 11.2573 3.33105 11.9932C3.33105 12.7292 3.92767 13.3258 4.66364 13.3258Z" stroke="#99A1AF" stroke-width="1.33259" stroke-linecap="round" stroke-linejoin="round" />
  </g>
  <defs>
    <clipPath id="clip0_6054_35418">
      <rect width="15.991" height="15.991" fill="white" />
    </clipPath>
  </defs>
</svg>