<svg width="22" height="21" viewBox="0 0 22 21" fill="none" xmlns="http://www.w3.org/2000/svg">
  <path d="M1.50488 9.11265C1.19163 8.82297 1.36179 8.29927 1.78549 8.24904L7.78906 7.53695C7.96174 7.51647 8.11174 7.40803 8.18457 7.25013L10.7168 1.76034C10.8955 1.3729 11.4463 1.37283 11.625 1.76027L14.1572 7.25001C14.2301 7.40792 14.3791 7.51665 14.5518 7.53712L20.5557 8.24904C20.9794 8.29927 21.149 8.82312 20.8358 9.11281L16.3977 13.2178C16.27 13.3358 16.2132 13.5116 16.2471 13.6821L17.4249 19.6118C17.5081 20.0303 17.0627 20.3546 16.6904 20.1462L11.4151 17.1925C11.2633 17.1076 11.079 17.1079 10.9272 17.1929L5.65136 20.1454C5.27905 20.3538 4.83286 20.0303 4.91602 19.6118L6.09407 13.6825C6.12795 13.512 6.07126 13.3358 5.94359 13.2178L1.50488 9.11265Z" stroke="url(#paint0_linear_302_949)" stroke-width="1.48" stroke-linecap="round" stroke-linejoin="round" />
  <defs>
    <linearGradient id="paint0_linear_302_949" x1="1.34375" y1="10.8404" x2="20.9971" y2="10.8404" gradientUnits="userSpaceOnUse">
      <stop stop-color="#FFDF20" />
      <stop offset="1" stop-color="#FFB86A" />
    </linearGradient>
  </defs>
</svg>