<svg width="28" height="32" viewBox="0 0 28 32" fill="none" xmlns="http://www.w3.org/2000/svg">
  <path d="M26 17.398C26 24.3969 20.75 27.8963 14.51 29.926C14.1832 30.0293 13.8283 30.0243 13.505 29.912C7.25 27.8963 2 24.3969 2 17.398V7.59969C2 7.22845 2.15804 6.87241 2.43934 6.60991C2.72064 6.3474 3.10218 6.19993 3.5 6.19993C6.5 6.19993 10.25 4.52021 12.86 2.39256C13.1778 2.1392 13.582 2 14 2C14.418 2 14.8222 2.1392 15.14 2.39256C17.765 4.5342 21.5 6.19993 24.5 6.19993C24.8978 6.19993 25.2794 6.3474 25.5607 6.60991C25.842 6.87241 26 7.22845 26 7.59969V17.398Z" stroke="white" stroke-width="2.33" stroke-linecap="round" stroke-linejoin="round" />
</svg>