<svg width="28" height="28" viewBox="0 0 28 28" fill="none" xmlns="http://www.w3.org/2000/svg">
  <path d="M18.6666 24.5V22.1667C18.6666 20.929 18.1749 19.742 17.2997 18.8668C16.4246 17.9917 15.2376 17.5 13.9999 17.5H6.99992C5.76224 17.5 4.57526 17.9917 3.70009 18.8668C2.82492 19.742 2.33325 20.929 2.33325 22.1667V24.5" stroke="white" stroke-width="2.33333" stroke-linecap="round" stroke-linejoin="round" />
  <path d="M18.6667 3.64941C19.6675 3.90885 20.5537 4.49322 21.1864 5.31082C21.819 6.12842 22.1623 7.13295 22.1623 8.16675C22.1623 9.20054 21.819 10.2051 21.1864 11.0227C20.5537 11.8403 19.6675 12.4246 18.6667 12.6841" stroke="white" stroke-width="2.33333" stroke-linecap="round" stroke-linejoin="round" />
  <path d="M25.6667 24.4999V22.1666C25.666 21.1326 25.3218 20.1282 24.6883 19.311C24.0549 18.4938 23.1679 17.9101 22.1667 17.6516" stroke="white" stroke-width="2.33333" stroke-linecap="round" stroke-linejoin="round" />
  <path d="M10.4999 12.8333C13.0772 12.8333 15.1666 10.744 15.1666 8.16667C15.1666 5.58934 13.0772 3.5 10.4999 3.5C7.92259 3.5 5.83325 5.58934 5.83325 8.16667C5.83325 10.744 7.92259 12.8333 10.4999 12.8333Z" stroke="white" stroke-width="2.33333" stroke-linecap="round" stroke-linejoin="round" />
</svg>