<svg width="23" height="26" viewBox="0 0 23 26" fill="none" xmlns="http://www.w3.org/2000/svg">
  <path d="M3.625 5V20.7333C3.625 22.2268 3.625 22.973 3.91111 23.5435C4.16278 24.0452 4.56406 24.454 5.05798 24.7096C5.61895 25 6.35368 25 7.82094 25H15.1791C16.6463 25 17.38 25 17.941 24.7096C18.4349 24.454 18.8375 24.0452 19.0892 23.5435C19.375 22.9736 19.375 22.228 19.375 20.7375V5M3.625 5H6.25M3.625 5H1M6.25 5H16.75M6.25 5C6.25 3.75749 6.25 3.13654 6.44982 2.64648C6.71624 1.99308 7.22692 1.47364 7.87012 1.20299C8.35252 1 8.9644 1 10.1875 1H12.8125C14.0356 1 14.6471 1 15.1295 1.20299C15.7727 1.47364 16.2836 1.99308 16.55 2.64648C16.7499 3.13654 16.75 3.75749 16.75 5M16.75 5H19.375M19.375 5H22" stroke="#696969" stroke-width="2" stroke-linecap="round" stroke-linejoin="round" />
</svg>