<svg width="33" height="32" viewBox="0 0 33 32" fill="none" xmlns="http://www.w3.org/2000/svg">
<path fill-rule="evenodd" clip-rule="evenodd" d="M0.0419922 9.97436V19.8063L0.601759 19.1475C2.95072 16.3834 3.90851 15.4278 5.18825 14.5718C6.50423 13.6916 7.48853 13.2543 9.10246 12.8333C9.79295 12.6532 10.1135 12.6429 16.6303 12.5919C24.2268 12.5324 23.6188 12.5877 24.3959 11.8856C24.9706 11.3664 25.2283 10.7764 25.2328 9.96922C25.236 9.40765 25.1963 9.2167 24.9984 8.84229C24.715 8.30588 24.3067 7.90271 23.7525 7.61241L23.3468 7.39983L16.5852 7.3497C10.0484 7.3012 9.79944 7.29309 9.09444 7.10656C7.63521 6.72052 6.30309 6.09395 5.00929 5.18511C4.06511 4.52184 2.42756 2.89565 1.21399 1.41595C0.64377 0.720777 0.146841 0.149832 0.109608 0.147218C0.0723741 0.144603 0.0419922 4.56683 0.0419922 9.97436ZM23.7976 19.8057C23.5496 19.8413 20.8112 19.876 17.7122 19.8831L12.0775 19.8958L12.7537 20.0976C13.7129 20.3841 14.6852 20.9256 15.3401 21.5383C15.7063 21.8809 16.8911 23.413 18.7222 25.9118C20.2724 28.0272 21.6966 29.9282 21.8872 30.1362C22.346 30.6369 22.9971 31.0454 23.6705 31.255C24.1764 31.4125 24.5511 31.4258 28.4581 31.4258C31.9835 31.4258 32.6892 31.4053 32.6502 31.3039C32.6245 31.2369 31.5941 29.7865 30.3603 28.0809C29.1266 26.3753 27.2753 23.8148 26.2463 22.3907C25.2174 20.9667 24.3469 19.7881 24.3119 19.7714C24.2769 19.7547 24.0455 19.7702 23.7976 19.8057ZM3.89643 23.7647C1.91512 24.2652 0.581653 26.2807 0.932623 28.2445C1.08679 29.107 1.36744 29.6664 1.97543 30.3232C3.17529 31.619 4.92383 31.9428 6.56814 31.1733C8.7688 30.1435 9.48463 27.2921 8.03594 25.3265C7.57183 24.6968 7.18354 24.3877 6.39045 24.0165C5.90155 23.7877 5.66156 23.7341 5.01615 23.7093C4.58602 23.6928 4.08215 23.7177 3.89643 23.7647Z" fill="#484848"/>
<path fill-rule="evenodd" clip-rule="evenodd" d="M0.0901539 0.102127C0.15813 0.188765 0.780698 0.894781 1.35714 1.58906C3.7977 4.52826 5.71978 6.06421 8.32955 6.90877C9.6989 7.35197 10.1404 7.40462 16.804 7.40462C23.9951 7.40462 23.4754 7.35954 24.4397 8.12594C24.8286 8.5145 24.9841 8.75052 25.0933 9.11817C25.386 10.1034 25.2011 10.9189 24.5152 11.6694C23.6897 12.5726 24.3608 12.4461 16.4531 12.5434C10.8635 12.5434 9.37601 12.6092 8.70333 12.8934C7.64511 13.1902 6.58868 13.6398 5.72654 14.1607C4.23594 15.0609 3.32632 15.8402 1.44246 18.0428C0.721502 18.8857 0.0831767 19.6707 0.00708676 19.7326C-0.103803 19.823 1.05305 19.8456 5.8588 19.8467C22.8076 19.8504 23.0438 19.8485 24.0765 19.7045C28.0286 19.1532 31.2951 16.2656 32.2654 12.4651C32.858 10.144 32.6369 7.79029 31.6292 5.69485C31.073 4.53835 30.601 3.86761 29.7204 2.98239C28.5683 1.82418 27.2887 1.04895 25.6332 0.506128C24.1213 0.010462 24.1815 0.0125367 11.6349 0.0119958C0.629058 0.0114549 -0.0275871 -0.0477989 0.0901539 0.102127Z" fill="#FCBF09"/>
</svg>
