<svg width="30" height="30" viewBox="0 0 30 30" fill="none" xmlns="http://www.w3.org/2000/svg">
  <path fill-rule="evenodd" clip-rule="evenodd" d="M21.3365 17.6157C20.9724 17.4335 19.1824 16.5529 18.8486 16.4315C18.5149 16.3101 18.2723 16.2493 18.0295 16.6137C17.7868 16.978 17.0891 17.7978 16.8767 18.0408C16.6643 18.2836 16.452 18.3141 16.0879 18.1318C15.7238 17.9497 14.5507 17.5653 13.1601 16.3253C12.0778 15.3603 11.3471 14.1683 11.1347 13.804C10.9223 13.4396 11.1121 13.2426 11.2944 13.0612C11.4581 12.8982 11.6584 12.6361 11.8404 12.4236C12.0225 12.211 12.0832 12.0592 12.2045 11.8163C12.3259 11.5734 12.2652 11.3608 12.1742 11.1787C12.0832 10.9965 11.3551 9.20503 11.0517 8.4763C10.7562 7.76661 10.456 7.86263 10.2325 7.8515C10.0204 7.84093 9.77744 7.8387 9.53471 7.8387C9.29199 7.8387 8.8976 7.92982 8.56382 8.29412C8.23011 8.65848 7.28959 9.53909 7.28959 11.3305C7.28959 13.1219 8.5942 14.8526 8.77624 15.0955C8.95828 15.3385 11.3435 19.0147 14.9957 20.5913C15.8643 20.9663 16.5425 21.1901 17.0712 21.358C17.9434 21.6349 18.7371 21.5959 19.3644 21.5022C20.0639 21.3977 21.5185 20.6216 21.8219 19.7715C22.1252 18.9213 22.1252 18.1926 22.0343 18.0408C21.9433 17.889 21.7005 17.7978 21.3365 17.6157ZM14.6934 26.6831H14.6885C12.5153 26.6822 10.3839 26.0987 8.52447 24.9956L8.08221 24.7331L3.49853 25.9352L4.72202 21.4675L4.43401 21.0095C3.22172 19.0819 2.58146 16.8539 2.58237 14.5663C2.58503 7.89099 8.01796 2.46017 14.6982 2.46017C17.933 2.46143 20.9738 3.72242 23.2603 6.0108C25.5469 8.29924 26.8054 11.3411 26.8042 14.5761C26.8014 21.2519 21.3686 26.6831 14.6934 26.6831ZM25.0006 4.27187C22.2496 1.51856 18.5911 0.00153923 14.6932 0C6.66194 0 0.125421 6.534 0.122201 14.5654C0.121152 17.1326 0.79207 19.6387 2.06714 21.8475L0 29.3958L7.72431 27.3703C9.85255 28.5307 12.2487 29.1422 14.6874 29.1432H14.6934H14.6934C22.7239 29.1432 29.261 22.6084 29.2643 14.577C29.2658 10.6849 27.7516 7.02511 25.0006 4.27187Z" fill="white" />
</svg>