<svg width="20" height="25" viewBox="0 0 20 25" fill="none" xmlns="http://www.w3.org/2000/svg">
  <path d="M5.89286 18.6389H13.6071M5.89286 14.8056H13.6071M11.0362 0.751114C10.9134 0.75 10.7752 0.75 10.6175 0.75H4.86454C3.4244 0.75 2.7038 0.75 2.15374 1.02854C1.66989 1.27355 1.2768 1.66422 1.03027 2.14507C0.75 2.69174 0.75 3.40789 0.75 4.83914V19.6614C0.75 21.0926 0.75 21.8079 1.03027 22.3545C1.2768 22.8354 1.66989 23.2267 2.15374 23.4717C2.70326 23.75 3.423 23.75 4.86035 23.75L14.6397 23.75C16.077 23.75 16.7957 23.75 17.3452 23.4717C17.8291 23.2267 18.2235 22.8354 18.47 22.3545C18.75 21.8084 18.75 21.0941 18.75 19.6657V8.83282C18.75 8.67608 18.7499 8.53874 18.7487 8.41667M11.0362 0.751114C11.4032 0.75444 11.6345 0.767974 11.8562 0.820879C12.1186 0.883482 12.3701 0.986727 12.6002 1.12684C12.8596 1.28484 13.0823 1.50621 13.5268 1.94792L17.5453 5.94159C17.99 6.38358 18.2111 6.60396 18.3701 6.86186C18.5111 7.09051 18.6154 7.33983 18.6784 7.60059C18.7317 7.82095 18.7454 8.05192 18.7487 8.41667M11.0362 0.751114L11.0357 4.32804C11.0357 5.75929 11.0357 6.47464 11.316 7.0213C11.5625 7.50216 11.9556 7.89339 12.4395 8.1384C12.989 8.41667 13.7087 8.41667 15.146 8.41667H18.7487" stroke="#B1BED1" stroke-width="1.5" stroke-linecap="round" stroke-linejoin="round" />
</svg>