<svg width="21" height="22" viewBox="0 0 21 22" fill="none" xmlns="http://www.w3.org/2000/svg">
  <path d="M2.61797 14.7995C2.74663 15.124 2.77528 15.4796 2.70022 15.8206L1.76835 18.6993C1.73832 18.8453 1.74609 18.9966 1.7909 19.1387C1.83572 19.2809 1.9161 19.4092 2.02443 19.5116C2.13276 19.614 2.26544 19.687 2.4099 19.7237C2.55435 19.7604 2.70579 19.7596 2.84985 19.7213L5.83622 18.8481C6.15797 18.7843 6.49119 18.8122 6.79785 18.9286C8.66631 19.8012 10.7829 19.9858 12.7742 19.4499C14.7655 18.9139 16.5036 17.6919 17.6817 15.9994C18.8598 14.3069 19.4023 12.2527 19.2135 10.1992C19.0246 8.1457 18.1166 6.22488 16.6495 4.77564C15.1825 3.3264 13.2507 2.44188 11.1951 2.27813C9.1394 2.11438 7.09197 2.68193 5.41399 3.88064C3.736 5.07935 2.53531 6.83219 2.02376 8.8299C1.5122 10.8276 1.72265 12.9418 2.61797 14.7995Z" stroke="#155DFC" stroke-width="1.75" stroke-linecap="round" stroke-linejoin="round" />
</svg>