<svg width="21" height="22" viewBox="0 0 21 22" fill="none" xmlns="http://www.w3.org/2000/svg">
  <path d="M12.103 14.997C12.2837 15.08 12.4873 15.099 12.6802 15.0508C12.8732 15.0026 13.0439 14.8901 13.1644 14.7319L13.475 14.325C13.638 14.1077 13.8494 13.9313 14.0924 13.8098C14.3354 13.6883 14.6033 13.625 14.875 13.625H17.5C17.9641 13.625 18.4092 13.8094 18.7374 14.1376C19.0656 14.4658 19.25 14.9109 19.25 15.375V18C19.25 18.4641 19.0656 18.9092 18.7374 19.2374C18.4092 19.5656 17.9641 19.75 17.5 19.75C13.3228 19.75 9.31677 18.0906 6.36307 15.1369C3.40937 12.1832 1.75 8.17716 1.75 4C1.75 3.53587 1.93437 3.09075 2.26256 2.76256C2.59075 2.43437 3.03587 2.25 3.5 2.25H6.125C6.58913 2.25 7.03425 2.43437 7.36244 2.76256C7.69063 3.09075 7.875 3.53587 7.875 4V6.625C7.875 6.89668 7.81175 7.16463 7.69025 7.40762C7.56875 7.65062 7.39234 7.86199 7.175 8.025L6.7655 8.33213C6.60486 8.45478 6.49164 8.62926 6.44507 8.82593C6.39849 9.0226 6.42144 9.22933 6.51 9.411C7.70585 11.8399 9.67262 13.8042 12.103 14.997Z" stroke="#155DFC" stroke-width="1.75" stroke-linecap="round" stroke-linejoin="round" />
</svg>