<svg width="27" height="27" viewBox="0 0 27 27" fill="none" xmlns="http://www.w3.org/2000/svg">
<g clip-path="url(#clip0_2665_762)">
<path d="M13.5 27C20.9558 27 27 20.9558 27 13.5C27 6.04416 20.9558 0 13.5 0C6.04416 0 0 6.04416 0 13.5C0 20.9558 6.04416 27 13.5 27Z" fill="#F0F0F0"/>
<path d="M12.326 13.5C12.326 13.5 3.96189 23.0478 3.95398 23.0459C6.39695 25.4889 9.772 27 13.5 27C20.9558 27 27 20.9558 27 13.5H12.326Z" fill="#D80027"/>
<path d="M3.95405 3.95398C-1.31802 9.22605 -1.31802 17.7738 3.95405 23.0459C6.13267 20.8673 8.22796 18.772 13.5 13.5L3.95405 3.95398Z" fill="#0052B4"/>
</g>
<defs>
<clipPath id="clip0_2665_762">
<rect width="27" height="27" fill="white"/>
</clipPath>
</defs>
</svg>
