<svg width="16" height="16" viewBox="0 0 16 16" fill="none" xmlns="http://www.w3.org/2000/svg">
  <path d="M15 2.36778C15 1.88904 14.9997 1.64949 14.9043 1.46664C14.8204 1.3058 14.6871 1.17512 14.5224 1.09317C14.3352 1 14.0897 1 13.5997 1H2.39966C1.90961 1 1.66483 1 1.47766 1.09317C1.31302 1.17512 1.17926 1.3058 1.09537 1.46664C1 1.64949 1 1.88904 1 2.36778V2.99799C1 3.20707 1 3.31169 1.02418 3.41007C1.04561 3.49729 1.08105 3.58061 1.12903 3.65709C1.18312 3.74333 1.25892 3.81737 1.41016 3.96512L5.84005 8.2928C5.99138 8.44063 6.06663 8.51415 6.12074 8.60041C6.16872 8.67689 6.20464 8.7605 6.22607 8.84772C6.25 8.94509 6.25 9.04847 6.25 9.25332V13.3187C6.25 14.0514 6.25 14.418 6.40798 14.6387C6.54592 14.8314 6.75873 14.9599 6.99683 14.9942C7.2695 15.0336 7.60512 14.8699 8.276 14.5422L8.976 14.2003C9.25693 14.0631 9.39705 13.9942 9.49968 13.8918C9.59043 13.8013 9.65986 13.6926 9.70215 13.5728C9.74997 13.4374 9.75 13.2836 9.75 12.9767V9.25968C9.75 9.0506 9.75 8.9461 9.77418 8.84772C9.79561 8.7605 9.83105 8.67689 9.87903 8.60041C9.93278 8.51472 10.0078 8.4414 10.1572 8.29553L10.1602 8.2928L14.5901 3.96512C14.7414 3.81728 14.8166 3.74335 14.8707 3.65709C14.9187 3.58061 14.9546 3.49729 14.9761 3.41007C15 3.31269 15 3.2092 15 3.00436V2.36778Z" stroke="#4E4E4E" stroke-width="0.8" stroke-linecap="round" stroke-linejoin="round" />
</svg>