<svg width="20" height="20" viewBox="0 0 20 20" fill="none" xmlns="http://www.w3.org/2000/svg">
  <path d="M1 1H1.27352C1.75643 1 1.99831 1 2.19527 1.08582C2.36892 1.16148 2.5174 1.2833 2.62446 1.43777C2.7457 1.61268 2.78947 1.84624 2.87686 2.31246L5.07712 14.0516L15.6997 14.0516C16.1617 14.0516 16.3933 14.0516 16.5847 13.9712C16.7537 13.9002 16.8995 13.7852 17.0077 13.6389C17.1301 13.4735 17.182 13.2521 17.2856 12.8098L17.2864 12.8066L18.8859 5.97964L18.8862 5.97821C19.0434 5.30718 19.1222 4.97085 19.0357 4.70704C18.9598 4.47556 18.8 4.2793 18.5881 4.15439C18.3464 4.0119 17.9971 4.0119 17.2968 4.0119H3.54818M16.2891 19.0714C15.7261 19.0714 15.2698 18.6219 15.2698 18.0675C15.2698 17.513 15.7261 17.0635 16.2891 17.0635C16.852 17.0635 17.3083 17.513 17.3083 18.0675C17.3083 18.6219 16.852 19.0714 16.2891 19.0714ZM6.09635 19.0714C5.53342 19.0714 5.07708 18.6219 5.07708 18.0675C5.07708 17.513 5.53342 17.0635 6.09635 17.0635C6.65928 17.0635 7.11562 17.513 7.11562 18.0675C7.11562 18.6219 6.65928 19.0714 6.09635 19.0714Z" stroke="#047857" stroke-linecap="round" stroke-linejoin="round" />
</svg>