<svg width="16" height="16" viewBox="0 0 16 16" fill="none" xmlns="http://www.w3.org/2000/svg">
  <path d="M1.00004 12.6667C1 12.6165 1 12.5647 1 12.5113V3.48904C1 2.61785 1 2.18193 1.16955 1.84918C1.31868 1.55648 1.55648 1.31868 1.84918 1.16955C2.18193 1 2.61785 1 3.48904 1H12.5113C13.3825 1 13.8178 1 14.1506 1.16955C14.4433 1.31868 14.6815 1.55648 14.8306 1.84918C15 2.1816 15 2.617 15 3.48649V12.5135C15 12.8907 15 13.1861 14.9862 13.4269M1.00004 12.6667C1.00064 13.4354 1.0104 13.8379 1.16955 14.1502C1.31868 14.4429 1.55648 14.6815 1.84918 14.8306C2.1816 15 2.617 15 3.48649 15H12.5139C13.3834 15 13.8182 15 14.1506 14.8306C14.4433 14.6815 14.6815 14.4429 14.8306 14.1502C14.9265 13.962 14.9681 13.741 14.9862 13.4269M1.00004 12.6667L4.70843 8.34028L4.70952 8.33908C5.03843 7.95535 5.20316 7.76317 5.39854 7.6939C5.57018 7.63305 5.75756 7.63447 5.92833 7.6977C6.12294 7.76975 6.28505 7.96412 6.60927 8.35319L8.68684 10.8463C8.98696 11.2064 9.1379 11.3876 9.32115 11.4602C9.4828 11.5244 9.66106 11.5316 9.82785 11.4824C10.0177 11.4263 10.1848 11.2592 10.519 10.925L10.9057 10.5384C11.2459 10.1981 11.4161 10.0281 11.6086 9.97255C11.7778 9.92374 11.9586 9.93422 12.1213 10.0014C12.3066 10.0779 12.4568 10.2652 12.7574 10.641L14.9862 13.4269M14.9862 13.4269L15 13.4441M10.3333 5.66667C9.90378 5.66667 9.55556 5.31844 9.55556 4.88889C9.55556 4.45933 9.90378 4.11111 10.3333 4.11111C10.7629 4.11111 11.1111 4.45933 11.1111 4.88889C11.1111 5.31844 10.7629 5.66667 10.3333 5.66667Z" stroke="#717171" stroke-linecap="round" stroke-linejoin="round" />
</svg>