<svg width="28" height="35" viewBox="0 0 28 35" fill="none" xmlns="http://www.w3.org/2000/svg">
<path d="M10.2856 26.6666L13.9998 23M13.9998 23L17.714 19.3333M13.9998 23L10.2856 19.3333M13.9998 23L17.714 26.6666M15.8569 1.00159C15.6796 1 15.4805 1 15.2528 1H6.94314C4.86297 1 3.82211 1 3.02759 1.39964C2.32872 1.75118 1.76092 2.3117 1.40483 3.00163C1 3.78597 1 4.8135 1 6.86702V28.1337C1 30.1872 1 31.2134 1.40483 31.9978C1.76092 32.6877 2.32872 33.2492 3.02759 33.6007C3.82134 34 4.86095 34 6.93709 34L21.0626 34C23.1387 34 24.1768 34 24.9705 33.6007C25.6694 33.2492 26.2391 32.6877 26.5952 31.9978C26.9996 31.2142 26.9996 30.1894 26.9996 28.1399V12.5971C26.9996 12.3721 26.9996 12.1753 26.9979 12M15.8569 1.00159C16.3874 1.00636 16.723 1.02538 17.0433 1.10131C17.4223 1.19113 17.7843 1.33965 18.1167 1.54069C18.4914 1.76737 18.8131 2.085 19.4551 2.71875L25.2595 8.4488C25.9019 9.08296 26.2213 9.39916 26.451 9.76919C26.6546 10.0973 26.8053 10.455 26.8963 10.8291C26.9731 11.1452 26.9929 11.4766 26.9979 12M15.8569 1.00159V6.13333C15.8569 8.18686 15.8569 9.21291 16.2618 9.99725C16.6179 10.6872 17.1857 11.2492 17.8845 11.6007C18.6783 12 19.7179 12 21.794 12H26.9979M26.9979 12H27" stroke="#B1BED1" stroke-width="1.5" stroke-linecap="round" stroke-linejoin="round"/>
</svg>
