<svg width="40" height="40" viewBox="0 0 40 40" fill="none" xmlns="http://www.w3.org/2000/svg">
<path d="M1.04259 32.6385C1.04248 32.5025 1.04248 32.3622 1.04248 32.2175V7.78344C1.04248 5.42407 1.04248 4.24351 1.50164 3.34234C1.90554 2.54966 2.54954 1.90566 3.34222 1.50177C4.24338 1.0426 5.42395 1.0426 7.78332 1.0426H32.2174C34.5767 1.0426 35.7558 1.0426 36.657 1.50177C37.4496 1.90566 38.0948 2.54966 38.4987 3.34234C38.9574 4.24262 38.9574 5.42176 38.9574 7.77652V32.2236C38.9574 33.2452 38.9574 34.0452 38.9199 34.6971M1.04259 32.6385C1.04421 34.7203 1.07065 35.8102 1.50164 36.6561C1.90554 37.4487 2.54954 38.0949 3.34222 38.4988C4.2425 38.9575 5.42164 38.9575 7.7764 38.9575H32.2245C34.5792 38.9575 35.7567 38.9575 36.657 38.4988C37.4496 38.0949 38.0948 37.4487 38.4987 36.6561C38.7584 36.1464 38.871 35.5478 38.9199 34.6971M1.04259 32.6385L11.0857 20.9216L11.0886 20.9183C11.9794 19.8791 12.4255 19.3587 12.9546 19.1711C13.4195 19.0063 13.9269 19.0101 14.3894 19.1814C14.9165 19.3765 15.3555 19.9029 16.2335 20.9566L21.86 27.7084C22.6728 28.6837 23.0816 29.1742 23.5779 29.3711C24.0157 29.5447 24.4984 29.5643 24.9501 29.431C25.4643 29.2793 25.9169 28.8267 26.822 27.9216L27.869 26.8746C28.7906 25.9531 29.2513 25.4926 29.7729 25.3421C30.2309 25.2099 30.7206 25.2383 31.1613 25.4203C31.663 25.6275 32.0699 26.1346 32.884 27.1523L38.9199 34.6971M38.9199 34.6971L38.9573 34.7439M26.3191 13.6809C25.1558 13.6809 24.2127 12.7378 24.2127 11.5745C24.2127 10.4112 25.1558 9.46813 26.3191 9.46813C27.4824 9.46813 28.4255 10.4112 28.4255 11.5745C28.4255 12.7378 27.4824 13.6809 26.3191 13.6809Z" stroke="#B1BED1" stroke-width="1.5" stroke-linecap="round" stroke-linejoin="round"/>
</svg>
