<svg width="21" height="22" viewBox="0 0 21 22" fill="none" xmlns="http://www.w3.org/2000/svg">
  <path d="M17.625 0.5H2.625C1.24625 0.5 0.125 1.67731 0.125 3.125V18.875C0.125 20.3227 1.24625 21.5 2.625 21.5H17.625C19.0038 21.5 20.125 20.3227 20.125 18.875V3.125C20.125 1.67731 19.0038 0.5 17.625 0.5Z" fill="#1868B7" />
  <path d="M17 11H13.875V8.375C13.875 7.6505 14.435 7.71875 15.125 7.71875H16.375V4.4375H13.875C11.8038 4.4375 10.125 6.20019 10.125 8.375V11H7.625V14.2812H10.125V21.5H13.875V14.2812H15.75L17 11Z" fill="#FAFAFA" />
</svg>