<svg width="20" height="20" viewBox="0 0 20 20" fill="none" xmlns="http://www.w3.org/2000/svg">
  <path d="M18.5326 8.2613L10.7827 8.26091C10.4405 8.26091 10.1631 8.55286 10.1631 8.91309V11.5191C10.1631 11.8793 10.4405 12.1713 10.7827 12.1713H15.1469C14.669 13.4768 13.7771 14.5701 12.6391 15.2648L14.5 18.6558C17.4852 16.8385 19.25 13.6499 19.25 10.0804C19.25 9.57219 19.2144 9.20887 19.1432 8.79977C19.0891 8.48895 18.8328 8.2613 18.5326 8.2613Z" fill="#167EE6" />
  <path d="M9.75016 16.087C7.61437 16.087 5.74985 14.8586 4.74845 13.0409L1.52714 14.9954C3.16645 17.9861 6.23739 20 9.75016 20C11.4734 20 13.0994 19.5116 14.5001 18.6605L14.5 18.6558L12.6391 15.2648C11.7879 15.7845 10.803 16.087 9.75016 16.087Z" fill="#12B347" />
  <path d="M14.5001 18.6605L14.5 18.6558L12.6391 15.2648C11.7879 15.7845 10.803 16.087 9.75016 16.087V20C11.4734 20 13.0994 19.5116 14.5001 18.6605Z" fill="#0F993E" />
  <path d="M3.96739 9.99985C3.96739 8.89169 4.25469 7.85494 4.74828 6.95896L1.52697 5.00452C0.71394 6.47432 0.25 8.18126 0.25 9.99985C0.25 11.8184 0.714116 13.5256 1.52714 14.9954L4.74845 13.0409C4.25486 12.1449 3.96739 11.108 3.96739 9.99985Z" fill="#FFD500" />
  <path d="M9.75 3.91304C11.1427 3.91304 12.4221 4.43397 13.4213 5.30049C13.6678 5.51424 14.0261 5.49881 14.2519 5.26112L16.0061 3.41464C16.2623 3.14495 16.244 2.70351 15.9703 2.45359C14.2961 0.924724 12.1178 0 9.75 0C6.23723 0 3.16627 2.01382 1.52697 5.00452L4.74828 6.95896C5.74967 5.14127 7.61421 3.91304 9.75 3.91304Z" fill="#FF4B26" />
  <path d="M13.4213 5.30049C13.6678 5.51424 14.0261 5.49881 14.2519 5.26112L16.0061 3.41464C16.2623 3.14495 16.244 2.70351 15.9703 2.45359C14.2961 0.924724 12.1178 0 9.75 0V3.91304C11.1427 3.91304 12.4221 4.43397 13.4213 5.30049Z" fill="#D93F21" />
</svg>