<svg width="40" height="40" viewBox="0 0 40 40" fill="none" xmlns="http://www.w3.org/2000/svg">
<path d="M0 16.4C0 7.34253 7.34253 0 16.4 0H23.6C32.6575 0 40 7.34253 40 16.4V23.6C40 32.6575 32.6575 40 23.6 40H16.4C7.34253 40 0 32.6575 0 23.6V16.4Z" fill="url(#paint0_linear_6149_2197)"/>
<path d="M26.6663 18.3337C26.6663 22.4945 22.0505 26.8278 20.5005 28.1662C20.3561 28.2747 20.1803 28.3335 19.9997 28.3335C19.819 28.3335 19.6432 28.2747 19.4988 28.1662C17.9488 26.8278 13.333 22.4945 13.333 18.3337C13.333 16.5655 14.0354 14.8699 15.2856 13.6196C16.5359 12.3694 18.2316 11.667 19.9997 11.667C21.7678 11.667 23.4635 12.3694 24.7137 13.6196C25.964 14.8699 26.6663 16.5655 26.6663 18.3337Z" stroke="white" stroke-width="1.66667" stroke-linecap="round" stroke-linejoin="round"/>
<path d="M20 20.833C21.3807 20.833 22.5 19.7137 22.5 18.333C22.5 16.9523 21.3807 15.833 20 15.833C18.6193 15.833 17.5 16.9523 17.5 18.333C17.5 19.7137 18.6193 20.833 20 20.833Z" stroke="white" stroke-width="1.66667" stroke-linecap="round" stroke-linejoin="round"/>
<defs>
<linearGradient id="paint0_linear_6149_2197" x1="20" y1="0" x2="20" y2="40" gradientUnits="userSpaceOnUse">
<stop stop-color="#4DA7F0"/>
<stop offset="1" stop-color="#3F7F6D"/>
</linearGradient>
</defs>
</svg>
