<svg width="66" height="66" viewBox="0 0 66 66" fill="none" xmlns="http://www.w3.org/2000/svg">
<path d="M0 16C0 7.16344 7.16344 0 16 0H49.2833C58.1199 0 65.2833 7.16345 65.2833 16V49.2833C65.2833 58.1199 58.1199 65.2833 49.2833 65.2833H16C7.16344 65.2833 0 58.1199 0 49.2833V16Z" fill="url(#paint0_linear_6149_1314)"/>
<path d="M29.9141 32.6416H35.353" stroke="white" stroke-width="2.71944" stroke-linecap="round" stroke-linejoin="round"/>
<path d="M29.9141 27.2031H35.353" stroke="white" stroke-width="2.71944" stroke-linecap="round" stroke-linejoin="round"/>
<path d="M35.353 44.8797V40.8005C35.353 40.0793 35.0664 39.3876 34.5564 38.8776C34.0464 38.3676 33.3547 38.0811 32.6335 38.0811C31.9123 38.0811 31.2206 38.3676 30.7106 38.8776C30.2006 39.3876 29.9141 40.0793 29.9141 40.8005V44.8797" stroke="white" stroke-width="2.71944" stroke-linecap="round" stroke-linejoin="round"/>
<path d="M24.475 29.9219H21.7556C21.0343 29.9219 20.3426 30.2085 19.8326 30.7184C19.3226 31.2284 19.0361 31.9201 19.0361 32.6414V42.1594C19.0361 42.8807 19.3226 43.5724 19.8326 44.0824C20.3426 44.5924 21.0343 44.8789 21.7556 44.8789H43.5111C44.2324 44.8789 44.9241 44.5924 45.4341 44.0824C45.9441 43.5724 46.2306 42.8807 46.2306 42.1594V28.5622C46.2306 27.841 45.9441 27.1493 45.4341 26.6393C44.9241 26.1293 44.2324 25.8428 43.5111 25.8428H40.7917" stroke="white" stroke-width="2.71944" stroke-linecap="round" stroke-linejoin="round"/>
<path d="M24.4746 44.8793V23.1237C24.4746 22.4025 24.7611 21.7108 25.2711 21.2008C25.7811 20.6908 26.4728 20.4043 27.1941 20.4043H38.0718C38.7931 20.4043 39.4848 20.6908 39.9948 21.2008C40.5048 21.7108 40.7913 22.4025 40.7913 23.1237V44.8793" stroke="white" stroke-width="2.71944" stroke-linecap="round" stroke-linejoin="round"/>
<defs>
<linearGradient id="paint0_linear_6149_1314" x1="32.6417" y1="0" x2="32.6417" y2="65.2833" gradientUnits="userSpaceOnUse">
<stop stop-color="#4DA7F0"/>
<stop offset="1" stop-color="#3F7F6D"/>
</linearGradient>
</defs>
</svg>
