<svg width="40" height="40" viewBox="0 0 40 40" fill="none" xmlns="http://www.w3.org/2000/svg">
<path d="M0 16.4C0 7.34253 7.34253 0 16.4 0H23.6C32.6575 0 40 7.34253 40 16.4V23.6C40 32.6575 32.6575 40 23.6 40H16.4C7.34253 40 0 32.6575 0 23.6V16.4Z" fill="url(#paint0_linear_6149_4332)"/>
<path d="M26.6668 18.3337C26.6668 22.4945 22.051 26.8278 20.501 28.1662C20.3566 28.2747 20.1808 28.3335 20.0002 28.3335C19.8195 28.3335 19.6437 28.2747 19.4993 28.1662C17.9493 26.8278 13.3335 22.4945 13.3335 18.3337C13.3335 16.5655 14.0359 14.8699 15.2861 13.6196C16.5364 12.3694 18.2321 11.667 20.0002 11.667C21.7683 11.667 23.464 12.3694 24.7142 13.6196C25.9645 14.8699 26.6668 16.5655 26.6668 18.3337Z" stroke="white" stroke-width="1.66667" stroke-linecap="round" stroke-linejoin="round"/>
<path d="M20 20.833C21.3807 20.833 22.5 19.7137 22.5 18.333C22.5 16.9523 21.3807 15.833 20 15.833C18.6193 15.833 17.5 16.9523 17.5 18.333C17.5 19.7137 18.6193 20.833 20 20.833Z" stroke="white" stroke-width="1.66667" stroke-linecap="round" stroke-linejoin="round"/>
<defs>
<linearGradient id="paint0_linear_6149_4332" x1="20" y1="0" x2="20" y2="40" gradientUnits="userSpaceOnUse">
<stop stop-color="#F8D568"/>
<stop offset="1" stop-color="#F05B5B"/>
</linearGradient>
</defs>
</svg>
