<svg width="19" height="19" viewBox="0 0 19 19" fill="none" xmlns="http://www.w3.org/2000/svg">
  <path d="M10.6935 12.973C10.8656 13.052 11.0595 13.0701 11.2432 13.0242C11.427 12.9783 11.5896 12.8712 11.7043 12.7205L12.0002 12.333C12.1554 12.126 12.3567 11.958 12.5881 11.8423C12.8196 11.7266 13.0748 11.6663 13.3335 11.6663H15.8335C16.2755 11.6663 16.6994 11.8419 17.012 12.1545C17.3246 12.4671 17.5002 12.891 17.5002 13.333V15.833C17.5002 16.275 17.3246 16.699 17.012 17.0115C16.6994 17.3241 16.2755 17.4997 15.8335 17.4997C11.8552 17.4997 8.03994 15.9193 5.22689 13.1063C2.41385 10.2932 0.833496 6.47792 0.833496 2.49967C0.833496 2.05765 1.00909 1.63372 1.32165 1.32116C1.63421 1.0086 2.05814 0.833008 2.50016 0.833008H5.00016C5.44219 0.833008 5.86611 1.0086 6.17867 1.32116C6.49123 1.63372 6.66683 2.05765 6.66683 2.49967V4.99967C6.66683 5.25842 6.60659 5.5136 6.49087 5.74503C6.37516 5.97646 6.20716 6.17776 6.00016 6.33301L5.61016 6.62551C5.45718 6.74232 5.34935 6.9085 5.30499 7.0958C5.26063 7.2831 5.28248 7.47999 5.36683 7.65301C6.50573 9.96623 8.37885 11.837 10.6935 12.973Z" stroke="#99A1AF" stroke-width="1.66667" stroke-linecap="round" stroke-linejoin="round" />
</svg>