<svg width="40" height="40" viewBox="0 0 40 40" fill="none" xmlns="http://www.w3.org/2000/svg">
<path d="M0 16.4C0 7.34253 7.34253 0 16.4 0H23.6C32.6575 0 40 7.34253 40 16.4V23.6C40 32.6575 32.6575 40 23.6 40H16.4C7.34253 40 0 32.6575 0 23.6V16.4Z" fill="url(#paint0_linear_6149_2329)"/>
<path d="M24.6836 27.0664V17.8997C24.6836 17.6787 24.5958 17.4668 24.4395 17.3105C24.2832 17.1542 24.0713 17.0664 23.8503 17.0664H15.5169C15.2959 17.0664 15.084 17.1542 14.9277 17.3105C14.7714 17.4668 14.6836 17.6787 14.6836 17.8997V27.0664" stroke="white" stroke-width="1.66667" stroke-linecap="round" stroke-linejoin="round"/>
<path d="M28.0173 25.3994C28.0173 25.8414 27.8417 26.2654 27.5291 26.5779C27.2165 26.8905 26.7926 27.0661 26.3506 27.0661H13.0173C12.5752 27.0661 12.1513 26.8905 11.8387 26.5779C11.5262 26.2654 11.3506 25.8414 11.3506 25.3994V16.2327C11.3504 15.9189 11.4388 15.6114 11.6057 15.3455C11.7726 15.0797 12.0112 14.8665 12.2939 14.7302L18.9189 11.4186C19.1555 11.2963 19.418 11.2324 19.6843 11.2324C19.9507 11.2324 20.2132 11.2963 20.4498 11.4186L27.0731 14.7302C27.356 14.8663 27.5947 15.0796 27.7618 15.3454C27.9288 15.6112 28.0174 15.9188 28.0173 16.2327V25.3994Z" stroke="white" stroke-width="1.66667" stroke-linecap="round" stroke-linejoin="round"/>
<path d="M14.6836 20.3994H24.6836" stroke="white" stroke-width="1.66667" stroke-linecap="round" stroke-linejoin="round"/>
<path d="M14.6836 23.7334H24.6836" stroke="white" stroke-width="1.66667" stroke-linecap="round" stroke-linejoin="round"/>
<defs>
<linearGradient id="paint0_linear_6149_2329" x1="20" y1="0" x2="20" y2="40" gradientUnits="userSpaceOnUse">
<stop stop-color="#97E3D5"/>
<stop offset="1" stop-color="#3F7F6D"/>
</linearGradient>
</defs>
</svg>
