<svg width="28" height="28" viewBox="0 0 28 28" fill="none" xmlns="http://www.w3.org/2000/svg">
  <path d="M23.3334 15.1669C23.3334 21.0002 19.2501 23.9169 14.3967 25.6085C14.1426 25.6947 13.8665 25.6905 13.6151 25.5969C8.75008 23.9169 4.66675 21.0002 4.66675 15.1669V7.0002C4.66675 6.69078 4.78966 6.39403 5.00846 6.17524C5.22725 5.95645 5.524 5.83353 5.83341 5.83353C8.16675 5.83353 11.0834 4.43353 13.1134 2.6602C13.3606 2.44903 13.675 2.33301 14.0001 2.33301C14.3252 2.33301 14.6396 2.44903 14.8867 2.6602C16.9284 4.4452 19.8334 5.83353 22.1667 5.83353C22.4762 5.83353 22.7729 5.95645 22.9917 6.17524C23.2105 6.39403 23.3334 6.69078 23.3334 7.0002V15.1669Z" stroke="#D08700" stroke-width="2.33333" stroke-linecap="round" stroke-linejoin="round" />
</svg>