<svg width="77" height="32" viewBox="0 0 77 32" fill="none" xmlns="http://www.w3.org/2000/svg">
  <path d="M0 4C0 1.79086 1.79086 0 4 0H72.8904C75.0995 0 76.8904 1.79086 76.8904 4V27.9982C76.8904 30.2073 75.0995 31.9982 72.8904 31.9982H4C1.79086 31.9982 0 30.2073 0 27.9982V4Z" fill="white" />
  <path fill-rule="evenodd" clip-rule="evenodd" d="M22.8863 8.07499C22.1768 8.89116 21.0757 9.5033 19.9502 9.41261C19.8034 8.34704 20.3662 7.19079 21.0023 6.48797C21.6874 5.67179 22.9108 5.08233 23.9139 5.03699C24.0363 6.17057 23.5714 7.25881 22.8863 8.07499Z" fill="#111111" />
  <path fill-rule="evenodd" clip-rule="evenodd" d="M23.8895 9.63933C22.9108 9.57131 22.0055 9.91139 21.2959 10.1834C20.831 10.3648 20.4151 10.5235 20.1215 10.5235C19.779 10.5235 19.363 10.3648 18.8981 10.1834C18.3109 9.95673 17.6258 9.68467 16.8918 9.70734C15.228 9.73001 13.6866 10.6369 12.8302 12.0879C11.093 14.9898 12.3653 19.2748 14.0536 21.6326C14.8855 22.8115 15.8886 24.0812 17.1854 24.0358C17.7482 24.0131 18.1641 23.8544 18.6045 23.6731C19.0939 23.469 19.6077 23.265 20.4151 23.265C21.1736 23.265 21.6629 23.469 22.1523 23.6731C22.5682 23.8544 22.9842 24.0358 23.6203 24.0131C24.966 23.9905 25.8224 22.8342 26.6543 21.678C27.5351 20.431 27.9266 19.2068 28 19.0027V18.98C28 18.98 27.9755 18.98 27.9755 18.9574C27.6819 18.8213 25.4065 17.8238 25.382 15.1259C25.3575 12.8587 27.1926 11.7024 27.4862 11.5211C27.5107 11.5211 27.5107 11.4984 27.5107 11.4984C26.3362 9.86604 24.5256 9.68467 23.8895 9.63933Z" fill="#111111" />
  <path fill-rule="evenodd" clip-rule="evenodd" d="M39.4802 9.03699H34V23.132H36.267V18.2999H39.4014C42.2795 18.2999 44.2902 16.4036 44.2902 13.6502C44.2902 10.8969 42.3189 9.03699 39.4802 9.03699ZM38.8888 16.4765H36.267V10.8786H38.8888C40.8602 10.8786 41.9838 11.8998 41.9838 13.6685C41.9838 15.4372 40.8602 16.4765 38.8888 16.4765Z" fill="#111111" />
  <path fill-rule="evenodd" clip-rule="evenodd" d="M49.6522 12.775C47.2472 12.775 45.4533 14.1061 45.3942 15.9295H47.4443C47.6217 15.0543 48.4497 14.489 49.5931 14.489C50.973 14.489 51.7615 15.109 51.7615 16.2577V17.0418L48.9228 17.2059C46.2813 17.3518 44.8619 18.3911 44.8619 20.2145C44.8619 22.0379 46.3404 23.2596 48.4497 23.2596C49.869 23.2596 51.1898 22.5667 51.8009 21.4545H51.8403V23.1502H53.9496V16.1118C53.9299 14.0879 52.2543 12.775 49.6522 12.775ZM51.7615 19.3028C51.7615 20.6157 50.5984 21.5639 49.0608 21.5639C47.8583 21.5639 47.0895 20.9986 47.0895 20.1416C47.0895 19.2481 47.8386 18.7376 49.2382 18.6646L51.7615 18.5188V19.3028Z" fill="#111111" />
  <path fill-rule="evenodd" clip-rule="evenodd" d="M60.9084 23.679C60.0016 26.1406 58.9568 26.9612 56.7489 26.9612C56.5715 26.9612 56.0195 26.9429 55.8815 26.9065V25.2107C56.0195 25.2289 56.3743 25.2472 56.5518 25.2472C57.5571 25.2472 58.1091 24.846 58.4639 23.7884L58.6611 23.1685L54.817 12.9026H57.1826L59.8636 21.2174H59.903L62.584 12.9026H64.8904L60.9084 23.679Z" fill="#111111" />
</svg>