<svg width="76" height="34" viewBox="0 0 76 34" fill="none" xmlns="http://www.w3.org/2000/svg">
<path d="M0 5.00086C0 2.79172 1.79086 1.00085 4 1.00085H72C74.2091 1.00085 76 2.79172 76 5.00085V28.999C76 31.2082 74.2091 32.999 72 32.999H4C1.79086 32.999 0 31.2082 0 28.999V5.00086Z" fill="white"/>
<path d="M36.2746 17.7269V23.6232H34.3652V9.06274H39.427C40.7098 9.06274 41.8037 9.48182 42.6988 10.32C43.6137 11.1581 44.0711 12.1815 44.0711 13.39C44.0711 14.6277 43.6137 15.651 42.6988 16.4794C41.8137 17.3078 40.7198 17.7172 39.427 17.7172H36.2746V17.7269ZM36.2746 10.856V15.9337H39.4668C40.2226 15.9337 40.859 15.6803 41.3562 15.1832C41.8634 14.6862 42.122 14.0819 42.122 13.3997C42.122 12.7272 41.8634 12.1327 41.3562 11.6357C40.859 11.1191 40.2325 10.8657 39.4668 10.8657H36.2746V10.856Z" fill="#111111"/>
<path d="M49.0642 13.3312C50.4763 13.3312 51.5901 13.7015 52.4055 14.4422C53.221 15.1829 53.6287 16.1965 53.6287 17.483V23.6229H51.8089V22.239H51.7293C50.9437 23.3793 49.8896 23.9445 48.5769 23.9445C47.4532 23.9445 46.5184 23.6229 45.7626 22.9699C45.0068 22.317 44.6289 21.508 44.6289 20.5334C44.6289 19.5004 45.0267 18.6817 45.8223 18.0775C46.6178 17.4635 47.6819 17.1613 49.0045 17.1613C50.1382 17.1613 51.073 17.366 51.7989 17.7753V17.3465C51.7989 16.6935 51.5404 16.1478 51.0133 15.6897C50.4862 15.2316 49.8697 15.0075 49.1636 15.0075C48.0996 15.0075 47.2543 15.4461 46.6377 16.3329L44.9571 15.2999C45.8819 13.9842 47.2543 13.3312 49.0642 13.3312ZM46.5979 20.5627C46.5979 21.05 46.8068 21.4593 47.2344 21.7809C47.6521 22.1025 48.1493 22.2682 48.7161 22.2682C49.5216 22.2682 50.2376 21.9759 50.8641 21.3911C51.4907 20.8063 51.8089 20.1241 51.8089 19.3347C51.2122 18.8766 50.3868 18.6427 49.3227 18.6427C48.5471 18.6427 47.9007 18.8279 47.3835 19.1885C46.8565 19.5686 46.5979 20.0267 46.5979 20.5627Z" fill="#111111"/>
<path d="M64.009 13.6534L57.6445 27.9995H55.6755L58.0423 22.9803L53.8457 13.6534H55.9241L58.9473 20.807H58.987L61.9306 13.6534H64.009Z" fill="#111111"/>
<path d="M28.6801 16.5376C28.6801 15.9275 28.6244 15.3437 28.5209 14.7823H20.5176V17.9985L25.1269 17.9995C24.9399 19.0696 24.3383 19.9818 23.4164 20.59V22.6766H26.1601C27.7622 21.2235 28.6801 19.0754 28.6801 16.5376Z" fill="#4285F4"/>
<path d="M23.4176 20.5894C22.6539 21.0942 21.6704 21.3895 20.5198 21.3895C18.2972 21.3895 16.4117 19.9218 15.7365 17.9434H12.9062V20.0953C14.3084 22.8222 17.1904 24.6934 20.5198 24.6934C22.821 24.6934 24.7542 23.9518 26.1613 22.675L23.4176 20.5894Z" fill="#34A853"/>
<path d="M15.4696 16.3469C15.4696 15.7914 15.5641 15.2544 15.7362 14.7496V12.5977H12.9059C12.3262 13.7253 12 14.9981 12 16.3469C12 17.6958 12.3272 18.9686 12.9059 20.0962L15.7362 17.9443C15.5641 17.4395 15.4696 16.9025 15.4696 16.3469Z" fill="#FABB05"/>
<path d="M20.5198 11.3039C21.7758 11.3039 22.9005 11.7278 23.7886 12.5562L26.22 10.1753C24.7432 8.82743 22.818 8 20.5198 8C17.1914 8 14.3084 9.87123 12.9062 12.5981L15.7365 14.7501C16.4117 12.7716 18.2972 11.3039 20.5198 11.3039Z" fill="#E94235"/>
</svg>
