<svg width="101" height="37" viewBox="0 0 101 37" fill="none" xmlns="http://www.w3.org/2000/svg">
<path fill-rule="evenodd" clip-rule="evenodd" d="M0.0507812 11.6836V23.2015L0.702799 22.4298C3.43887 19.1917 4.55451 18.0722 6.04515 17.0694C7.578 16.0383 8.72451 15.5261 10.6044 15.0328C11.4087 14.8218 11.7821 14.8098 19.3729 14.75C28.2212 14.6803 27.5131 14.7451 28.4183 13.9226C29.0877 13.3144 29.3878 12.6232 29.3931 11.6776C29.3967 11.0198 29.3505 10.7961 29.12 10.3575C28.79 9.72906 28.3143 9.25675 27.6688 8.91668L27.1962 8.66764L19.3204 8.60892C11.7062 8.5521 11.4163 8.5426 10.5951 8.32409C8.89537 7.87185 7.34372 7.13784 5.8367 6.07315C4.73691 5.29616 2.82949 3.39111 1.41593 1.65768C0.751732 0.843298 0.17291 0.174451 0.12954 0.171388C0.0861701 0.168325 0.0507812 5.34886 0.0507812 11.6836ZM27.7213 23.2009C27.4325 23.2425 24.2428 23.2832 20.633 23.2915L14.0698 23.3064L14.8574 23.5428C15.9747 23.8784 17.1072 24.5128 17.8701 25.2305C18.2966 25.6319 19.6767 27.4266 21.8096 30.3539C23.6152 32.8321 25.2741 35.0591 25.4961 35.3027C26.0305 35.8893 26.7889 36.3678 27.5733 36.6134C28.1625 36.7979 28.5991 36.8135 33.15 36.8135C37.2563 36.8135 38.0783 36.7895 38.0329 36.6706C38.003 36.5922 36.8027 34.8931 35.3656 32.895C33.9286 30.897 31.7722 27.8974 30.5736 26.2291C29.3751 24.5609 28.3611 23.1801 28.3204 23.1606C28.2796 23.1411 28.0101 23.1592 27.7213 23.2009ZM4.54044 27.8386C2.2326 28.425 0.679379 30.7861 1.08819 33.0867C1.26776 34.0971 1.59466 34.7524 2.30286 35.5218C3.70045 37.0399 5.73715 37.4191 7.65245 36.5177C10.2158 35.3113 11.0496 31.971 9.36214 29.6683C8.82155 28.9306 8.36926 28.5685 7.44547 28.1337C6.876 27.8657 6.59646 27.8028 5.84468 27.7738C5.34367 27.7545 4.75676 27.7836 4.54044 27.8386Z" fill="#B5B5B5"/>
<path fill-rule="evenodd" clip-rule="evenodd" d="M0.105011 0.119639C0.18419 0.221134 0.909358 1.04821 1.5808 1.86154C4.42356 5.30474 6.6624 7.10407 9.70228 8.09346C11.2973 8.61265 11.8115 8.67433 19.5733 8.67433C27.9495 8.67433 27.3442 8.62152 28.4674 9.51934C28.9204 9.97453 29.1016 10.251 29.2287 10.6817C29.5696 11.8359 29.3543 12.7912 28.5553 13.6705C27.5938 14.7285 28.3754 14.5803 19.1646 14.6943C12.6539 14.6943 10.9212 14.7714 10.1377 15.1043C8.90503 15.4519 7.67451 15.9787 6.67028 16.5889C4.93403 17.6435 3.8745 18.5564 1.68018 21.1367C0.840406 22.1241 0.0968843 23.0437 0.00825467 23.1163C-0.120909 23.2222 1.2266 23.2486 6.82433 23.2499C26.5664 23.2542 26.8414 23.252 28.0443 23.0833C32.6478 22.4375 36.4526 19.0547 37.5828 14.6026C38.2731 11.8835 38.0155 9.12614 36.8417 6.67137C36.1938 5.31657 35.6441 4.53081 34.6183 3.49379C33.2764 2.13698 31.786 1.22881 29.8575 0.592917C28.0965 0.012256 28.1666 0.0146864 13.5523 0.0140528C0.732728 0.0134191 -0.0321335 -0.0559953 0.105011 0.119639Z" fill="#FCBF09"/>
<path d="M22.4102 9.20255C22.4102 8.92192 22.6376 8.69443 22.9183 8.69443H27.5657C29.0681 8.69443 30.286 9.91236 30.286 11.4148C30.286 13.2021 28.8371 14.651 27.0498 14.651H22.8417C22.6034 14.651 22.4102 14.4578 22.4102 14.2195V9.20255Z" fill="#B5B5B5"/>
<path d="M46.6079 16.3069C46.1461 15.8469 46.0764 11.1809 46.5248 10.7345C46.7365 10.5237 49.0515 10.4705 56.0493 10.5161L65.2941 10.5761L65.3597 13.3322C65.4165 15.7237 65.3726 16.1264 65.0269 16.3782C64.7229 16.5995 62.5407 16.6681 55.7997 16.6681C48.0813 16.6681 46.9252 16.6225 46.6079 16.3069Z" fill="#B5B5B5"/>
<path d="M71.0025 23.7945C70.9674 17.0301 70.9954 11.2627 71.0646 10.9784C71.1865 10.4779 71.2801 10.4611 73.9434 10.4611C75.4771 10.4611 76.7576 10.5602 76.8349 10.6846C76.9111 10.8075 76.9672 15.2041 76.9594 20.4547L76.9451 30.0015H83.1377C87.6464 30.0015 89.4056 30.0764 89.6074 30.2773C90.0202 30.6884 89.987 35.6077 89.5688 35.953C89.3426 36.1401 86.6803 36.1967 80.1598 36.1537L71.0665 36.0935L71.0025 23.7945Z" fill="#B5B5B5"/>
<path d="M95.0196 23.5646C94.9866 16.6738 95.0094 10.9066 95.0702 10.7485C95.2399 10.3069 100.648 10.3448 100.898 10.7894C101 10.9698 101.031 16.737 100.967 23.6056L100.852 36.0935H97.9658H95.0796L95.0196 23.5646Z" fill="#B5B5B5"/>
<path d="M46.2452 28.2477C46.2452 21.8189 46.2932 20.7911 46.6079 20.4775C46.9217 20.1653 47.9083 20.1163 53.8964 20.1163C58.2289 20.1163 60.9893 20.2055 61.2686 20.3543C61.6702 20.5683 61.7152 20.8573 61.7152 23.2198C61.7152 25.5824 61.6702 25.8713 61.2686 26.0854C61.008 26.2242 59.0846 26.3233 56.6507 26.3233H52.4794V28.1624V30.0015H58.6674C63.1724 30.0015 64.9307 30.0764 65.1325 30.2773C65.3163 30.4603 65.4095 31.4571 65.4095 33.2413C65.4095 35.4804 65.3486 35.9525 65.0443 36.0689C64.8434 36.1456 60.6561 36.2084 55.7392 36.2084C49.0938 36.2084 46.7282 36.1376 46.5223 35.9325C46.3182 35.7293 46.2452 33.7038 46.2452 28.2477Z" fill="#B5B5B5"/>
</svg>

