<svg width="54" height="32" viewBox="0 0 54 32" fill="none" xmlns="http://www.w3.org/2000/svg">
<path d="M0 4C0 1.79086 1.79086 0 4 0H50C52.2091 0 54 1.79086 54 4V27.9982C54 30.2073 52.2091 31.9982 50 31.9982H4C1.79086 31.9982 0 30.2073 0 27.9982V4Z" fill="white"/>
<path d="M31.0575 8.45276H22.9453V23.0629H31.0575V8.45276Z" fill="#7375CF"/>
<path d="M23.4593 15.7573C23.458 14.3503 23.7761 12.9613 24.3896 11.6957C25.0031 10.4301 25.8958 9.32096 27.0002 8.45225C25.6326 7.37484 23.9901 6.70482 22.2604 6.51876C20.5308 6.33271 18.7838 6.63812 17.2191 7.4001C15.6545 8.16208 14.3353 9.34988 13.4124 10.8277C12.4894 12.3056 12 14.0139 12 15.7573C12 17.5008 12.4894 19.2091 13.4124 20.6869C14.3353 22.1648 15.6545 23.3526 17.2191 24.1145C18.7838 24.8765 20.5308 25.1819 22.2604 24.9959C23.9901 24.8098 25.6326 24.1398 27.0002 23.0624C25.8958 22.1937 25.0031 21.0845 24.3896 19.8189C23.7761 18.5533 23.458 17.1644 23.4593 15.7573Z" fill="#EB001B"/>
<path d="M41.1158 21.5146V21.2155H41.2362V21.1545H40.9297V21.2155H41.0501V21.5146H41.1158ZM41.7108 21.5146V21.1539H41.6169L41.5088 21.402L41.4008 21.1539H41.3068V21.5146H41.3731V21.2425L41.4744 21.4771H41.5432L41.6446 21.2419V21.5146H41.7108Z" fill="#00A2E5"/>
<path d="M41.9998 15.7576C41.9998 17.501 41.5105 19.2093 40.5876 20.6871C39.6647 22.165 38.3456 23.3528 36.781 24.1148C35.2163 24.8768 33.4694 25.1822 31.7398 24.9961C30.0101 24.8101 28.3676 24.14 27 23.0626C28.1034 22.193 28.9955 21.0837 29.6089 19.8183C30.2223 18.5529 30.541 17.1644 30.541 15.7576C30.541 14.3507 30.2223 12.9623 29.6089 11.6968C28.9955 10.4314 28.1034 9.32208 27 8.45249C28.3676 7.37509 30.0101 6.70506 31.7398 6.51901C33.4694 6.33295 35.2163 6.63837 36.781 7.40036C38.3456 8.16235 39.6647 9.35015 40.5876 10.828C41.5105 12.3059 41.9998 14.0141 41.9998 15.7576Z" fill="#00A2E5"/>
</svg>
