<svg width="54" height="32" viewBox="0 0 54 32" fill="none" xmlns="http://www.w3.org/2000/svg">
<path d="M0 4C0 1.79086 1.79086 0 4 0H50C52.2091 0 54 1.79086 54 4V27.9982C54 30.2073 52.2091 31.9982 50 31.9982H4C1.79086 31.9982 0 30.2073 0 27.9982V4Z" fill="white"/>
<path d="M31.0555 8.43164H22.9434V23.0808H31.0555V8.43164Z" fill="#FF5F00"/>
<path d="M23.4592 15.7566C23.4579 14.3458 23.7761 12.9532 24.3895 11.6842C25.003 10.4152 25.8958 9.30307 27.0002 8.43204C25.6325 7.35176 23.99 6.67995 22.2603 6.49339C20.5307 6.30684 18.7837 6.61307 17.2191 7.37708C15.6544 8.14109 14.3353 9.33206 13.4123 10.8139C12.4894 12.2957 12 14.0085 12 15.7566C12 17.5047 12.4894 19.2176 13.4123 20.6993C14.3353 22.1811 15.6544 23.3721 17.2191 24.1361C18.7837 24.9001 20.5307 25.2064 22.2603 25.0198C23.99 24.8333 25.6325 24.1614 27.0002 23.0812C25.8958 22.2101 25.003 21.098 24.3895 19.829C23.7761 18.56 23.4579 17.1674 23.4592 15.7566Z" fill="#EB001B"/>
<path d="M41.9997 15.7567C41.9998 17.5048 41.5104 19.2176 40.5875 20.6994C39.6647 22.1812 38.3455 23.3722 36.7809 24.1362C35.2163 24.9002 33.4694 25.2065 31.7397 25.0199C30.0101 24.8334 28.3676 24.1616 27 23.0813C28.1034 22.2094 28.9955 21.0971 29.6089 19.8283C30.2222 18.5595 30.5409 17.1673 30.5409 15.7567C30.5409 14.3461 30.2222 12.954 29.6089 11.6852C28.9955 10.4164 28.1034 9.30407 27 8.43216C28.3676 7.35188 30.0101 6.68007 31.7397 6.49351C33.4694 6.30696 35.2163 6.6132 36.7809 7.37722C38.3455 8.14124 39.6647 9.33221 40.5875 10.814C41.5104 12.2958 41.9998 14.0086 41.9997 15.7567Z" fill="#F79E1B"/>
<path d="M41.1158 21.5292V21.2293H41.2362V21.1682H40.9297V21.2293H41.0501V21.5292H41.1158ZM41.7108 21.5292V21.1676H41.6169L41.5088 21.4163L41.4008 21.1676H41.3068V21.5292H41.3731V21.2565L41.4744 21.4916H41.5432L41.6446 21.2559V21.5292H41.7108Z" fill="#F79E1B"/>
</svg>
