<svg width="82" height="32" viewBox="0 0 82 32" fill="none" xmlns="http://www.w3.org/2000/svg">
  <path d="M0 4C0 1.79086 1.79086 0 4 0H77.0623C79.2715 0 81.0623 1.79086 81.0623 4V27.9982C81.0623 30.2073 79.2715 31.9982 77.0623 31.9982H4C1.79086 31.9982 0 30.2073 0 27.9982V4Z" fill="white" />
  <path d="M18.83 8.41565H14.403C14.1 8.41565 13.8424 8.63574 13.7951 8.9348L12.0046 20.2869C11.969 20.5109 12.1425 20.7128 12.3697 20.7128H14.4832C14.7862 20.7128 15.0438 20.4927 15.0911 20.193L15.574 17.1312C15.6206 16.8315 15.8789 16.6114 16.1812 16.6114H17.5826C20.4988 16.6114 22.1818 15.2002 22.6214 12.4038C22.8194 11.1804 22.6298 10.2191 22.0569 9.54587C21.4277 8.80663 20.3117 8.41565 18.83 8.41565ZM19.3407 12.5617C19.0986 14.1503 17.8849 14.1503 16.7113 14.1503H16.0433L16.5119 11.1836C16.5398 11.0043 16.6951 10.8722 16.8764 10.8722H17.1826C17.982 10.8722 18.7361 10.8722 19.1258 11.3279C19.3582 11.5998 19.4294 12.0038 19.3407 12.5617Z" fill="#253B80" />
  <path d="M32.0641 12.5105H29.9441C29.7635 12.5105 29.6075 12.6426 29.5797 12.8219L29.4858 13.4148L29.3376 13.1999C28.8786 12.5338 27.8552 12.3112 26.8337 12.3112C24.4911 12.3112 22.4902 14.0855 22.1005 16.5744C21.8979 17.816 22.186 19.0032 22.8903 19.8311C23.5363 20.5923 24.4607 20.9095 25.5605 20.9095C27.448 20.9095 28.4948 19.6958 28.4948 19.6958L28.4003 20.2849C28.3647 20.5101 28.5381 20.7121 28.7641 20.7121H30.6737C30.9772 20.7121 31.2336 20.492 31.2815 20.1923L32.4272 12.9365C32.4635 12.7131 32.2907 12.5105 32.0641 12.5105ZM29.1091 16.6366C28.9045 17.8477 27.9433 18.6607 26.7172 18.6607C26.1016 18.6607 25.6097 18.4633 25.2938 18.0891C24.9805 17.7176 24.8614 17.1887 24.961 16.5997C25.152 15.3989 26.1295 14.5593 27.3367 14.5593C27.9387 14.5593 28.4281 14.7593 28.7505 15.1367C29.0735 15.518 29.2016 16.0501 29.1091 16.6366Z" fill="#253B80" />
  <path d="M43.3538 12.5114H41.2235C41.0202 12.5114 40.8292 12.6123 40.714 12.7813L37.7758 17.1093L36.5304 12.9502C36.4521 12.69 36.2119 12.5114 35.94 12.5114H33.8466C33.5922 12.5114 33.4155 12.7599 33.4964 12.9994L35.8429 19.8856L33.6369 22.9999C33.4634 23.2452 33.6382 23.5825 33.9379 23.5825H36.0656C36.2676 23.5825 36.4566 23.4841 36.5712 23.3184L43.6567 13.0907C43.8263 12.846 43.6522 12.5114 43.3538 12.5114Z" fill="#253B80" />
  <path d="M50.5527 8.75208H46.125C45.8227 8.75208 45.565 8.97216 45.5178 9.27123L43.7273 20.6233C43.6917 20.8473 43.8652 21.0492 44.0911 21.0492H46.3632C46.5742 21.0492 46.7548 20.8952 46.7878 20.6854L47.296 17.4676C47.3426 17.1679 47.6009 16.9478 47.9032 16.9478H49.304C52.2208 16.9478 53.9032 15.5367 54.3434 12.7402C54.5421 11.5168 54.3511 10.5555 53.7783 9.8823C53.1497 9.14306 52.0344 8.75208 50.5527 8.75208ZM51.0634 12.8982C50.8219 14.4867 49.6082 14.4867 48.434 14.4867H47.7666L48.2359 11.52C48.2637 11.3407 48.4178 11.2087 48.5997 11.2087H48.9059C49.7047 11.2087 50.4594 11.2087 50.8491 11.6644C51.0815 11.9362 51.1521 12.3402 51.0634 12.8982Z" fill="#179BD7" />
  <path d="M63.7859 12.847H61.6673C61.4854 12.847 61.3307 12.979 61.3035 13.1583L61.2096 13.7513L61.0607 13.5364C60.6018 12.8703 59.579 12.6476 58.5575 12.6476C56.2149 12.6476 54.2146 14.4219 53.825 16.9108C53.623 18.1524 53.9098 19.3396 54.614 20.1675C55.2614 20.9288 56.1844 21.246 57.2842 21.246C59.1718 21.246 60.2186 20.0322 60.2186 20.0322L60.124 20.6213C60.0884 20.8466 60.2619 21.0485 60.4891 21.0485H62.3981C62.7004 21.0485 62.958 20.8284 63.0053 20.5287L64.1517 13.2729C64.1866 13.0496 64.0132 12.847 63.7859 12.847ZM60.8309 16.973C60.6277 18.1841 59.6651 18.9972 58.4391 18.9972C57.8248 18.9972 57.3315 18.7997 57.0156 18.4256C56.7023 18.054 56.5845 17.5252 56.6829 16.9361C56.8751 15.7353 57.8513 14.8957 59.0586 14.8957C59.6606 14.8957 60.1499 15.0958 60.4723 15.4731C60.7966 15.8544 60.9248 16.3865 60.8309 16.973Z" fill="#179BD7" />
  <path d="M66.2846 9.06408L64.4675 20.624C64.4319 20.8479 64.6054 21.0499 64.8313 21.0499H66.6581C66.9617 21.0499 67.2193 20.8298 67.2659 20.5301L69.0577 9.17866C69.0933 8.95469 68.9198 8.75208 68.6939 8.75208H66.6484C66.4678 8.75272 66.3124 8.88478 66.2846 9.06408Z" fill="#179BD7" />
</svg>