<svg width="77" height="32" viewBox="0 0 77 32" fill="none" xmlns="http://www.w3.org/2000/svg">
  <path d="M0 4C0 1.79086 1.79086 0 4 0H73C75.2091 0 77 1.79086 77 4V27.9982C77 30.2073 75.2091 31.9982 73 31.9982H4C1.79086 31.9982 0 30.2073 0 27.9982V4Z" fill="white" />
  <path fill-rule="evenodd" clip-rule="evenodd" d="M40.6983 7.9868L36.9989 8.77302V5.77108L40.6983 4.99915V7.9868ZM48.3815 9.65931C46.9444 9.65931 46.0054 10.3312 45.4932 10.8029L45.3082 9.88803H42.0642V26.9991L45.7493 26.2272L45.7635 22.0674C46.2899 22.4533 47.0725 22.9965 48.3672 22.9965C50.9995 22.9965 53.404 20.8809 53.404 16.235C53.3756 11.9751 50.9568 9.65931 48.3815 9.65931ZM47.4851 19.7659C46.6172 19.7659 46.105 19.4514 45.7493 19.0797L45.735 13.6333C46.1192 13.2045 46.6456 12.9186 47.4851 12.9186C48.8225 12.9186 49.7474 14.4195 49.7474 16.3351C49.7616 18.2935 48.851 19.7659 47.4851 19.7659ZM65 16.378C65 12.6184 63.1788 9.65931 59.6787 9.65931C56.1785 9.65931 54.0585 12.6184 54.0585 16.3494C54.0585 20.7665 56.5627 22.9965 60.1482 22.9965C61.8983 22.9965 63.2215 22.5963 64.2317 22.0388V19.1083C63.2357 19.6086 62.0832 19.9088 60.6319 19.9088C59.2091 19.9088 57.9428 19.4085 57.7721 17.6788H64.9715C64.9715 17.593 64.9715 17.4072 64.9858 17.2071C64.9858 16.9212 65 16.5781 65 16.378ZM57.7294 14.9771C57.7294 13.3188 58.7396 12.6327 59.6787 12.6327C60.575 12.6327 61.5283 13.3188 61.5283 14.9771H57.7294ZM40.6983 9.90233H36.9989V22.7535H40.6983V9.90233ZM32.8016 9.90233L33.0435 10.9887C33.9114 9.402 35.633 9.73079 36.1025 9.90233V13.2759C35.6472 13.1187 34.1675 12.9043 33.2996 14.0336V22.7392H29.6145V9.90233H32.8016ZM25.6733 6.71455L22.0878 7.47218L22.0736 19.237C22.0736 21.4098 23.7098 23.0108 25.8867 23.0108C27.0961 23.0108 27.9783 22.7964 28.462 22.5248V19.5514C27.9925 19.7373 25.6591 20.4234 25.6591 18.2506V13.0329H28.462V9.90233H25.6591L25.6733 6.71455ZM16.9799 12.8328C16.1973 12.8328 15.7278 13.0472 15.7278 13.619C15.7278 14.248 16.5388 14.5196 17.549 14.8627C19.1852 15.4202 21.3479 16.1492 21.3621 18.8653C21.3621 21.4956 19.2564 23.0108 16.1973 23.0108C14.931 23.0108 13.5509 22.7678 12.185 22.1674V18.6795C13.4228 19.3513 14.9879 19.8516 16.1973 19.8516C17.0226 19.8516 17.6059 19.6372 17.6059 18.9511C17.6059 18.2649 16.7238 17.9361 15.6709 17.5644C14.0346 16.9926 12 16.2493 12 13.8049C12 11.2032 13.9919 9.64502 16.9799 9.64502C18.2035 9.64502 19.4129 9.83085 20.6365 10.3169V13.762C19.5125 13.1759 18.0897 12.8328 16.9799 12.8328Z" fill="#635BFF" />
</svg>