<svg width="19" height="21" viewBox="0 0 19 21" fill="none" xmlns="http://www.w3.org/2000/svg">
<path d="M13.7982 7.02134C15.2647 8.03043 17.0604 8.62413 19 8.62413V5.79494C17.9372 5.57604 16.9717 5.04305 16.2383 4.2703C15.0048 3.52909 14.116 2.30622 13.8555 0.874978H11.1365V15.2311C11.1304 16.9047 9.71976 18.2598 7.98057 18.2598C6.95558 18.2598 6.04489 17.7893 5.46826 17.0605C4.43856 16.5599 3.73225 15.5325 3.73225 14.3459C3.73225 12.6676 5.14501 11.3068 6.88816 11.3068C7.22206 11.3068 7.54409 11.357 7.84588 11.4492V8.58909C4.10268 8.66357 1.09226 11.6089 1.09226 15.2312C1.09226 17.0394 1.84193 18.6786 3.05867 19.8764C4.19425 20.611 5.53162 21.0022 6.89943 21C10.7096 21 13.7984 18.0255 13.7984 14.3563L13.7982 7.02134Z" fill="#B5B5B5"/>
<path d="M19 5.79494L18.9998 5.02979C18.0236 5.03123 17.0666 4.76816 16.2383 4.2703C16.9717 5.04305 17.9372 5.57604 19 5.79494ZM13.8555 0.874978C13.8306 0.738244 13.8115 0.600692 13.7982 0.462465V0H10.0439V14.3562C10.0378 16.0295 8.62766 17.3847 6.88816 17.3847C6.39503 17.3854 5.90863 17.2743 5.46826 17.0605C6.04489 17.7893 6.95558 18.2598 7.98057 18.2598C9.71976 18.2598 11.1304 16.9047 11.1365 15.2311V0.874978H13.8555ZM7.84588 8.58909L7.84602 7.77481C7.53231 7.73349 7.21605 7.71282 6.89942 7.71294C3.08895 7.71264 0 10.6871 0 14.3562C0 16.6564 1.21386 18.6839 3.05867 19.8764C1.84193 18.6786 1.09226 17.0394 1.09226 15.2312C1.09226 11.6089 4.10268 8.66357 7.84588 8.58909Z" fill="#B5B5B5"/>
</svg>
