<svg width="66" height="32" viewBox="0 0 66 32" fill="none" xmlns="http://www.w3.org/2000/svg">
<path d="M0 4C0 1.79086 1.79086 0 4 0H62C64.2091 0 66 1.79086 66 4V27.9982C66 30.2073 64.2091 31.9982 62 31.9982H4C1.79086 31.9982 0 30.2073 0 27.9982V4Z" fill="white"/>
<path d="M32.4371 9.46164L29.6795 21.8924H26.3441L29.1019 9.46164H32.4371ZM46.4692 17.4883L48.2246 12.8203L49.2349 17.4883H46.4692ZM50.1918 21.8924H53.2759L50.5815 9.46164H47.7366C47.0955 9.46164 46.555 9.82008 46.3158 10.3728L41.3113 21.8924H44.8141L45.5094 20.0359H49.7879L50.1918 21.8924ZM41.485 17.8342C41.4995 14.5535 36.7814 14.3718 36.813 12.9059C36.8232 12.4605 37.2639 11.986 38.2272 11.8647C38.7048 11.8054 40.0227 11.7573 41.5166 12.4211L42.1008 9.78401C41.2985 9.50414 40.2659 9.23462 38.9811 9.23462C35.6839 9.23462 33.3644 10.9233 33.3459 13.3434C33.3247 15.1331 35.0028 16.1309 36.2644 16.727C37.5652 17.3362 38.001 17.7268 37.9946 18.2712C37.9856 19.1052 36.9574 19.4745 35.9999 19.4885C34.3222 19.5137 33.3497 19.0512 32.5746 18.7029L31.9691 21.428C32.7497 21.7725 34.1879 22.0722 35.6772 22.0876C39.1826 22.0876 41.4745 20.4187 41.485 17.8342ZM27.6712 9.46164L22.2671 21.8924H18.742L16.0824 11.9718C15.9212 11.3617 15.7806 11.1375 15.2903 10.8797C14.4882 10.4598 13.1642 10.067 12 9.82259L12.0789 9.46164H17.7541C18.477 9.46164 19.1274 9.92548 19.2929 10.7285L20.6978 17.9223L24.1673 9.46164H27.6712Z" fill="#1434CB"/>
</svg>
