<svg width="54" height="34" viewBox="0 0 54 34" fill="none" xmlns="http://www.w3.org/2000/svg">
  <path fill-rule="evenodd" clip-rule="evenodd" d="M11.8863 9.038C11.1768 9.85418 10.0757 10.4663 8.95022 10.3756C8.80342 9.31006 9.36617 8.1538 10.0023 7.45098C10.6874 6.63481 11.9108 6.04534 12.9139 6C13.0363 7.13358 12.5714 8.22182 11.8863 9.038Z" fill="#EDEDED" />
  <path fill-rule="evenodd" clip-rule="evenodd" d="M12.8895 10.6023C11.9108 10.5343 11.0055 10.8744 10.2959 11.1465C9.83105 11.3278 9.4151 11.4865 9.12149 11.4865C8.77895 11.4865 8.363 11.3278 7.89812 11.1465C7.31091 10.9197 6.62582 10.6477 5.8918 10.6704C4.22801 10.693 2.68657 11.5999 1.83021 13.0509C0.0930204 15.9528 1.36533 20.2378 3.05358 22.5956C3.88547 23.7746 4.88863 25.0442 6.18541 24.9988C6.74816 24.9761 7.1641 24.8174 7.60452 24.6361C8.09386 24.432 8.60768 24.228 9.4151 24.228C10.1736 24.228 10.6629 24.432 11.1523 24.6361C11.5682 24.8174 11.9842 24.9988 12.6203 24.9761C13.966 24.9535 14.8224 23.7972 15.6543 22.641C16.5351 21.394 16.9266 20.1698 17 19.9657V19.943C17 19.943 16.9755 19.943 16.9755 19.9204C16.6819 19.7843 14.4065 18.7868 14.382 16.0889C14.3575 13.8217 16.1926 12.6655 16.4862 12.4841C16.5107 12.4841 16.5107 12.4614 16.5107 12.4614C15.3362 10.8291 13.5256 10.6477 12.8895 10.6023Z" fill="#EDEDED" />
  <path fill-rule="evenodd" clip-rule="evenodd" d="M28.4802 10H23V24.095H25.267V19.263H28.4014C31.2795 19.263 33.2902 17.3666 33.2902 14.6132C33.2902 11.8599 31.3189 10 28.4802 10ZM27.8888 17.4395H25.267V11.8417H27.8888C29.8602 11.8417 30.9838 12.8628 30.9838 14.6315C30.9838 16.4002 29.8602 17.4395 27.8888 17.4395Z" fill="#EDEDED" />
  <path fill-rule="evenodd" clip-rule="evenodd" d="M38.6522 13.738C36.2472 13.738 34.4533 15.0691 34.3942 16.8925H36.4443C36.6217 16.0173 37.4497 15.452 38.5931 15.452C39.973 15.452 40.7615 16.072 40.7615 17.2207V18.0048L37.9228 18.1689C35.2813 18.3148 33.8619 19.3541 33.8619 21.1775C33.8619 23.001 35.3404 24.2226 37.4497 24.2226C38.869 24.2226 40.1898 23.5298 40.8009 22.4175H40.8403V24.1132H42.9496V17.0749C42.9299 15.0509 41.2543 13.738 38.6522 13.738ZM40.7615 20.2658C40.7615 21.5787 39.5984 22.5269 38.0608 22.5269C36.8583 22.5269 36.0895 21.9616 36.0895 21.1046C36.0895 20.2111 36.8386 19.7006 38.2382 19.6276L40.7615 19.4818V20.2658Z" fill="#EDEDED" />
  <path fill-rule="evenodd" clip-rule="evenodd" d="M49.9084 24.642C49.0016 27.1036 47.9568 27.9242 45.7489 27.9242C45.5715 27.9242 45.0195 27.906 44.8815 27.8695V26.1737C45.0195 26.1919 45.3743 26.2102 45.5518 26.2102C46.5571 26.2102 47.1091 25.809 47.4639 24.7514L47.6611 24.1315L43.817 13.8656H46.1826L48.8636 22.1804H48.903L51.584 13.8656H53.8904L49.9084 24.642Z" fill="#EDEDED" />
</svg>