<svg width="53" height="34" viewBox="0 0 53 34" fill="none" xmlns="http://www.w3.org/2000/svg">
  <path d="M24.2746 17.7269V23.6232H22.3652V9.06274H27.427C28.7098 9.06274 29.8037 9.48182 30.6988 10.32C31.6137 11.1581 32.0711 12.1815 32.0711 13.39C32.0711 14.6277 31.6137 15.651 30.6988 16.4794C29.8137 17.3078 28.7198 17.7172 27.427 17.7172H24.2746V17.7269ZM24.2746 10.856V15.9337H27.4668C28.2226 15.9337 28.859 15.6803 29.3562 15.1832C29.8634 14.6862 30.122 14.0819 30.122 13.3997C30.122 12.7272 29.8634 12.1327 29.3562 11.6357C28.859 11.1191 28.2325 10.8657 27.4668 10.8657H24.2746V10.856Z" fill="#EDEDED" />
  <path d="M37.0632 13.3312C38.4753 13.3312 39.5891 13.7015 40.4046 14.4422C41.22 15.1829 41.6278 16.1965 41.6278 17.483V23.6229H39.8079V22.239H39.7283C38.9427 23.3793 37.8886 23.9445 36.5759 23.9445C35.4522 23.9445 34.5174 23.6229 33.7616 22.9699C33.0058 22.317 32.6279 21.508 32.6279 20.5334C32.6279 19.5004 33.0257 18.6817 33.8213 18.0775C34.6168 17.4635 35.6809 17.1613 37.0035 17.1613C38.1372 17.1613 39.072 17.366 39.798 17.7753V17.3465C39.798 16.6935 39.5394 16.1478 39.0123 15.6897C38.4853 15.2316 37.8687 15.0075 37.1627 15.0075C36.0986 15.0075 35.2533 15.4461 34.6367 16.3329L32.9561 15.2999C33.8809 13.9842 35.2533 13.3312 37.0632 13.3312ZM34.597 20.5627C34.597 21.05 34.8058 21.4593 35.2334 21.7809C35.6511 22.1025 36.1483 22.2682 36.7151 22.2682C37.5207 22.2682 38.2367 21.9759 38.8632 21.3911C39.4897 20.8063 39.8079 20.1241 39.8079 19.3347C39.2112 18.8766 38.3858 18.6427 37.3218 18.6427C36.5461 18.6427 35.8997 18.8279 35.3826 19.1885C34.8555 19.5686 34.597 20.0267 34.597 20.5627Z" fill="#EDEDED" />
  <path d="M52.01 13.6534L45.6455 27.9995H43.6765L46.0433 22.9803L41.8467 13.6534H43.9251L46.9482 20.807H46.988L49.9316 13.6534H52.01Z" fill="#EDEDED" />
  <path d="M16.6801 16.5376C16.6801 15.9275 16.6244 15.3437 16.5209 14.7823H8.51758V17.9985L13.1269 17.9995C12.9399 19.0696 12.3383 19.9818 11.4164 20.59V22.6766H14.1601C15.7622 21.2235 16.6801 19.0754 16.6801 16.5376Z" fill="#4285F4" />
  <path d="M11.4174 20.5894C10.6536 21.0942 9.67013 21.3895 8.51955 21.3895C6.29694 21.3895 4.41146 19.9218 3.73622 17.9433H0.906006V20.0952C2.30819 22.8222 5.19011 24.6934 8.51955 24.6934C10.8207 24.6934 12.7539 23.9517 14.1611 22.675L11.4174 20.5894Z" fill="#34A853" />
  <path d="M3.46965 16.3469C3.46965 15.7914 3.56412 15.2544 3.73616 14.7495V12.5976H0.905946C0.326179 13.7252 0 14.9981 0 16.3469C0 17.6957 0.327174 18.9686 0.905946 20.0962L3.73616 17.9443C3.56412 17.4394 3.46965 16.9024 3.46965 16.3469Z" fill="#FABB05" />
  <path d="M8.51955 11.3038C9.77554 11.3038 10.9003 11.7278 11.7883 12.5562L14.2198 10.1752C12.743 8.82737 10.8177 7.99994 8.51955 7.99994C5.19111 7.99994 2.30819 9.87116 0.906006 12.5981L3.73622 14.75C4.41146 12.7716 6.29694 11.3038 8.51955 11.3038Z" fill="#E94235" />
</svg>