<svg width="35" height="26" viewBox="0 0 35 26" fill="none" xmlns="http://www.w3.org/2000/svg">
  <path d="M22.2322 4.08127H12.7681V21.3478H22.2322V4.08127Z" fill="#7375CF" />
  <path d="M13.3691 12.7142C13.3676 11.0513 13.7388 9.40986 14.4545 7.91413C15.1703 6.4184 16.2118 5.10759 17.5003 4.08093C15.9047 2.80763 13.9884 2.01579 11.9705 1.7959C9.95254 1.57601 7.91438 1.93696 6.08895 2.83748C4.26353 3.738 2.7245 5.14176 1.64775 6.88831C0.571007 8.63487 0 10.6537 0 12.7142C0 14.7746 0.571007 16.7935 1.64775 18.5401C2.7245 20.2866 4.26353 21.6904 6.08895 22.5909C7.91438 23.4914 9.95254 23.8524 11.9705 23.6325C13.9884 23.4126 15.9047 22.6208 17.5003 21.3475C16.2118 20.3208 15.1703 19.01 14.4545 17.5143C13.7388 16.0185 13.3676 14.3771 13.3691 12.7142Z" fill="#EB001B" />
  <path d="M33.9679 19.518V19.1645H34.1083V19.0925H33.7507V19.1645H33.8912V19.518H33.9679ZM34.6621 19.518V19.0918H34.5525L34.4264 19.385L34.3003 19.0918H34.1907V19.518H34.268V19.1965L34.3863 19.4737H34.4665L34.5847 19.1958V19.518H34.6621Z" fill="#00A2E5" />
  <path d="M35.0002 12.7143C35.0003 14.7748 34.4294 16.7936 33.3527 18.5402C32.276 20.2867 30.737 21.6905 28.9116 22.591C27.0862 23.4916 25.0481 23.8525 23.0302 23.6326C21.0123 23.4128 19.0961 22.6209 17.5005 21.3476C18.7878 20.3199 19.8286 19.0089 20.5442 17.5134C21.2598 16.0179 21.6316 14.377 21.6316 12.7143C21.6316 11.0517 21.2598 9.41079 20.5442 7.9153C19.8286 6.41981 18.7878 5.10877 17.5005 4.08108C19.0961 2.80778 21.0123 2.01593 23.0302 1.79605C25.0481 1.57617 27.0862 1.93712 28.9116 2.83765C30.737 3.73818 32.276 5.14195 33.3527 6.8885C34.4294 8.63506 35.0003 10.6539 35.0002 12.7143Z" fill="#00A2E5" />
</svg>