<svg width="37" height="30" viewBox="0 0 37 30" fill="none" xmlns="http://www.w3.org/2000/svg">
  <path d="M23.5027 5.91901H13.4978V23.498H23.5027V5.91901Z" fill="#FF5F00" />
  <path d="M14.133 14.709C14.1314 13.016 14.5238 11.3448 15.2804 9.82205C16.0371 8.29926 17.1381 6.96472 18.5002 5.91949C16.8134 4.62315 14.7877 3.81698 12.6544 3.59312C10.5212 3.36925 8.36659 3.73673 6.43687 4.65354C4.50715 5.57036 2.88016 6.99952 1.7419 8.77767C0.603632 10.5558 0 12.6112 0 14.709C0 16.8067 0.603632 18.8621 1.7419 20.6403C2.88016 22.4184 4.50715 23.8476 6.43687 24.7644C8.36659 25.6812 10.5212 26.0487 12.6544 25.8248C14.7877 25.601 16.8134 24.7948 18.5002 23.4984C17.1381 22.4532 16.0371 21.1187 15.2804 19.5959C14.5238 18.0731 14.1314 16.4019 14.133 14.709Z" fill="#EB001B" />
  <path d="M36.9999 14.7091C36.9999 16.8068 36.3964 18.8622 35.2582 20.6404C34.12 22.4185 32.4931 23.8477 30.5634 24.7645C28.6337 25.6813 26.4791 26.0488 24.3459 25.825C22.2127 25.6011 20.187 24.7949 18.5002 23.4986C19.8612 22.4523 20.9613 21.1175 21.7178 19.595C22.4743 18.0724 22.8674 16.4018 22.8674 14.7091C22.8674 13.0164 22.4743 11.3458 21.7178 9.82324C20.9613 8.30068 19.8612 6.96593 18.5002 5.91964C20.187 4.6233 22.2127 3.81713 24.3459 3.59327C26.4791 3.3694 28.6337 3.73689 30.5634 4.65371C32.4931 5.57054 34.12 6.9997 35.2582 8.77786C36.3964 10.556 36.9999 12.6114 36.9999 14.7091Z" fill="#F79E1B" />
  <path d="M35.9093 21.6363V21.2764H36.0577V21.2031H35.6797V21.2764H35.8282V21.6363H35.9093ZM36.6431 21.6363V21.2023H36.5272L36.394 21.5008L36.2607 21.2023H36.1447V21.6363H36.2266V21.3089L36.3515 21.5911H36.4364L36.5614 21.3082V21.6363H36.6431Z" fill="#F79E1B" />
</svg>