<svg width="80" height="31" viewBox="0 0 80 31" fill="none" xmlns="http://www.w3.org/2000/svg">
  <g clip-path="url(#clip0_816_1343)">
    <path d="M61.4904 9.52441H57.0627C56.7604 9.52441 56.5028 9.7445 56.4555 10.0436L54.665 21.3956C54.6294 21.6196 54.8029 21.8216 55.0288 21.8216H57.3009C57.512 21.8216 57.6926 21.6675 57.7256 21.4578L58.2337 18.24C58.2803 17.9402 58.5386 17.7202 58.8409 17.7202H60.2417C63.1586 17.7202 64.8409 16.309 65.2811 13.5126C65.4799 12.2891 65.2889 11.3279 64.716 10.6546C64.0875 9.9154 62.9721 9.52441 61.4904 9.52441ZM62.0011 13.6705C61.7597 15.259 60.546 15.259 59.3717 15.259H58.7043L59.1736 12.2924C59.2015 12.1131 59.3555 11.981 59.5374 11.981H59.8436C60.6424 11.981 61.3972 11.981 61.7869 12.4367C62.0193 12.7086 62.0898 13.1125 62.0011 13.6705Z" fill="#179BD7" />
    <path d="M74.7228 13.6193H72.6041C72.4223 13.6193 72.2675 13.7514 72.2404 13.9307L72.1465 14.5236L71.9976 14.3087C71.5387 13.6426 70.5159 13.4199 69.4944 13.4199C67.1518 13.4199 65.1515 15.1942 64.7618 17.6832C64.5599 18.9247 64.8466 20.1119 65.5509 20.9399C66.1983 21.7011 67.1213 22.0183 68.2211 22.0183C70.1087 22.0183 71.1554 20.8046 71.1554 20.8046L71.0609 21.3936C71.0253 21.6189 71.1988 21.8209 71.426 21.8209H73.335C73.6373 21.8209 73.8949 21.6008 73.9422 21.3011L75.0886 14.0452C75.1235 13.8219 74.95 13.6193 74.7228 13.6193ZM71.7678 17.7453C71.5646 18.9565 70.602 19.7695 69.376 19.7695C68.7616 19.7695 68.2684 19.5721 67.9525 19.1979C67.6392 18.8264 67.5214 18.2975 67.6198 17.7084C67.812 16.5076 68.7882 15.6681 69.9954 15.6681C70.5974 15.6681 71.0868 15.8681 71.4092 16.2455C71.7335 16.6268 71.8617 17.1589 71.7678 17.7453Z" fill="#179BD7" />
    <path d="M77.2223 9.83642L75.4053 21.3963C75.3697 21.6203 75.5432 21.8222 75.7691 21.8222H77.5958C77.8994 21.8222 78.157 21.6021 78.2037 21.3024L79.9954 9.951C80.031 9.72703 79.8576 9.52441 79.6316 9.52441H77.5861C77.4055 9.52506 77.2501 9.65711 77.2223 9.83642Z" fill="#179BD7" />
    <path d="M29.9133 9.52441H25.4862C25.1833 9.52441 24.9256 9.7445 24.8784 10.0436L23.0879 21.3956C23.0523 21.6196 23.2258 21.8216 23.453 21.8216H25.5665C25.8694 21.8216 26.1271 21.6015 26.1743 21.3018L26.6572 18.24C26.7038 17.9402 26.9621 17.7202 27.2644 17.7202H28.6659C31.5821 17.7202 33.2651 16.309 33.7046 13.5126C33.9027 12.2891 33.713 11.3279 33.1402 10.6546C32.511 9.9154 31.395 9.52441 29.9133 9.52441ZM30.424 13.6705C30.1819 15.259 28.9682 15.259 27.7946 15.259H27.1265L27.5952 12.2924C27.623 12.1131 27.7784 11.981 27.9596 11.981H28.2658C29.0653 11.981 29.8194 11.981 30.2091 12.4367C30.4415 12.7086 30.5127 13.1125 30.424 13.6705Z" fill="#253B80" />
    <path d="M43.1466 13.6193H41.0266C40.846 13.6193 40.69 13.7514 40.6622 13.9307L40.5683 14.5236L40.4201 14.3087C39.9612 13.6426 38.9377 13.4199 37.9163 13.4199C35.5736 13.4199 33.5727 15.1942 33.183 17.6832C32.9804 18.9247 33.2685 20.1119 33.9728 20.9399C34.6188 21.7011 35.5432 22.0183 36.643 22.0183C38.5306 22.0183 39.5773 20.8046 39.5773 20.8046L39.4828 21.3936C39.4472 21.6189 39.6207 21.8209 39.8466 21.8209H41.7562C42.0598 21.8209 42.3161 21.6008 42.364 21.3011L43.5098 14.0452C43.546 13.8219 43.3732 13.6193 43.1466 13.6193ZM40.1916 17.7453C39.987 18.9565 39.0258 19.7695 37.7997 19.7695C37.1841 19.7695 36.6922 19.5721 36.3763 19.1979C36.063 18.8264 35.9439 18.2975 36.0436 17.7084C36.2345 16.5076 37.212 15.6681 38.4192 15.6681C39.0212 15.6681 39.5106 15.8681 39.833 16.2455C40.156 16.6268 40.2842 17.1589 40.1916 17.7453Z" fill="#253B80" />
    <path d="M54.4372 13.6201H52.3068C52.1036 13.6201 51.9126 13.7211 51.7974 13.8901L48.8592 18.218L47.6138 14.059C47.5354 13.7988 47.2953 13.6201 47.0234 13.6201H44.93C44.6756 13.6201 44.4988 13.8687 44.5798 14.1082L46.9263 20.9944L44.7202 24.1087C44.5467 24.354 44.7215 24.6913 45.0212 24.6913H47.149C47.3509 24.6913 47.54 24.5929 47.6545 24.4271L54.7401 14.1995C54.9097 13.9548 54.7356 13.6201 54.4372 13.6201Z" fill="#253B80" />
    <path d="M4.70352 24.0283L5.04207 21.8779L4.28794 21.8604H0.68689L3.18943 5.99263C3.1972 5.94473 3.22245 5.90007 3.25935 5.86835C3.29624 5.83663 3.3435 5.81915 3.39269 5.81915H9.46457C11.4803 5.81915 12.8714 6.23862 13.5977 7.06654C13.9382 7.45493 14.1551 7.8608 14.2599 8.30746C14.37 8.77612 14.3719 9.33605 14.2645 10.019L14.2567 10.0688V10.5064L14.5972 10.6993C14.8839 10.8514 15.1118 11.0256 15.2866 11.2249C15.5779 11.557 15.7662 11.9791 15.8459 12.4794C15.9281 12.9941 15.9009 13.6064 15.7662 14.2997C15.6109 15.0972 15.3597 15.7918 15.0205 16.3601C14.7085 16.8838 14.3111 17.3182 13.8392 17.6548C13.3886 17.9746 12.8533 18.2173 12.248 18.3727C11.6616 18.5254 10.9929 18.6025 10.2595 18.6025H9.78693C9.44903 18.6025 9.12084 18.7242 8.86321 18.9423C8.60493 19.165 8.43403 19.4692 8.3816 19.8019L8.346 19.9955L7.74787 23.7856L7.72069 23.9247C7.71356 23.9688 7.70127 23.9908 7.68314 24.0056C7.66696 24.0192 7.64365 24.0283 7.621 24.0283H4.70352Z" fill="#253B80" />
    <path d="M14.9196 10.1193C14.9015 10.2351 14.8808 10.3536 14.8575 10.4753C14.0567 14.5864 11.3173 16.0067 7.81849 16.0067H6.03706C5.60918 16.0067 5.24862 16.3174 5.18195 16.7394L4.26987 22.5239L4.01159 24.1636C3.96822 24.4406 4.18184 24.6905 4.46148 24.6905H7.62106C7.99521 24.6905 8.31304 24.4186 8.37195 24.0496L8.40302 23.8891L8.99791 20.1139L9.0361 19.9068C9.09436 19.5365 9.41284 19.2646 9.78699 19.2646H10.2595C13.3207 19.2646 15.7171 18.0218 16.4175 14.4252C16.7101 12.9228 16.5586 11.6683 15.7844 10.786C15.5501 10.52 15.2594 10.2992 14.9196 10.1193Z" fill="#179BD7" />
    <path d="M14.0818 9.78527C13.9594 9.74967 13.8332 9.71731 13.7038 9.68818C13.5736 9.65969 13.4403 9.63445 13.3031 9.61244C12.8227 9.53476 12.2965 9.49786 11.7327 9.49786H6.97355C6.85638 9.49786 6.74504 9.5244 6.64536 9.57231C6.42591 9.67782 6.26279 9.88561 6.2233 10.14L5.21089 16.5524L5.18176 16.7394C5.24844 16.3174 5.60899 16.0067 6.03687 16.0067H7.8183C11.3171 16.0067 14.0565 14.5858 14.8573 10.4753C14.8812 10.3536 14.9013 10.2352 14.9194 10.1193C14.7168 10.0118 14.4974 9.91992 14.2611 9.84159C14.2028 9.82217 14.1426 9.8034 14.0818 9.78527Z" fill="#222D65" />
    <path d="M6.22334 10.14C6.26283 9.88558 6.42595 9.67779 6.64539 9.57292C6.74573 9.52502 6.85642 9.49848 6.97359 9.49848H11.7327C12.2965 9.49848 12.8228 9.53538 13.3031 9.61306C13.4403 9.63507 13.5737 9.66031 13.7038 9.68879C13.8333 9.71792 13.9595 9.75029 14.0818 9.78589C14.1427 9.80402 14.2029 9.82279 14.2618 9.84156C14.4981 9.91989 14.7175 10.0125 14.9201 10.1193C15.1583 8.6 14.9182 7.56558 14.0967 6.62891C13.1911 5.59772 11.5566 5.15625 9.46513 5.15625H3.39325C2.96602 5.15625 2.60158 5.46696 2.53555 5.88967L0.00646598 21.9206C-0.0433778 22.2378 0.20131 22.5239 0.521087 22.5239H4.26973L5.21093 16.5523L6.22334 10.14Z" fill="#253B80" />
  </g>
  <defs>
    <clipPath id="clip0_816_1343">
      <rect width="80" height="31" fill="white" />
    </clipPath>
  </defs>
</svg>