<svg width="53" height="22" viewBox="0 0 53 22" fill="none" xmlns="http://www.w3.org/2000/svg">
  <path fill-rule="evenodd" clip-rule="evenodd" d="M28.6983 2.98765L24.9989 3.77388V0.77193L28.6983 0V2.98765ZM36.3815 4.66017C34.9444 4.66017 34.0054 5.33203 33.4932 5.80377L33.3082 4.88889H30.0642V22L33.7493 21.2281L33.7635 17.0682C34.2899 17.4542 35.0725 17.9974 36.3672 17.9974C38.9995 17.9974 41.404 15.8817 41.404 11.2359C41.3756 6.97596 38.9568 4.66017 36.3815 4.66017ZM35.4851 14.7667C34.6172 14.7667 34.105 14.4522 33.7493 14.0806L33.735 8.63418C34.1192 8.20533 34.6456 7.91943 35.4851 7.91943C36.8225 7.91943 37.7474 9.4204 37.7474 11.3359C37.7616 13.2943 36.851 14.7667 35.4851 14.7667ZM53 11.3788C53 7.61923 51.1788 4.66017 47.6787 4.66017C44.1785 4.66017 42.0585 7.61923 42.0585 11.3502C42.0585 15.7674 44.5627 17.9974 48.1482 17.9974C49.8983 17.9974 51.2215 17.5971 52.2317 17.0396V14.1092C51.2357 14.6095 50.0832 14.9097 48.6319 14.9097C47.2091 14.9097 45.9428 14.4094 45.7721 12.6797H52.9715C52.9715 12.5939 52.9715 12.4081 52.9858 12.2079C52.9858 11.922 53 11.5789 53 11.3788ZM45.7294 9.97791C45.7294 8.31969 46.7396 7.63353 47.6787 7.63353C48.575 7.63353 49.5283 8.31969 49.5283 9.97791H45.7294ZM28.6983 4.90318H24.9989V17.7544H28.6983V4.90318ZM20.8016 4.90318L21.0435 5.9896C21.9114 4.40286 23.633 4.73164 24.1025 4.90318V8.2768C23.6472 8.11956 22.1675 7.90513 21.2996 9.03444V17.7401H17.6145V4.90318H20.8016ZM13.6733 1.7154L10.0878 2.47303L10.0736 14.2378C10.0736 16.4107 11.7098 18.0117 13.8867 18.0117C15.0961 18.0117 15.9783 17.7973 16.462 17.5257V14.5523C15.9925 14.7381 13.6591 15.4243 13.6591 13.2515V8.03379H16.462V4.90318H13.6591L13.6733 1.7154ZM4.97987 7.83366C4.19732 7.83366 3.72779 8.04808 3.72779 8.61988C3.72779 9.24886 4.53879 9.52047 5.54899 9.86355C7.18523 10.4211 9.34792 11.1501 9.36215 13.8661C9.36215 16.4964 7.25638 18.0117 4.19732 18.0117C2.93101 18.0117 1.55087 17.7687 0.184966 17.1683V13.6803C1.42282 14.3522 2.98792 14.8525 4.19732 14.8525C5.02255 14.8525 5.60591 14.6381 5.60591 13.9519C5.60591 13.2658 4.72376 12.937 3.67087 12.5653C2.03463 11.9935 0 11.2502 0 8.80572C0 6.20403 1.99195 4.64587 4.97987 4.64587C6.20349 4.64587 7.41289 4.83171 8.63651 5.31774V8.76283C7.51248 8.17674 6.08966 7.83366 4.97987 7.83366Z" fill="#635BFF" />
</svg>