<svg width="52" height="30" viewBox="0 0 52 30" fill="none" xmlns="http://www.w3.org/2000/svg">
  <path d="M25.3031 6.47288L21.889 22.6869H17.7593L21.1738 6.47288H25.3031ZM42.6761 16.9425L44.8496 10.8538L46.1003 16.9425H42.6761ZM47.2851 22.6869H51.1034L47.7676 6.47288H44.2454C43.4516 6.47288 42.7824 6.9404 42.4862 7.66137L36.2901 22.6869H40.6269L41.4878 20.2654H46.785L47.2851 22.6869ZM36.5052 17.3936C36.5231 13.1144 30.6817 12.8774 30.7209 10.9654C30.7334 10.3844 31.2791 9.76557 32.4717 9.6073C33.063 9.52999 34.6947 9.46727 36.5443 10.333L37.2677 6.89335C36.2743 6.52831 34.9959 6.17676 33.4052 6.17676C29.3229 6.17676 26.4512 8.37943 26.4282 11.5361C26.402 13.8704 28.4796 15.172 30.0416 15.9495C31.6521 16.7441 32.1917 17.2535 32.1838 17.9636C32.1727 19.0514 30.8997 19.5332 29.7142 19.5514C27.637 19.5842 26.4329 18.981 25.4733 18.5266L24.7237 22.0812C25.6901 22.5305 27.4708 22.9214 29.3146 22.9415C33.6547 22.9415 36.4923 20.7647 36.5052 17.3936ZM19.4025 6.47288L12.7117 22.6869H8.34725L5.05445 9.74698C4.85484 8.95124 4.68072 8.65877 4.07364 8.32253C3.08063 7.77479 1.44141 7.26241 0 6.94368L0.0976508 6.47288H7.12412C8.01912 6.47288 8.82437 7.07788 9.02936 8.12524L10.7687 17.5085L15.0643 6.47288H19.4025Z" fill="#1434CB" />
</svg>