<svg width="25" height="21" viewBox="0 0 25 21" fill="none" xmlns="http://www.w3.org/2000/svg">
  <path d="M2.6573 1L22.3423 20M18.0362 16.1476C16.3721 17.0128 14.4912 17.6248 12.4998 17.6248C8.156 17.6248 4.33834 14.7131 2.14908 12.6123C1.5712 12.0578 1.2823 11.7806 1.09839 11.2364C0.967225 10.8483 0.967184 10.1515 1.09839 9.76344C1.28236 9.21924 1.57185 8.94135 2.15088 8.38585C3.25433 7.32725 4.77113 6.06302 6.56023 5.06927M21.7271 13.6272C22.1369 13.2794 22.5122 12.9372 22.8489 12.6141L22.8525 12.6105C23.4291 12.0573 23.7182 11.78 23.9017 11.237C24.0329 10.8489 24.0327 10.1519 23.9015 9.76375C23.7176 9.21972 23.4284 8.9417 22.8509 8.38757C20.6616 6.28685 16.8436 3.375 12.4998 3.375C12.0846 3.375 11.6741 3.40161 11.2695 3.45157M14.1274 12.2812C13.6936 12.6508 13.1238 12.875 12.4998 12.875C11.1408 12.875 10.0392 11.8117 10.0392 10.5C10.0392 9.85934 10.302 9.27816 10.7292 8.85095" stroke="#828B8D" stroke-width="1.5" stroke-linecap="round" stroke-linejoin="round" />
</svg>