<svg width="18" height="16" viewBox="0 0 18 16" fill="none" xmlns="http://www.w3.org/2000/svg">
  <path d="M1.79936 9.48239C3.32234 10.9566 5.97838 13 9.00018 13C12.022 13 14.6775 10.9566 16.2005 9.48239C16.6021 9.0936 16.8037 8.89853 16.9316 8.5168C17.0228 8.24444 17.0228 7.75565 16.9316 7.48328C16.8037 7.10154 16.6022 6.90645 16.2005 6.51761C14.6775 5.04342 12.022 3 9.00018 3C5.97838 3 3.32234 5.04342 1.79936 6.51761C1.39739 6.90671 1.19638 7.1014 1.06844 7.48328C0.977187 7.75564 0.977187 8.24444 1.06844 8.5168C1.19638 8.89868 1.39739 9.09329 1.79936 9.48239Z" stroke="#64748B" stroke-linecap="round" stroke-linejoin="round" />
  <path d="M7.28827 8.00003C7.28827 8.92052 8.05465 9.66671 9.00002 9.66671C9.9454 9.66671 10.7118 8.92052 10.7118 8.00003C10.7118 7.07955 9.9454 6.33336 9.00002 6.33336C8.05465 6.33336 7.28827 7.07955 7.28827 8.00003Z" stroke="#64748B" stroke-linecap="round" stroke-linejoin="round" />
</svg>