<svg width="29" height="22" viewBox="0 0 29 22" fill="none" xmlns="http://www.w3.org/2000/svg">
  <path d="M17.5706 1.83325V10.9999C17.5706 12.0083 16.5164 12.8333 15.228 12.8333H2.34375V5.49992C2.34375 3.47409 4.44037 1.83325 7.02894 1.83325H17.5706Z" stroke="#64748B" stroke-linecap="round" stroke-linejoin="round" />
  <path d="M25.7697 12.8333V15.5833C25.7697 17.1049 24.2001 18.3333 22.2558 18.3333H21.0845C21.0845 17.3249 20.0303 16.4999 18.7419 16.4999C17.4535 16.4999 16.3993 17.3249 16.3993 18.3333H11.7141C11.7141 17.3249 10.66 16.4999 9.37153 16.4999C8.0831 16.4999 7.02894 17.3249 7.02894 18.3333H5.85764C3.91329 18.3333 2.34375 17.1049 2.34375 15.5833V12.8333H15.228C16.5164 12.8333 17.5706 12.0083 17.5706 10.9999V4.58325H19.7258C20.5691 4.58325 21.3422 4.94076 21.7638 5.50909L23.7668 8.24992H22.2558C21.6116 8.24992 21.0845 8.66242 21.0845 9.16659V11.9166C21.0845 12.4208 21.6116 12.8333 22.2558 12.8333H25.7697Z" stroke="#64748B" stroke-linecap="round" stroke-linejoin="round" />
  <path d="M9.36994 20.1667C10.6637 20.1667 11.7125 19.3459 11.7125 18.3333C11.7125 17.3208 10.6637 16.5 9.36994 16.5C8.07616 16.5 7.02734 17.3208 7.02734 18.3333C7.02734 19.3459 8.07616 20.1667 9.36994 20.1667Z" stroke="#64748B" stroke-linecap="round" stroke-linejoin="round" />
  <path d="M18.741 20.1667C20.0348 20.1667 21.0836 19.3459 21.0836 18.3333C21.0836 17.3208 20.0348 16.5 18.741 16.5C17.4473 16.5 16.3984 17.3208 16.3984 18.3333C16.3984 19.3459 17.4473 20.1667 18.741 20.1667Z" stroke="#64748B" stroke-linecap="round" stroke-linejoin="round" />
  <path d="M25.7672 11V12.8333H22.2533C21.6091 12.8333 21.082 12.4208 21.082 11.9167V9.16667C21.082 8.6625 21.6091 8.25 22.2533 8.25H23.7643L25.7672 11Z" stroke="#64748B" stroke-linecap="round" stroke-linejoin="round" />
</svg>