<svg width="40" height="43" viewBox="0 0 40 43" fill="none" xmlns="http://www.w3.org/2000/svg">
<path d="M23 8.28844C23 5.73709 23 4.46209 22.5204 3.4876C22.0986 2.63042 21.426 1.93279 20.5981 1.49604C19.6578 1 18.4262 1 15.9668 0.999999L8.0332 0.999999C5.57379 0.999998 4.34403 0.999999 3.40374 1.49604C2.57582 1.93279 1.90095 2.63041 1.4791 3.4876C1 4.46113 1 5.73438 1 8.28074L1 34.7181C1 37.2645 1 38.5396 1.4791 39.5131C1.90094 40.3703 2.57582 41.0667 3.40373 41.5035C4.34495 42 5.57534 42 8.03957 42L15.9596 42C18.4238 42 19.6568 42 20.598 41.5035C21.426 41.0667 22.0986 40.3703 22.5204 39.5131C23 38.5386 23 38.5513 23 36" stroke="#333333" stroke-width="2" stroke-linecap="round" stroke-linejoin="round"/>
<circle cx="12" cy="37" r="2" fill="#333333"/>
<path d="M34.3719 30.7778C34.3719 31.4528 34.9275 32 35.6128 32C36.2981 32 36.8536 31.4528 36.8536 30.7778C36.8536 30.1028 36.2981 29.5556 35.6128 29.5556C34.9275 29.5556 34.3719 30.1028 34.3719 30.7778Z" fill="#F5B80B"/>
<path d="M21.9634 30.7778C21.9634 31.4528 22.519 32 23.2043 32C23.8896 32 24.4451 31.4528 24.4451 30.7778C24.4451 30.1028 23.8896 29.5556 23.2043 29.5556C22.519 29.5556 21.9634 30.1028 21.9634 30.7778Z" fill="#F5B80B"/>
<path d="M17 10H17.333C17.9209 10 18.2153 10 18.4551 10.1045C18.6665 10.1966 18.8473 10.3449 18.9776 10.5329C19.1252 10.7459 19.1785 11.0302 19.2849 11.5978L20.8061 19.7139M20.1021 13.6667H26.5M20.8061 19.7139L21.9635 25.8889L26.5 25.8889M20.8061 19.7139H37.9186M37.9186 19.7139L38.7741 16.0622L38.7745 16.0604C38.9659 15.2435 39.0619 14.8341 38.9565 14.5129C38.8641 14.2311 38.6696 13.9922 38.4116 13.8401C38.1174 13.6667 37.6922 13.6667 36.8396 13.6667H32.5M37.9186 19.7139L36.827 24.3733L36.826 24.3771C36.6998 24.9156 36.6367 25.1851 36.4877 25.3865C36.3559 25.5645 36.1784 25.7046 35.9726 25.791C35.7397 25.8889 35.4577 25.8889 34.8953 25.8889L32.5 25.8889M26.5 13.6667H28.4709H32.5M26.5 13.6667V25.8889M26.5 25.8889L32.5 25.8889M32.5 13.6667V25.8889M35.6128 32C34.9275 32 34.3719 31.4528 34.3719 30.7778C34.3719 30.1028 34.9275 29.5556 35.6128 29.5556C36.2981 29.5556 36.8536 30.1028 36.8536 30.7778C36.8536 31.4528 36.2981 32 35.6128 32ZM23.2043 32C22.519 32 21.9634 31.4528 21.9634 30.7778C21.9634 30.1028 22.519 29.5556 23.2043 29.5556C23.8896 29.5556 24.4451 30.1028 24.4451 30.7778C24.4451 31.4528 23.8896 32 23.2043 32Z" stroke="#F5B80B" stroke-width="2" stroke-linecap="round" stroke-linejoin="round"/>
</svg>
