<svg width="20" height="20" viewBox="0 0 20 20" fill="none" xmlns="http://www.w3.org/2000/svg">
  <path d="M7 6C7 7.65685 8.34315 9 10 9C11.6569 9 13 7.65685 13 6M1 14.8002V5.2002C1 4.08009 1 3.51962 1.21799 3.0918C1.40973 2.71547 1.71547 2.40973 2.0918 2.21799C2.51962 2 3.08009 2 4.2002 2H15.8002C16.9203 2 17.4796 2 17.9074 2.21799C18.2837 2.40973 18.5905 2.71547 18.7822 3.0918C19 3.5192 19 4.07899 19 5.19691V14.8036C19 15.9215 19 16.4805 18.7822 16.9079C18.5905 17.2842 18.2837 17.5905 17.9074 17.7822C17.48 18 16.921 18 15.8031 18H4.19691C3.07899 18 2.5192 18 2.0918 17.7822C1.71547 17.5905 1.40973 17.2842 1.21799 16.9079C1 16.4801 1 15.9203 1 14.8002Z" stroke="black" stroke-linecap="round" stroke-linejoin="round" />
</svg>