<svg width="56" height="56" viewBox="0 0 56 56" fill="none" xmlns="http://www.w3.org/2000/svg">
<rect width="56" height="56" rx="28" fill="#DBEAFE"/>
<path d="M18.6667 36.7502V19.2502C18.6667 18.4766 18.974 17.7347 19.521 17.1878C20.068 16.6408 20.8099 16.3335 21.5834 16.3335H36.1667C36.4762 16.3335 36.7729 16.4564 36.9917 16.6752C37.2105 16.894 37.3334 17.1907 37.3334 17.5002V38.5002C37.3334 38.8096 37.2105 39.1063 36.9917 39.3251C36.7729 39.5439 36.4762 39.6668 36.1667 39.6668H21.5834C20.8099 39.6668 20.068 39.3595 19.521 38.8126C18.974 38.2656 18.6667 37.5237 18.6667 36.7502ZM18.6667 36.7502C18.6667 35.9766 18.974 35.2347 19.521 34.6878C20.068 34.1408 20.8099 33.8335 21.5834 33.8335H37.3334" stroke="#155DFC" stroke-width="2.33333" stroke-linecap="round" stroke-linejoin="round"/>
</svg>
