<svg width="56" height="56" viewBox="0 0 56 56" fill="none" xmlns="http://www.w3.org/2000/svg">
<rect width="56" height="56" rx="28" fill="#F3E8FF"/>
<path d="M31.5001 16.3335H21.0001C20.3812 16.3335 19.7878 16.5793 19.3502 17.0169C18.9126 17.4545 18.6667 18.048 18.6667 18.6668V37.3335C18.6667 37.9523 18.9126 38.5458 19.3502 38.9834C19.7878 39.421 20.3812 39.6668 21.0001 39.6668H35.0001C35.6189 39.6668 36.2124 39.421 36.65 38.9834C37.0876 38.5458 37.3334 37.9523 37.3334 37.3335V22.1668L31.5001 16.3335Z" stroke="#9810FA" stroke-width="2.33333" stroke-linecap="round" stroke-linejoin="round"/>
<path d="M30.3333 16.3335V21.0002C30.3333 21.619 30.5791 22.2125 31.0167 22.6501C31.4543 23.0877 32.0477 23.3335 32.6666 23.3335H37.3333" stroke="#9810FA" stroke-width="2.33333" stroke-linecap="round" stroke-linejoin="round"/>
<path d="M25.6666 24.5H23.3333" stroke="#9810FA" stroke-width="2.33333" stroke-linecap="round" stroke-linejoin="round"/>
<path d="M32.6666 29.1665H23.3333" stroke="#9810FA" stroke-width="2.33333" stroke-linecap="round" stroke-linejoin="round"/>
<path d="M32.6666 33.8335H23.3333" stroke="#9810FA" stroke-width="2.33333" stroke-linecap="round" stroke-linejoin="round"/>
</svg>
