<svg width="98" height="36" viewBox="0 0 98 36" fill="none" xmlns="http://www.w3.org/2000/svg">
  <path fill-rule="evenodd" clip-rule="evenodd" d="M0.046875 11.1965V22.2338L0.675269 21.4943C3.31221 18.3913 4.38743 17.3185 5.82406 16.3575C7.30137 15.3694 8.40634 14.8786 10.2181 14.406C10.9933 14.2037 11.3532 14.1922 18.6689 14.1349C27.1967 14.0681 26.5141 14.1303 27.3865 13.3421C28.0317 12.7592 28.321 12.0968 28.326 11.1907C28.3296 10.5603 28.2851 10.3459 28.0629 9.92563C27.7448 9.32345 27.2864 8.87086 26.6642 8.54497L26.2088 8.30632L18.6183 8.25005C11.28 8.1956 11.0006 8.1865 10.2091 7.9771C8.57101 7.54373 7.07558 6.84034 5.62316 5.82008C4.56322 5.0755 2.72491 3.24994 1.36256 1.58883C0.72243 0.808429 0.164578 0.167487 0.12278 0.164552C0.0809817 0.161617 0.046875 5.12601 0.046875 11.1965ZM26.7148 22.2332C26.4365 22.2731 23.3624 22.3121 19.8834 22.32L13.558 22.3343L14.317 22.5609C15.3939 22.8824 16.4853 23.4904 17.2205 24.1782C17.6316 24.5627 18.9617 26.2826 21.0173 29.0878C22.7576 31.4626 24.3563 33.5967 24.5703 33.8301C25.0853 34.3922 25.8162 34.8508 26.5722 35.0861C27.1401 35.2629 27.5608 35.2779 31.9468 35.2779C35.9044 35.2779 36.6966 35.2548 36.6528 35.141C36.624 35.0658 35.4672 33.4376 34.0822 31.5228C32.6973 29.6082 30.619 26.7337 29.4638 25.1351C28.3087 23.5365 27.3315 22.2133 27.2922 22.1946C27.253 22.1759 26.9932 22.1933 26.7148 22.2332ZM4.37387 26.6775C2.14965 27.2394 0.652698 29.5019 1.0467 31.7065C1.21976 32.6748 1.53482 33.3028 2.21736 34.04C3.56431 35.4948 5.52722 35.8582 7.37313 34.9944C9.84358 33.8383 10.6472 30.6374 9.02087 28.4308C8.49986 27.7238 8.06396 27.3769 7.17365 26.9602C6.6248 26.7034 6.35539 26.6431 5.63085 26.6153C5.148 26.5968 4.58235 26.6247 4.37387 26.6775Z" fill="#484848" />
  <path fill-rule="evenodd" clip-rule="evenodd" d="M0.101207 0.114648C0.177517 0.211907 0.876411 1.00448 1.52353 1.78387C4.26329 5.08341 6.42101 6.80767 9.35075 7.75578C10.888 8.25331 11.3836 8.31241 18.8642 8.31241C26.9368 8.31241 26.3535 8.26181 27.436 9.12217C27.8726 9.55837 28.0472 9.82333 28.1697 10.236C28.4982 11.342 28.2908 12.2576 27.5207 13.1001C26.594 14.114 27.3474 13.972 18.4702 14.0812C12.1954 14.0812 10.5255 14.1551 9.77035 14.4741C8.58239 14.8073 7.39645 15.3121 6.42861 15.8967C4.75526 16.9074 3.73412 17.7822 1.61931 20.2548C0.809957 21.2011 0.093374 22.0823 0.00795559 22.1518C-0.116529 22.2533 1.18215 22.2786 6.57708 22.2798C25.6038 22.284 25.8689 22.2819 27.0282 22.1202C31.4649 21.5014 35.1318 18.2597 36.2211 13.9933C36.8864 11.3877 36.6381 8.74537 35.5069 6.39303C34.8825 5.09475 34.3526 4.34177 33.3641 3.34802C32.0707 2.04782 30.6343 1.17754 28.7757 0.568179C27.0785 0.0117447 27.1461 0.0140737 13.0613 0.0134664C0.70618 0.0128592 -0.0309692 -0.053659 0.101207 0.114648Z" fill="#FCBF09" />
  <path d="M21.5977 8.8215C21.5977 8.55104 21.8169 8.33179 22.0874 8.33179H26.5813C28.021 8.33179 29.1882 9.4989 29.1882 10.9386C29.1882 12.6514 27.7997 14.0398 26.0869 14.0398H22.0136C21.7839 14.0398 21.5977 13.8536 21.5977 13.6239V8.8215Z" fill="#484848" />
  <path d="M45.5784 15.3765C45.1333 14.9357 45.0661 10.4644 45.4982 10.0366C45.7023 9.83457 47.9334 9.78368 54.6776 9.82729L63.5875 9.88479L63.6507 12.5259C63.7054 14.8176 63.6631 15.2036 63.33 15.4448C63.0369 15.657 60.9338 15.7226 54.437 15.7226C46.9983 15.7226 45.8841 15.679 45.5784 15.3765Z" fill="#484848" />
  <path d="M69.0891 22.5518C69.0553 16.0696 69.0822 10.5428 69.1489 10.2703C69.2664 9.79072 69.3566 9.77464 71.9235 9.77464C73.4015 9.77464 74.6356 9.86958 74.7102 9.98876C74.7836 10.1066 74.8377 14.3198 74.8301 19.3513L74.8163 28.4997H80.7846C85.1299 28.4997 86.8254 28.5715 87.0199 28.7641C87.4178 29.158 87.3857 33.8721 86.9827 34.2029C86.7646 34.3823 84.1989 34.4365 77.9146 34.3953L69.1507 34.3375L69.0891 22.5518Z" fill="#484848" />
  <path d="M92.236 22.3315C92.2042 15.7281 92.2262 10.2016 92.2847 10.05C92.4483 9.62682 97.6606 9.66316 97.9016 10.0892C97.9995 10.2621 98.0296 15.7887 97.9684 22.3707L97.8571 34.3375H95.0755H92.2938L92.236 22.3315Z" fill="#484848" />
  <path d="M45.2288 26.8191C45.2288 20.6585 45.275 19.6736 45.5784 19.3731C45.8808 19.074 46.8316 19.027 52.6027 19.027C56.7783 19.027 59.4386 19.1125 59.7079 19.255C60.0949 19.4601 60.1383 19.737 60.1383 22.001C60.1383 24.265 60.0949 24.5419 59.7079 24.747C59.4566 24.8801 57.603 24.975 55.2573 24.975H51.2371V26.7374V28.4997H57.2009C61.5426 28.4997 63.2372 28.5715 63.4317 28.7641C63.6088 28.9394 63.6987 29.8946 63.6987 31.6043C63.6987 33.75 63.64 34.2025 63.3467 34.314C63.1531 34.3875 59.1175 34.4477 54.3787 34.4477C47.9741 34.4477 45.6943 34.3798 45.4958 34.1833C45.2991 33.9886 45.2288 32.0476 45.2288 26.8191Z" fill="#484848" />
</svg>