<svg width="38" height="15" viewBox="0 0 38 15" fill="none" xmlns="http://www.w3.org/2000/svg">
<path fill-rule="evenodd" clip-rule="evenodd" d="M6.94368 1.92898C6.4911 2.44722 5.78882 2.83589 5.07094 2.77831C4.9773 2.10173 5.33624 1.36756 5.742 0.921305C6.17898 0.403071 6.95929 0.0287908 7.59914 0C7.67717 0.71977 7.38065 1.41075 6.94368 1.92898Z" fill="black"/>
<path fill-rule="evenodd" clip-rule="evenodd" d="M7.58353 2.92226C6.95929 2.87908 6.38186 3.09501 5.92928 3.26775C5.63276 3.38292 5.36745 3.48369 5.18018 3.48369C4.96169 3.48369 4.69639 3.38292 4.39987 3.26775C4.02532 3.1238 3.58835 2.95106 3.12016 2.96545C2.05894 2.97985 1.07575 3.55566 0.529535 4.47697C-0.578504 6.31958 0.233018 9.04031 1.30984 10.5374C1.84046 11.286 2.48031 12.0921 3.30744 12.0633C3.66638 12.0489 3.93168 11.9482 4.2126 11.833C4.52472 11.7035 4.85245 11.5739 5.36745 11.5739C5.85125 11.5739 6.16337 11.7035 6.47549 11.833C6.7408 11.9482 7.0061 12.0633 7.41186 12.0489C8.27021 12.0345 8.81642 11.3004 9.34703 10.5662C9.90886 9.77447 10.1586 8.99712 10.2054 8.86756V8.85317C10.2054 8.85317 10.1898 8.85317 10.1898 8.83877C10.0025 8.7524 8.55112 8.119 8.53551 6.40595C8.5199 4.96641 9.69037 4.23224 9.87764 4.11708C9.89325 4.11708 9.89325 4.10269 9.89325 4.10269C9.14415 3.06622 7.98929 2.95106 7.58353 2.92226Z" fill="black"/>
<path fill-rule="evenodd" clip-rule="evenodd" d="M17.8836 0.849328H13.5451V11.977H15.3398V8.16219H17.8212C20.0997 8.16219 21.6915 6.66507 21.6915 4.49136C21.6915 2.31766 20.1309 0.849328 17.8836 0.849328ZM17.4154 6.72265H15.3398V2.30326H17.4154C18.9761 2.30326 19.8656 3.10941 19.8656 4.50576C19.8656 5.90211 18.9761 6.72265 17.4154 6.72265Z" fill="black"/>
<path fill-rule="evenodd" clip-rule="evenodd" d="M25.9364 3.80038C24.0325 3.80038 22.6123 4.85125 22.5655 6.29079H24.1885C24.329 5.59981 24.9844 5.15355 25.8896 5.15355C26.982 5.15355 27.6063 5.64299 27.6063 6.5499V7.16891L25.359 7.29846C23.2678 7.41363 22.1441 8.23417 22.1441 9.6737C22.1441 11.1132 23.3146 12.0777 24.9844 12.0777C26.1081 12.0777 27.1537 11.5307 27.6375 10.6526H27.6687V11.9914H29.3386V6.43474C29.323 4.83685 27.9964 3.80038 25.9364 3.80038ZM27.6063 8.95393C27.6063 9.9904 26.6855 10.739 25.4682 10.739C24.5162 10.739 23.9076 10.2927 23.9076 9.61612C23.9076 8.91075 24.5006 8.50768 25.6087 8.4501L27.6063 8.33493V8.95393Z" fill="black"/>
<path fill-rule="evenodd" clip-rule="evenodd" d="M34.8475 12.4088C34.1297 14.3522 33.3025 15 31.5546 15C31.4142 15 30.9772 14.9856 30.868 14.9568V13.618C30.9772 13.6324 31.2581 13.6468 31.3986 13.6468C32.1945 13.6468 32.6315 13.3301 32.9124 12.4952L33.0684 12.0058L30.0252 3.90115H31.898L34.0204 10.4655H34.0516L36.1741 3.90115H38L34.8475 12.4088Z" fill="black"/>
</svg>
