<svg width="31" height="31" viewBox="0 0 31 31" fill="none" xmlns="http://www.w3.org/2000/svg">
<path d="M9.53765 27.2251V25.6426C9.54693 25.5095 9.52772 25.3759 9.48131 25.2508C9.4349 25.1257 9.36236 25.0119 9.26851 24.9171C9.17466 24.8222 9.06167 24.7485 8.93707 24.7008C8.81247 24.653 8.67912 24.6324 8.54593 24.6403C8.37161 24.6289 8.19744 24.6646 8.04157 24.7434C7.8857 24.8223 7.75383 24.9415 7.65971 25.0887C7.57394 24.9459 7.45125 24.8289 7.30457 24.75C7.15788 24.6711 6.99263 24.6332 6.82622 24.6403C6.68116 24.633 6.53672 24.6637 6.40718 24.7294C6.27765 24.7951 6.16753 24.8935 6.08771 25.0148V24.7036H5.53906V27.2251H6.09296V25.8272C6.08098 25.741 6.08825 25.6531 6.11426 25.57C6.14026 25.4869 6.18435 25.4106 6.24336 25.3465C6.30237 25.2825 6.37483 25.2323 6.45554 25.1996C6.53625 25.1669 6.6232 25.1524 6.71016 25.1573C7.07414 25.1573 7.2588 25.3947 7.2588 25.8219V27.2251H7.81271V25.8272C7.80163 25.7411 7.80953 25.6536 7.83586 25.5709C7.8622 25.4882 7.90633 25.4123 7.96515 25.3484C8.02397 25.2846 8.09606 25.2344 8.17635 25.2014C8.25664 25.1683 8.34318 25.1533 8.4299 25.1573C8.80439 25.1573 8.98377 25.3947 8.98377 25.8219V27.2251H9.53765ZM12.6289 25.9643V24.7036H12.0803V25.0096C11.9866 24.8889 11.8655 24.7924 11.7269 24.7281C11.5883 24.6639 11.4363 24.6338 11.2837 24.6403C10.9438 24.657 10.6233 24.8037 10.3886 25.0502C10.1539 25.2967 10.023 25.624 10.023 25.9644C10.023 26.3047 10.1539 26.632 10.3886 26.8785C10.6233 27.125 10.9438 27.2718 11.2837 27.2885C11.4363 27.295 11.5883 27.2649 11.7269 27.2006C11.8655 27.1364 11.9867 27.0399 12.0803 26.9192V27.2251H12.6289V25.9643ZM10.5874 25.9643C10.596 25.8155 10.6478 25.6725 10.7367 25.5528C10.8255 25.4332 10.9474 25.3421 11.0874 25.2909C11.2274 25.2397 11.3793 25.2306 11.5243 25.2647C11.6694 25.2988 11.8013 25.3746 11.9039 25.4828C12.0064 25.591 12.075 25.7268 12.1012 25.8735C12.1275 26.0202 12.1102 26.1714 12.0516 26.3084C11.993 26.4454 11.8955 26.5622 11.7712 26.6445C11.647 26.7268 11.5014 26.7709 11.3523 26.7714C11.2479 26.7729 11.1442 26.7526 11.048 26.712C10.9518 26.6714 10.865 26.6112 10.7931 26.5354C10.7212 26.4596 10.6659 26.3697 10.6305 26.2714C10.5951 26.1731 10.5804 26.0686 10.5874 25.9643ZM24.3681 24.6373C24.5533 24.6355 24.7371 24.67 24.9092 24.7387C25.0695 24.8027 25.2158 24.8975 25.3396 25.0178C25.4615 25.1374 25.5582 25.2802 25.624 25.4378C25.761 25.7755 25.761 26.1532 25.624 26.4909C25.5583 26.6485 25.4616 26.7914 25.3396 26.911C25.2158 27.0312 25.0695 27.126 24.9092 27.19C24.5611 27.3252 24.175 27.3252 23.827 27.19C23.6669 27.1262 23.521 27.0314 23.3978 26.911C23.2766 26.7911 23.1804 26.6483 23.1147 26.4909C22.9779 26.1532 22.9779 25.7755 23.1147 25.4378C23.1804 25.2805 23.2766 25.1377 23.3978 25.0178C23.521 24.8974 23.6669 24.8025 23.827 24.7387C23.999 24.67 24.1828 24.6355 24.3681 24.6373ZM24.3681 25.1561C24.2608 25.1551 24.1543 25.1752 24.0548 25.2153C23.961 25.253 23.8759 25.3094 23.8047 25.3811C23.733 25.4545 23.6766 25.5413 23.6387 25.6366C23.558 25.8477 23.558 26.0811 23.6387 26.2922C23.6765 26.3875 23.733 26.4743 23.8047 26.5476C23.8758 26.6194 23.961 26.6758 24.0548 26.7135C24.2562 26.7925 24.48 26.7925 24.6814 26.7135C24.7755 26.6756 24.861 26.6192 24.9328 26.5476C25.0052 26.4746 25.0621 26.3877 25.1001 26.2922C25.1808 26.0811 25.1808 25.8477 25.1001 25.6366C25.062 25.5411 25.0052 25.4542 24.9328 25.3811C24.861 25.3096 24.7755 25.2532 24.6814 25.2153C24.5818 25.1752 24.4754 25.1551 24.3681 25.1561ZM15.6142 25.9643C15.609 25.1784 15.1236 24.6403 14.4167 24.6403C14.0746 24.6582 13.7527 24.808 13.5186 25.0582C13.2844 25.3084 13.1563 25.6395 13.1611 25.9821C13.1659 26.3247 13.3032 26.6522 13.5442 26.8957C13.7852 27.1393 14.1111 27.28 14.4537 27.2884C14.83 27.3017 15.1981 27.1758 15.4876 26.935L15.2186 26.5288C15.0102 26.6957 14.7523 26.7885 14.4853 26.7925C14.304 26.8078 14.1239 26.7519 13.9831 26.6367C13.8423 26.5215 13.7519 26.3561 13.7309 26.1754H15.6037C15.6089 26.1068 15.6142 26.0382 15.6142 25.9643ZM13.7362 25.7428C13.7459 25.5735 13.8214 25.4147 13.9466 25.3004C14.0718 25.186 14.2367 25.1252 14.4062 25.1309C14.5719 25.1277 14.7321 25.1903 14.8518 25.305C14.9714 25.4197 15.0407 25.5771 15.0445 25.7428H13.7362ZM17.9246 25.3472C17.6853 25.2095 17.4148 25.1351 17.1386 25.1309C16.8379 25.1309 16.6586 25.2417 16.6586 25.4263C16.6586 25.5951 16.8485 25.6426 17.0859 25.6742L17.3443 25.7111C17.893 25.7903 18.2253 26.0224 18.2253 26.4655C18.2253 26.9455 17.8033 27.2885 17.0753 27.2885C16.6857 27.2992 16.3029 27.1846 15.9834 26.9613L16.2418 26.5341C16.4839 26.7136 16.7793 26.8065 17.0806 26.7979C17.4551 26.7979 17.6556 26.6871 17.6556 26.4919C17.6556 26.3495 17.5131 26.2703 17.2125 26.2281L16.954 26.1912C16.3896 26.1121 16.0836 25.8589 16.0836 25.4474C16.0836 24.9462 16.495 24.6403 17.1334 24.6403C17.4944 24.6278 17.8515 24.7194 18.162 24.9041L17.9246 25.3472ZM20.5608 25.2047H19.664V26.3442C19.664 26.5974 19.7537 26.7662 20.028 26.7662C20.1992 26.7605 20.3662 26.7115 20.5133 26.6238L20.6715 27.0933C20.4659 27.2215 20.2282 27.2892 19.9858 27.2885C19.337 27.2885 19.1101 26.9403 19.1101 26.3547V25.2047H18.5984V24.7036H19.1101L19.11 23.9387H19.6639L19.664 24.7036H20.5608V25.2047ZM22.4594 24.6403C22.5925 24.6408 22.7245 24.664 22.8498 24.7089L22.681 25.2259C22.572 25.1824 22.4555 25.1609 22.3381 25.1625C21.9794 25.1625 21.8 25.3947 21.8 25.8114V27.2251H21.2514V24.7036H21.7948V25.0096C21.8621 24.8939 21.9594 24.7985 22.0763 24.7336C22.1933 24.6686 22.3256 24.6363 22.4594 24.6403ZM26.2575 26.8581C26.2917 26.8579 26.3255 26.8646 26.3569 26.8778C26.3871 26.8904 26.4147 26.9087 26.4381 26.9316C26.4613 26.9545 26.4799 26.9816 26.4928 27.0116C26.506 27.0423 26.5128 27.0754 26.5128 27.1089C26.5128 27.1424 26.506 27.1755 26.4928 27.2062C26.4798 27.236 26.4613 27.2631 26.4381 27.2859C26.4146 27.3088 26.3871 27.3272 26.3569 27.34C26.3255 27.3534 26.2917 27.3602 26.2575 27.36C26.2073 27.3605 26.158 27.3462 26.1158 27.3189C26.0737 27.2915 26.0405 27.2523 26.0204 27.2062C26.0073 27.1755 26.0005 27.1424 26.0005 27.1089C26.0005 27.0754 26.0073 27.0423 26.0204 27.0116C26.0333 26.9817 26.0518 26.9545 26.0749 26.9316C26.0983 26.9085 26.126 26.8902 26.1564 26.8778C26.1885 26.8645 26.2228 26.8578 26.2575 26.8581ZM26.2575 27.3046C26.2836 27.3048 26.3094 27.2996 26.3332 27.2893C26.3562 27.2793 26.377 27.2651 26.3947 27.2475C26.4174 27.2248 26.4341 27.197 26.4435 27.1664C26.4529 27.1358 26.4547 27.1034 26.4486 27.072C26.4425 27.0405 26.4288 27.0111 26.4087 26.9862C26.3886 26.9613 26.3627 26.9417 26.3332 26.9292C26.3093 26.919 26.2835 26.9138 26.2575 26.9141C26.2311 26.9139 26.2048 26.919 26.1804 26.9292C26.157 26.9388 26.1358 26.9528 26.1179 26.9706C26.0815 27.0074 26.061 27.0572 26.061 27.109C26.061 27.1609 26.0815 27.2106 26.1179 27.2475C26.1363 27.2657 26.1581 27.2802 26.182 27.29C26.206 27.2998 26.2317 27.3048 26.2575 27.3046ZM26.2723 26.9915C26.297 26.9899 26.3215 26.997 26.3415 27.0116C26.3495 27.0181 26.3559 27.0265 26.3601 27.0359C26.3643 27.0454 26.3663 27.0557 26.3658 27.066C26.3661 27.0748 26.3645 27.0836 26.3612 27.0919C26.3578 27.1001 26.3528 27.1075 26.3465 27.1136C26.3312 27.1272 26.3118 27.1353 26.2914 27.1367L26.3677 27.2247H26.308L26.2373 27.1373H26.2145V27.2247H26.1647V26.9915H26.2723ZM26.2145 27.0352V27.0974H26.2717C26.2827 27.0979 26.2936 27.0952 26.3031 27.0896C26.307 27.0871 26.3101 27.0835 26.3121 27.0794C26.3142 27.0752 26.3151 27.0706 26.3148 27.066C26.315 27.0615 26.3141 27.0569 26.312 27.0529C26.31 27.0488 26.3069 27.0454 26.3031 27.0429C26.2936 27.0373 26.2827 27.0347 26.2717 27.0352H26.2145Z" fill="black"/>
<path d="M19.7814 5.4585H11.4609V20.4106H19.7814V5.4585Z" fill="#7375CF"/>
<path d="M11.9879 12.9346C11.9866 11.4946 12.3129 10.0732 12.9421 8.77797C13.5713 7.48273 14.487 6.34762 15.6198 5.45858C14.217 4.35596 12.5323 3.67026 10.7582 3.47985C8.98417 3.28943 7.19231 3.602 5.58749 4.38181C3.98266 5.16162 2.62962 6.37721 1.683 7.88965C0.736376 9.40209 0.234375 11.1503 0.234375 12.9346C0.234375 14.7189 0.736376 16.4671 1.683 17.9796C2.62962 19.492 3.98266 20.7076 5.58749 21.4874C7.19231 22.2672 8.98417 22.5798 10.7582 22.3894C12.5323 22.199 14.217 21.5133 15.6198 20.4106C14.487 19.5216 13.5713 18.3865 12.9421 17.0912C12.3129 15.796 11.9866 14.3746 11.9879 12.9346Z" fill="#EB001B"/>
<path d="M30.0972 18.8271V18.521H30.2206V18.4586H29.9062V18.521H30.0297V18.8271H30.0972ZM30.7075 18.8271V18.458H30.6111L30.5003 18.7119L30.3894 18.458H30.293V18.8271H30.361V18.5487L30.465 18.7887H30.5355L30.6395 18.5481V18.8271H30.7075Z" fill="#00A2E5"/>
<path d="M31.006 12.9346C31.0061 14.7188 30.5041 16.4671 29.5576 17.9795C28.611 19.492 27.258 20.7076 25.6532 21.4874C24.0484 22.2672 22.2566 22.5798 20.4826 22.3894C18.7085 22.199 17.0238 21.5133 15.6211 20.4106C16.7529 19.5207 17.6678 18.3854 18.297 17.0904C18.9261 15.7953 19.253 14.3744 19.253 12.9346C19.253 11.4948 18.9261 10.0739 18.297 8.77884C17.6678 7.48381 16.7529 6.34852 15.6211 5.45858C17.0238 4.35596 18.7085 3.67025 20.4826 3.47984C22.2566 3.28943 24.0484 3.602 25.6532 4.38182C27.258 5.16164 28.611 6.37724 29.5576 7.88968C30.5041 9.40212 31.0061 11.1504 31.006 12.9346Z" fill="#00A2E5"/>
</svg>
