<svg width="32" height="31" viewBox="0 0 32 31" fill="none" xmlns="http://www.w3.org/2000/svg">
<path d="M6.02725 27.2248V25.6401C6.03655 25.5068 6.01732 25.3731 5.97085 25.2478C5.92438 25.1226 5.85174 25.0087 5.75777 24.9137C5.6638 24.8187 5.55065 24.7449 5.42589 24.6971C5.30113 24.6493 5.16761 24.6286 5.03424 24.6365C4.8597 24.6252 4.68529 24.6608 4.52921 24.7398C4.37313 24.8187 4.24109 24.9381 4.14686 25.0855C4.06097 24.9425 3.93813 24.8254 3.79125 24.7464C3.64438 24.6674 3.47891 24.6294 3.31229 24.6365C3.16704 24.6292 3.0224 24.66 2.8927 24.7258C2.763 24.7916 2.65272 24.8901 2.5728 25.0116V24.6999H2.02344V27.2248H2.57805V25.825C2.56606 25.7386 2.57335 25.6506 2.59939 25.5674C2.62543 25.4842 2.66958 25.4078 2.72866 25.3436C2.78775 25.2795 2.8603 25.2293 2.94112 25.1965C3.02193 25.1637 3.109 25.1493 3.19607 25.1542C3.56053 25.1542 3.74543 25.3919 3.74543 25.8197V27.2248H4.30004V25.825C4.28895 25.7388 4.29687 25.6512 4.32324 25.5683C4.34961 25.4855 4.3938 25.4095 4.4527 25.3455C4.51159 25.2816 4.58378 25.2314 4.66417 25.1983C4.74456 25.1652 4.83121 25.1502 4.91805 25.1542C5.29305 25.1542 5.47264 25.3919 5.47264 25.8197V27.2248H6.02725ZM14.2356 24.6999H13.3377V23.934H12.7831V24.6999H12.2707V25.2017H12.7831V26.3532C12.7831 26.9395 13.0102 27.2882 13.6599 27.2882C13.9026 27.2889 14.1406 27.2211 14.3465 27.0927L14.1881 26.6226C14.0408 26.7105 13.8736 26.7595 13.7021 26.7652C13.4274 26.7652 13.3377 26.5961 13.3377 26.3427V25.2017H14.2356V24.6999ZM18.9208 24.6365C18.7869 24.6326 18.6544 24.6648 18.5372 24.7299C18.4201 24.795 18.3227 24.8905 18.2553 25.0063V24.6999H17.7112V27.2248H18.2605V25.8091C18.2605 25.3919 18.4401 25.1595 18.7994 25.1595C18.9168 25.1578 19.0335 25.1794 19.1427 25.2228L19.3117 24.7052C19.1862 24.6603 19.0541 24.6371 18.9208 24.6365V24.6365ZM11.8376 24.9006C11.5266 24.7157 11.1691 24.6241 10.8075 24.6365C10.1684 24.6365 9.75643 24.9429 9.75643 25.4447C9.75643 25.8567 10.0628 26.1103 10.6279 26.1895L10.8868 26.2264C11.1878 26.2686 11.3305 26.3479 11.3305 26.4905C11.3305 26.6859 11.1297 26.7969 10.7547 26.7969C10.4531 26.8056 10.1572 26.7125 9.91486 26.5328L9.65605 26.9606C9.97602 27.1841 10.3593 27.2989 10.7494 27.2882C11.4784 27.2882 11.9009 26.9448 11.9009 26.4641C11.9009 26.0204 11.5682 25.788 11.0188 25.7088L10.76 25.6718C10.5223 25.6401 10.3322 25.5926 10.3322 25.4236C10.3322 25.2387 10.5117 25.1278 10.8128 25.1278C11.0893 25.1319 11.3602 25.2065 11.5999 25.3443L11.8376 24.9006ZM26.5534 24.6365C26.4195 24.6326 26.2869 24.6648 26.1698 24.7299C26.0527 24.795 25.9553 24.8905 25.8879 25.0063V24.6999H25.3438V27.2248H25.8931V25.8091C25.8931 25.3919 26.0727 25.1595 26.4319 25.1595C26.5494 25.1578 26.6661 25.1794 26.7753 25.2228L26.9443 24.7052C26.8188 24.6603 26.6867 24.6371 26.5534 24.6365V24.6365ZM19.4754 25.9623C19.4681 26.1402 19.4981 26.3176 19.5635 26.4832C19.6289 26.6487 19.7282 26.7988 19.8551 26.9237C19.982 27.0486 20.1336 27.1455 20.3002 27.2083C20.4668 27.2711 20.6446 27.2983 20.8224 27.2882C21.1522 27.3047 21.4762 27.1973 21.7309 26.987L21.4668 26.5433C21.2769 26.6881 21.0453 26.7678 20.8065 26.7705C20.6007 26.758 20.4073 26.6674 20.266 26.5172C20.1246 26.367 20.0459 26.1686 20.0459 25.9623C20.0459 25.7561 20.1246 25.5576 20.266 25.4074C20.4073 25.2572 20.6007 25.1667 20.8065 25.1542C21.0453 25.1569 21.2769 25.2365 21.4668 25.3813L21.7309 24.9376C21.4762 24.7274 21.1522 24.62 20.8224 24.6365C20.6447 24.6264 20.4668 24.6536 20.3002 24.7164C20.1336 24.7792 19.982 24.8761 19.8551 25.001C19.7283 25.1258 19.6289 25.2759 19.5635 25.4414C19.4981 25.607 19.4681 25.7844 19.4754 25.9623V25.9623ZM24.6202 25.9623V24.6999H24.0708V25.0063C23.9771 24.8854 23.8557 24.7888 23.717 24.7245C23.5782 24.6602 23.426 24.63 23.2732 24.6365C22.9328 24.6532 22.6119 24.8002 22.3769 25.047C22.1419 25.2938 22.0108 25.6215 22.0108 25.9623C22.0108 26.3031 22.1419 26.6309 22.3769 26.8777C22.6119 27.1245 22.9328 27.2715 23.2732 27.2882C23.426 27.2947 23.5782 27.2645 23.717 27.2002C23.8557 27.1358 23.9771 27.0392 24.0708 26.9184V27.2248H24.6202V25.9623ZM22.576 25.9623C22.5845 25.8133 22.6365 25.6701 22.7254 25.5502C22.8144 25.4304 22.9364 25.3392 23.0766 25.288C23.2167 25.2367 23.3688 25.2276 23.5141 25.2617C23.6594 25.2958 23.7915 25.3717 23.8942 25.4801C23.9968 25.5884 24.0655 25.7244 24.0918 25.8713C24.1181 26.0182 24.1008 26.1695 24.0421 26.3067C23.9834 26.4439 23.8858 26.561 23.7614 26.6434C23.637 26.7258 23.4912 26.7699 23.3419 26.7705C23.2373 26.7719 23.1336 26.7516 23.0372 26.7109C22.9408 26.6703 22.8539 26.6101 22.7819 26.5341C22.71 26.4582 22.6545 26.3682 22.6191 26.2698C22.5836 26.1714 22.569 26.0667 22.576 25.9623V25.9623ZM15.947 24.6365C15.6045 24.6546 15.2822 24.8046 15.0478 25.0551C14.8134 25.3056 14.6852 25.6371 14.69 25.9801C14.6948 26.3231 14.8322 26.651 15.0735 26.8949C15.3147 27.1387 15.6411 27.2797 15.984 27.2882C16.3609 27.3014 16.7294 27.1754 17.0193 26.9342L16.7499 26.5275C16.5413 26.6947 16.283 26.7876 16.0157 26.7916C15.8342 26.8069 15.6538 26.7509 15.5128 26.6356C15.3719 26.5202 15.2813 26.3545 15.2603 26.1736H17.1355C17.1408 26.1049 17.146 26.0363 17.146 25.9623C17.1408 25.1753 16.6548 24.6365 15.947 24.6365V24.6365ZM15.9364 25.1278C16.1024 25.1245 16.2628 25.1872 16.3826 25.3021C16.5024 25.4169 16.5718 25.5746 16.5756 25.7405H15.2656C15.2753 25.571 15.3508 25.412 15.4762 25.2975C15.6016 25.183 15.7667 25.1221 15.9364 25.1278V25.1278ZM29.7174 25.9623V23.6858H29.168V25.0063C29.0743 24.8854 28.9529 24.7888 28.8142 24.7245C28.6754 24.6602 28.5233 24.63 28.3704 24.6365C28.0301 24.6532 27.7091 24.8002 27.4741 25.047C27.2391 25.2938 27.108 25.6215 27.108 25.9623C27.108 26.3031 27.2391 26.6309 27.4741 26.8777C27.7091 27.1245 28.0301 27.2715 28.3704 27.2882C28.5233 27.2947 28.6754 27.2645 28.8142 27.2002C28.9529 27.1358 29.0743 27.0392 29.168 26.9184V27.2248H29.7174V25.9623ZM30.6331 26.8588C30.6672 26.8586 30.701 26.8653 30.7325 26.8786C30.7627 26.8912 30.7903 26.9094 30.8137 26.9324C30.8369 26.9552 30.8555 26.9824 30.8684 27.0123C30.8816 27.0431 30.8884 27.0762 30.8884 27.1097C30.8884 27.1431 30.8816 27.1763 30.8684 27.207C30.8554 27.2368 30.8368 27.2638 30.8137 27.2867C30.7902 27.3096 30.7627 27.3279 30.7325 27.3407C30.7011 27.3542 30.6672 27.361 30.6331 27.3608C30.5828 27.3613 30.5335 27.347 30.4914 27.3196C30.4492 27.2923 30.416 27.2531 30.396 27.207C30.3828 27.1762 30.376 27.1431 30.376 27.1097C30.376 27.0762 30.3828 27.0431 30.396 27.0123C30.4089 26.9824 30.4274 26.9553 30.4505 26.9324C30.4738 26.9093 30.5015 26.891 30.532 26.8786C30.564 26.8653 30.5984 26.8586 30.6331 26.8588V26.8588ZM30.6331 27.3054C30.6591 27.3056 30.6849 27.3004 30.7088 27.29C30.7317 27.2801 30.7526 27.2659 30.7703 27.2482C30.8067 27.2114 30.8272 27.1616 30.8272 27.1098C30.8272 27.0579 30.8067 27.0082 30.7703 26.9714C30.7526 26.9538 30.7317 26.9397 30.7088 26.9299C30.6849 26.9197 30.6591 26.9146 30.6331 26.9148C30.6066 26.9146 30.5804 26.9198 30.5559 26.9299C30.5326 26.9395 30.5114 26.9536 30.4935 26.9714C30.457 27.0082 30.4365 27.0579 30.4365 27.1098C30.4365 27.1616 30.457 27.2114 30.4935 27.2482C30.5114 27.266 30.5326 27.2802 30.5559 27.29C30.5803 27.3004 30.6066 27.3056 30.6331 27.3054V27.3054ZM30.6479 26.9923C30.6726 26.9907 30.6971 26.9978 30.7171 27.0123C30.7251 27.0189 30.7314 27.0272 30.7356 27.0367C30.7398 27.0461 30.7418 27.0564 30.7414 27.0668C30.7416 27.0756 30.7401 27.0844 30.7367 27.0926C30.7334 27.1008 30.7284 27.1082 30.722 27.1144C30.7067 27.128 30.6873 27.1361 30.6669 27.1375L30.7432 27.2254H30.6836L30.6128 27.1381H30.5901V27.2254H30.5403V26.9923H30.6479ZM30.5901 27.036V27.0981H30.6473C30.6583 27.0987 30.6692 27.096 30.6787 27.0904C30.6825 27.0878 30.6856 27.0843 30.6877 27.0801C30.6897 27.076 30.6906 27.0714 30.6903 27.0668C30.6906 27.0622 30.6896 27.0577 30.6876 27.0536C30.6855 27.0496 30.6825 27.0461 30.6787 27.0436C30.6692 27.0381 30.6583 27.0355 30.6473 27.036H30.5901ZM27.6732 25.9623C27.6818 25.8133 27.7337 25.6701 27.8227 25.5503C27.9116 25.4305 28.0337 25.3393 28.1738 25.288C28.314 25.2368 28.4661 25.2276 28.6113 25.2618C28.7566 25.2959 28.8887 25.3718 28.9914 25.4801C29.094 25.5885 29.1627 25.7244 29.189 25.8713C29.2153 26.0182 29.198 26.1696 29.1393 26.3068C29.0805 26.444 28.983 26.561 28.8586 26.6434C28.7341 26.7258 28.5883 26.77 28.4391 26.7705C28.3345 26.7719 28.2307 26.7516 28.1344 26.7109C28.038 26.6703 27.9511 26.61 27.8791 26.5341C27.8072 26.4582 27.7517 26.3682 27.7163 26.2698C27.6809 26.1713 27.6662 26.0667 27.6732 25.9623V25.9623ZM9.12257 25.9623V24.6999H8.57321V25.0063C8.47944 24.8854 8.35811 24.7888 8.21934 24.7245C8.08058 24.6602 7.92842 24.63 7.77561 24.6365C7.43523 24.6532 7.1143 24.8002 6.8793 25.047C6.64429 25.2938 6.51322 25.6215 6.51322 25.9623C6.51322 26.3031 6.64429 26.6309 6.8793 26.8777C7.1143 27.1245 7.43523 27.2715 7.77561 27.2882C7.92843 27.2947 8.08058 27.2645 8.21934 27.2002C8.35811 27.1358 8.47945 27.0392 8.57321 26.9184V27.2248H9.12257V25.9623ZM7.07842 25.9623C7.08695 25.8133 7.1389 25.6701 7.22786 25.5503C7.31682 25.4305 7.4389 25.3393 7.57904 25.288C7.71919 25.2368 7.87127 25.2276 8.01654 25.2618C8.16181 25.2959 8.29391 25.3718 8.39655 25.4801C8.4992 25.5885 8.5679 25.7245 8.59418 25.8713C8.62047 26.0182 8.60318 26.1696 8.54446 26.3068C8.48575 26.444 8.38816 26.561 8.26374 26.6434C8.13932 26.7258 7.99352 26.77 7.84429 26.7705C7.7397 26.7719 7.63594 26.7516 7.53957 26.7109C7.44319 26.6703 7.35629 26.61 7.28434 26.5341C7.21239 26.4582 7.15694 26.3682 7.1215 26.2698C7.08606 26.1713 7.07139 26.0666 7.07842 25.9623V25.9623Z" fill="#231F20"/>
<path d="M19.9767 5.45801H11.6562V20.41H19.9767V5.45801Z" fill="#FF5F00"/>
<path d="M12.1831 12.9346C12.1818 11.4946 12.5081 10.0732 13.1374 8.77795C13.7666 7.48272 14.6823 6.34761 15.815 5.45857C14.4123 4.35596 12.7276 3.67026 10.9535 3.47985C9.17945 3.28943 7.38761 3.602 5.78279 4.3818C4.17797 5.16161 2.82492 6.3772 1.87831 7.88964C0.931687 9.40207 0.429688 11.1503 0.429688 12.9346C0.429688 14.7188 0.931687 16.4671 1.87831 17.9795C2.82492 19.492 4.17797 20.7075 5.78279 21.4874C7.38761 22.2672 9.17945 22.5797 10.9535 22.3893C12.7276 22.1989 14.4123 21.5132 15.815 20.4106C14.6823 19.5215 13.7666 18.3864 13.1374 17.0912C12.5082 15.796 12.1818 14.3746 12.1831 12.9346V12.9346Z" fill="#EB001B"/>
<path d="M31.2013 12.9346C31.2013 14.7188 30.6994 16.467 29.7528 17.9795C28.8063 19.4919 27.4533 20.7075 25.8485 21.4873C24.2437 22.2672 22.4519 22.5797 20.6779 22.3893C18.9038 22.1989 17.2191 21.5132 15.8164 20.4106C16.9482 19.5206 17.8631 18.3854 18.4923 17.0903C19.1214 15.7953 19.4483 14.3743 19.4483 12.9346C19.4483 11.4948 19.1214 10.0739 18.4923 8.77883C17.8631 7.4838 16.9482 6.34851 15.8164 5.45857C17.2191 4.35595 18.9038 3.67025 20.6779 3.47984C22.4519 3.28943 24.2437 3.602 25.8485 4.38182C27.4533 5.16164 28.8063 6.37723 29.7528 7.88967C30.6994 9.40211 31.2013 11.1503 31.2013 12.9346V12.9346Z" fill="#F79E1B"/>
<path d="M30.2925 18.8266V18.5205H30.4159V18.4581H30.1016V18.5205H30.225V18.8266H30.2925ZM30.9028 18.8266V18.4575H30.8064L30.6956 18.7114L30.5847 18.4575H30.4883V18.8266H30.5564V18.5482L30.6603 18.7882H30.7309L30.8348 18.5476V18.8266H30.9028Z" fill="#F79E1B"/>
</svg>
