<svg width="80" height="21" viewBox="0 0 80 21" fill="none" xmlns="http://www.w3.org/2000/svg">
<path d="M61.4902 5.1543H57.0625C56.7602 5.1543 56.5025 5.37439 56.4553 5.67345L54.6648 17.0255C54.6292 17.2495 54.8027 17.4515 55.0286 17.4515H57.3007C57.5117 17.4515 57.6923 17.2974 57.7253 17.0877L58.2335 13.8698C58.2801 13.5701 58.5384 13.35 58.8407 13.35H60.2415C63.1583 13.35 64.8407 11.9389 65.2809 9.14244C65.4796 7.91901 65.2886 6.95773 64.7158 6.28452C64.0872 5.54528 62.9719 5.1543 61.4902 5.1543ZM62.0009 9.30039C61.7594 10.8889 60.5457 10.8889 59.3715 10.8889H58.7041L59.1734 7.92224C59.2012 7.74293 59.3553 7.61088 59.5372 7.61088H59.8434C60.6422 7.61088 61.3969 7.61088 61.7866 8.0666C62.019 8.33847 62.0896 8.7424 62.0009 9.30039Z" fill="#179BD7"/>
<path d="M74.7225 9.24918H72.6038C72.4219 9.24918 72.2672 9.38123 72.24 9.56054L72.1461 10.1535L71.9972 9.93858C71.5383 9.27248 70.5155 9.0498 69.494 9.0498C67.1514 9.0498 65.1512 10.8241 64.7615 13.3131C64.5595 14.5546 64.8463 15.7418 65.5506 16.5697C66.1979 17.331 67.121 17.6482 68.2208 17.6482C70.1084 17.6482 71.1551 16.4344 71.1551 16.4344L71.0606 17.0235C71.025 17.2488 71.1984 17.4507 71.4257 17.4507H73.3346C73.6369 17.4507 73.8945 17.2307 73.9418 16.9309L75.0882 9.67512C75.1232 9.45179 74.9497 9.24918 74.7225 9.24918ZM71.7674 13.3752C71.5642 14.5863 70.6016 15.3994 69.3756 15.3994C68.7613 15.3994 68.268 15.2019 67.9521 14.8278C67.6388 14.4562 67.521 13.9274 67.6194 13.3383C67.8117 12.1375 68.7878 11.298 69.9951 11.298C70.5971 11.298 71.0865 11.498 71.4088 11.8754C71.7331 12.2566 71.8613 12.7887 71.7674 13.3752Z" fill="#179BD7"/>
<path d="M77.2221 5.46533L75.405 17.0252C75.3694 17.2492 75.5429 17.4511 75.7688 17.4511H77.5956C77.8992 17.4511 78.1568 17.231 78.2034 16.9313L79.9952 5.57991C80.0308 5.35593 79.8573 5.15332 79.6314 5.15332H77.5859C77.4053 5.15397 77.2499 5.28602 77.2221 5.46533Z" fill="#179BD7"/>
<path d="M29.913 5.1543H25.486C25.183 5.1543 24.9254 5.37439 24.8781 5.67345L23.0877 17.0255C23.0521 17.2495 23.2255 17.4515 23.4527 17.4515H25.5662C25.8692 17.4515 26.1268 17.2314 26.1741 16.9317L26.657 13.8698C26.7036 13.5701 26.9619 13.35 27.2642 13.35H28.6656C31.5818 13.35 33.2648 11.9389 33.7044 9.14244C33.9025 7.91901 33.7128 6.95773 33.1399 6.28452C32.5107 5.54528 31.3947 5.1543 29.913 5.1543ZM30.4237 9.30039C30.1817 10.8889 28.9679 10.8889 27.7943 10.8889H27.1263L27.595 7.92224C27.6228 7.74293 27.7781 7.61088 27.9594 7.61088H28.2656C29.065 7.61088 29.8192 7.61088 30.2088 8.0666C30.4412 8.33847 30.5124 8.7424 30.4237 9.30039Z" fill="#253B80"/>
<path d="M43.1461 9.24918H41.0262C40.8456 9.24918 40.6895 9.38123 40.6617 9.56054L40.5679 10.1535L40.4196 9.93858C39.9607 9.27248 38.9372 9.0498 37.9158 9.0498C35.5731 9.0498 33.5722 10.8241 33.1826 13.3131C32.9799 14.5546 33.268 15.7418 33.9723 16.5697C34.6183 17.331 35.5427 17.6482 36.6425 17.6482C38.5301 17.6482 39.5768 16.4344 39.5768 16.4344L39.4823 17.0235C39.4467 17.2488 39.6202 17.4507 39.8461 17.4507H41.7557C42.0593 17.4507 42.3156 17.2307 42.3635 16.9309L43.5093 9.67512C43.5455 9.45179 43.3727 9.24918 43.1461 9.24918ZM40.1911 13.3752C39.9866 14.5863 39.0253 15.3994 37.7993 15.3994C37.1837 15.3994 36.6917 15.2019 36.3758 14.8278C36.0625 14.4562 35.9434 13.9274 36.0431 13.3383C36.234 12.1375 37.2115 11.298 38.4187 11.298C39.0208 11.298 39.5101 11.498 39.8325 11.8754C40.1555 12.2566 40.2837 12.7887 40.1911 13.3752Z" fill="#253B80"/>
<path d="M54.4368 9.24902H52.3065C52.1032 9.24902 51.9123 9.35001 51.797 9.51896L48.8588 13.8469L47.6134 9.68791C47.5351 9.42768 47.2949 9.24902 47.023 9.24902H44.9296C44.6752 9.24902 44.4985 9.4976 44.5794 9.7371L46.9259 16.6233L44.7199 19.7376C44.5464 19.9829 44.7212 20.3202 45.0209 20.3202H47.1486C47.3506 20.3202 47.5396 20.2218 47.6542 20.0561L54.7398 9.82838C54.9094 9.58369 54.7352 9.24902 54.4368 9.24902Z" fill="#253B80"/>
<path d="M4.70315 19.6574L5.0417 17.507L4.28757 17.4895H0.686523L3.18907 1.62172C3.19684 1.57382 3.22208 1.52916 3.25898 1.49744C3.29588 1.46572 3.34313 1.44824 3.39233 1.44824H9.4642C11.48 1.44824 12.8711 1.86771 13.5973 2.69563C13.9378 3.08402 14.1547 3.48989 14.2596 3.93655C14.3696 4.40521 14.3715 4.96514 14.2641 5.64806L14.2563 5.69791V6.1355L14.5968 6.3284C14.8836 6.48052 15.1114 6.65465 15.2862 6.85402C15.5775 7.1861 15.7659 7.60815 15.8455 8.10853C15.9277 8.62315 15.9005 9.23552 15.7659 9.9288C15.6105 10.7263 15.3594 11.4209 15.0202 11.9892C14.7082 12.5129 14.3107 12.9473 13.8388 13.2839C13.3883 13.6036 12.8529 13.8464 12.2477 14.0017C11.6612 14.1545 10.9925 14.2315 10.2591 14.2315H9.78657C9.44867 14.2315 9.12048 14.3532 8.86284 14.5714C8.60456 14.7941 8.43367 15.0983 8.38123 15.431L8.34563 15.6246L7.74751 19.4146L7.72032 19.5538C7.7132 19.5978 7.7009 19.6198 7.68277 19.6347C7.66659 19.6483 7.64329 19.6574 7.62063 19.6574H4.70315Z" fill="#253B80"/>
<path d="M14.9195 5.74805C14.9014 5.86392 14.8806 5.98238 14.8573 6.10407C14.0566 10.2152 11.3171 11.6354 7.81837 11.6354H6.03694C5.60906 11.6354 5.2485 11.9461 5.18183 12.3682L4.26975 18.1527L4.01147 19.7923C3.9681 20.0694 4.18172 20.3193 4.46136 20.3193H7.62093C7.99509 20.3193 8.31292 20.0474 8.37183 19.6784L8.4029 19.5179L8.99779 15.7427L9.03598 15.5355C9.09424 15.1653 9.41272 14.8934 9.78687 14.8934H10.2594C13.3206 14.8934 15.717 13.6505 16.4174 10.054C16.71 8.5516 16.5585 7.29709 15.7843 6.41479C15.55 6.14874 15.2593 5.928 14.9195 5.74805Z" fill="#179BD7"/>
<path d="M14.0817 5.41436C13.9593 5.37876 13.8331 5.3464 13.7036 5.31727C13.5735 5.28878 13.4402 5.26354 13.3029 5.24153C12.8226 5.16385 12.2964 5.12695 11.7325 5.12695H6.97343C6.85626 5.12695 6.74492 5.15349 6.64523 5.2014C6.42579 5.30691 6.26267 5.5147 6.22318 5.7691L5.21077 12.1815L5.18164 12.3685C5.24831 11.9465 5.60887 11.6358 6.03675 11.6358H7.81818C11.317 11.6358 14.0564 10.2149 14.8572 6.10441C14.8811 5.98271 14.9012 5.86425 14.9193 5.74838C14.7167 5.64093 14.4972 5.54901 14.261 5.47068C14.2027 5.45126 14.1425 5.43249 14.0817 5.41436Z" fill="#222D65"/>
<path d="M6.22334 5.76888C6.26283 5.51449 6.42595 5.3067 6.64539 5.20183C6.74573 5.15393 6.85642 5.12739 6.97359 5.12739H11.7327C12.2965 5.12739 12.8228 5.16429 13.3031 5.24196C13.4403 5.26397 13.5737 5.28922 13.7038 5.3177C13.8333 5.34683 13.9595 5.3792 14.0818 5.4148C14.1427 5.43292 14.2029 5.4517 14.2618 5.47047C14.4981 5.54879 14.7175 5.64136 14.9201 5.74817C15.1583 4.22891 14.9182 3.19449 14.0967 2.25781C13.1911 1.22663 11.5566 0.785156 9.46513 0.785156H3.39325C2.96602 0.785156 2.60158 1.09587 2.53555 1.51857L0.00646598 17.5495C-0.0433778 17.8667 0.20131 18.1528 0.521087 18.1528H4.26973L5.21093 12.1812L6.22334 5.76888Z" fill="#253B80"/>
</svg>
