<svg width="34" height="34" viewBox="0 0 34 34" fill="none" xmlns="http://www.w3.org/2000/svg">
<path d="M16.8346 11.6822L14.5631 22.3019H11.8156L14.0873 11.6822H16.8346ZM28.3932 18.5395L29.8392 14.5516L30.6713 18.5395H28.3932ZM31.4596 22.3019H34L31.7806 11.6822H29.4372C28.9091 11.6822 28.4639 11.9884 28.2668 12.4607L24.1445 22.3019H27.0298L27.6026 20.7159H31.1268L31.4596 22.3019ZM24.2875 18.8349C24.2995 16.0322 20.4131 15.877 20.4391 14.6247C20.4475 14.2442 20.8105 13.8388 21.604 13.7352C21.9974 13.6845 23.083 13.6435 24.3136 14.2105L24.7948 11.9576C24.1339 11.7185 23.2834 11.4883 22.225 11.4883C19.509 11.4883 17.5984 12.931 17.5832 14.9985C17.5657 16.5274 18.948 17.3798 19.9872 17.8891C21.0587 18.4095 21.4177 18.7432 21.4125 19.2082C21.405 19.9207 20.5581 20.2363 19.7694 20.2482C18.3874 20.2697 17.5863 19.8746 16.9478 19.577L16.4491 21.9051C17.0921 22.1994 18.2768 22.4555 19.5035 22.4686C22.391 22.4686 24.2789 21.0429 24.2875 18.8349ZM12.9088 11.6822L8.45731 22.3019H5.55357L3.36281 13.8267C3.23001 13.3055 3.11417 13.1139 2.71027 12.8937C2.0496 12.5349 0.958995 12.1993 0 11.9906L0.0649688 11.6822H4.7398C5.33526 11.6822 5.87101 12.0785 6.00739 12.7645L7.16463 18.9102L10.0225 11.6822H12.9088Z" fill="#1434CB"/>
</svg>
