<svg width="101" height="43" viewBox="0 0 101 43" fill="none" xmlns="http://www.w3.org/2000/svg">
<path d="M23 8.28844C23 5.73709 23 4.46209 22.5204 3.4876C22.0986 2.63042 21.426 1.93279 20.5981 1.49604C19.6578 1 18.4262 1 15.9668 0.999999L8.0332 0.999999C5.57379 0.999998 4.34403 0.999999 3.40374 1.49604C2.57582 1.93279 1.90095 2.63041 1.4791 3.4876C1 4.46113 1 5.73438 1 8.28074L1 34.7181C1 37.2645 1 38.5396 1.4791 39.5131C1.90094 40.3703 2.57582 41.0667 3.40373 41.5035C4.34495 42 5.57534 42 8.03957 42L15.9596 42C18.4238 42 19.6568 42 20.598 41.5035C21.426 41.0667 22.0986 40.3703 22.5204 39.5131C23 38.5386 23 38.5513 23 36" stroke="white" stroke-width="2" stroke-linecap="round" stroke-linejoin="round"/>
<path d="M51 32.36V9.64H60.728C61.7307 9.64 62.648 9.85333 63.48 10.28C64.312 10.6853 65.0373 11.24 65.656 11.944C66.2747 12.6267 66.7547 13.4053 67.096 14.28C67.4373 15.1333 67.608 16.008 67.608 16.904C67.608 17.9493 67.4053 18.9413 67 19.88C66.616 20.8187 66.0613 21.6187 65.336 22.28C64.632 22.9413 63.8 23.4 62.84 23.656L68.344 32.36H65.08L59.896 24.2H53.88V32.36H51ZM53.88 21.64H60.76C61.5493 21.64 62.232 21.4267 62.808 21C63.4053 20.552 63.864 19.9653 64.184 19.24C64.5253 18.5147 64.696 17.736 64.696 16.904C64.696 16.0507 64.504 15.272 64.12 14.568C63.736 13.8427 63.2347 13.2667 62.616 12.84C61.9973 12.4133 61.3147 12.2 60.568 12.2H53.88V21.64Z" fill="white"/>
<path d="M78.444 32.68C77.1853 32.68 76.0333 32.456 74.988 32.008C73.964 31.5387 73.068 30.9093 72.3 30.12C71.5533 29.3093 70.9667 28.3813 70.54 27.336C70.1347 26.2907 69.932 25.1813 69.932 24.008C69.932 22.4293 70.2947 20.9893 71.02 19.688C71.7453 18.3867 72.748 17.3413 74.028 16.552C75.3293 15.7627 76.812 15.368 78.476 15.368C80.1613 15.368 81.6227 15.7733 82.86 16.584C84.1187 17.3733 85.0893 18.4187 85.772 19.72C86.476 21 86.828 22.3867 86.828 23.88C86.828 24.0933 86.8173 24.3067 86.796 24.52C86.796 24.712 86.7853 24.8613 86.764 24.968H72.908C72.9933 26.056 73.292 27.0267 73.804 27.88C74.3373 28.712 75.02 29.3733 75.852 29.864C76.684 30.3333 77.58 30.568 78.54 30.568C79.564 30.568 80.524 30.312 81.42 29.8C82.3373 29.288 82.9667 28.616 83.308 27.784L85.74 28.456C85.3773 29.2667 84.8333 29.992 84.108 30.632C83.404 31.272 82.5613 31.7733 81.58 32.136C80.62 32.4987 79.5747 32.68 78.444 32.68ZM72.812 23.016H84.204C84.1187 21.928 83.8093 20.968 83.276 20.136C82.7427 19.304 82.06 18.6533 81.228 18.184C80.396 17.7147 79.4787 17.48 78.476 17.48C77.4947 17.48 76.588 17.7147 75.756 18.184C74.924 18.6533 74.2413 19.304 73.708 20.136C73.196 20.968 72.8973 21.928 72.812 23.016Z" fill="white"/>
<path d="M92.6862 32.36H90.1862V9H92.6862V32.36Z" fill="white"/>
<path d="M97.427 32.36V15.656H100.243V32.36H97.427ZM97.427 12.52V9H100.243V12.52H97.427Z" fill="white"/>
<circle cx="12" cy="37" r="2" fill="white"/>
<path d="M34.3719 30.7778C34.3719 31.4528 34.9275 32 35.6128 32C36.2981 32 36.8536 31.4528 36.8536 30.7778C36.8536 30.1028 36.2981 29.5556 35.6128 29.5556C34.9275 29.5556 34.3719 30.1028 34.3719 30.7778Z" fill="#F5B80B"/>
<path d="M21.9634 30.7778C21.9634 31.4528 22.519 32 23.2043 32C23.8896 32 24.4451 31.4528 24.4451 30.7778C24.4451 30.1028 23.8896 29.5556 23.2043 29.5556C22.519 29.5556 21.9634 30.1028 21.9634 30.7778Z" fill="#F5B80B"/>
<path d="M17 10H17.333C17.9209 10 18.2153 10 18.4551 10.1045C18.6665 10.1966 18.8473 10.3449 18.9776 10.5329C19.1252 10.7459 19.1785 11.0302 19.2849 11.5978L20.8061 19.7139M20.1021 13.6667H26.5M20.8061 19.7139L21.9635 25.8889L26.5 25.8889M20.8061 19.7139H37.9186M37.9186 19.7139L38.7741 16.0622L38.7745 16.0604C38.9659 15.2435 39.0619 14.8341 38.9565 14.5129C38.8641 14.2311 38.6696 13.9922 38.4116 13.8401C38.1174 13.6667 37.6922 13.6667 36.8396 13.6667H32.5M37.9186 19.7139L36.827 24.3733L36.826 24.3771C36.6998 24.9156 36.6367 25.1851 36.4877 25.3865C36.3559 25.5645 36.1784 25.7046 35.9726 25.791C35.7397 25.8889 35.4577 25.8889 34.8953 25.8889L32.5 25.8889M26.5 13.6667H28.4709H32.5M26.5 13.6667V25.8889M26.5 25.8889L32.5 25.8889M32.5 13.6667V25.8889M35.6128 32C34.9275 32 34.3719 31.4528 34.3719 30.7778C34.3719 30.1028 34.9275 29.5556 35.6128 29.5556C36.2981 29.5556 36.8536 30.1028 36.8536 30.7778C36.8536 31.4528 36.2981 32 35.6128 32ZM23.2043 32C22.519 32 21.9634 31.4528 21.9634 30.7778C21.9634 30.1028 22.519 29.5556 23.2043 29.5556C23.8896 29.5556 24.4451 30.1028 24.4451 30.7778C24.4451 31.4528 23.8896 32 23.2043 32Z" stroke="#F5B80B" stroke-width="2" stroke-linecap="round" stroke-linejoin="round"/>
</svg>
