<svg width="25" height="25" viewBox="0 0 25 25" fill="none" xmlns="http://www.w3.org/2000/svg">
<path fill-rule="evenodd" clip-rule="evenodd" d="M12.4992 0C9.10618 5.6959e-06 8.68004 0.0148554 7.34695 0.0755208C6.01621 0.136458 5.10787 0.347135 4.31307 0.65625C3.49092 0.975521 2.79352 1.4026 2.09872 2.09766C1.4034 2.79245 0.976312 3.48984 0.655996 4.31172C0.346097 5.10677 0.135158 6.01536 0.0752612 7.34557C0.0156252 8.6789 0 9.10521 0 12.5C0 15.8948 0.0151043 16.3195 0.0755216 17.6529C0.13672 18.9836 0.347399 19.8919 0.656257 20.6867C0.975791 21.5089 1.40288 22.2063 2.09794 22.901C2.79248 23.5964 3.48988 24.0245 4.3115 24.3437C5.10682 24.6529 6.01543 24.8635 7.34591 24.9245C8.67926 24.9852 9.10504 25 12.4996 25C15.8947 25 16.3194 24.9852 17.6528 24.9245C18.9835 24.8635 19.8929 24.6529 20.6882 24.3437C21.5101 24.0245 22.2065 23.5964 22.901 22.901C23.5963 22.2063 24.0234 21.5089 24.3437 20.687C24.651 19.8919 24.862 18.9833 24.9245 17.6531C24.9844 16.3198 25 15.8948 25 12.5C25 9.10521 24.9844 8.67917 24.9245 7.34583C24.862 6.0151 24.651 5.10677 24.3437 4.31198C24.0234 3.48984 23.5963 2.79245 22.901 2.09766C22.2057 1.40234 21.5104 0.97526 20.6875 0.65625C19.8906 0.347135 18.9817 0.136458 17.651 0.0755208C16.3179 0.0148554 15.8933 5.69589e-06 12.4992 0ZM11.3798 2.25259C11.5976 2.25225 11.8318 2.25235 12.0846 2.25247C12.2181 2.25253 12.3569 2.25259 12.5012 2.25259C15.8387 2.25259 16.2343 2.26457 17.5523 2.32446C18.771 2.38019 19.4325 2.58384 19.8731 2.75493C20.4565 2.98149 20.8724 3.25233 21.3096 3.68983C21.7471 4.12733 22.018 4.54399 22.245 5.12733C22.4161 5.56743 22.62 6.22889 22.6755 7.44764C22.7354 8.76535 22.7484 9.16118 22.7484 12.4971C22.7484 15.8331 22.7354 16.2289 22.6755 17.5466C22.6198 18.7653 22.4161 19.4268 22.245 19.8669C22.0185 20.4502 21.7471 20.8656 21.3096 21.3028C20.8721 21.7403 20.4567 22.0112 19.8731 22.2377C19.433 22.4096 18.771 22.6127 17.5523 22.6685C16.2346 22.7284 15.8387 22.7414 12.5012 22.7414C9.16339 22.7414 8.76781 22.7284 7.45009 22.6685C6.23133 22.6122 5.56986 22.4086 5.12897 22.2375C4.54564 22.0109 4.12896 21.7401 3.69146 21.3026C3.25396 20.8651 2.98312 20.4495 2.75603 19.8659C2.58494 19.4258 2.38103 18.7643 2.32556 17.5456C2.26566 16.2278 2.25368 15.832 2.25368 12.494C2.25368 9.15597 2.26566 8.76222 2.32556 7.44452C2.38129 6.22576 2.58494 5.56431 2.75603 5.12368C2.9826 4.54035 3.25396 4.12368 3.69146 3.68618C4.12896 3.24868 4.54564 2.97785 5.12897 2.75077C5.5696 2.57889 6.23133 2.37577 7.45009 2.31978C8.60323 2.26769 9.05011 2.25207 11.3798 2.24946V2.25259ZM17.6736 5.82763C17.6736 4.99925 18.3455 4.32815 19.1736 4.32815V4.32763C20.0018 4.32763 20.6736 4.99951 20.6736 5.82763C20.6736 6.65576 20.0018 7.32763 19.1736 7.32763C18.3455 7.32763 17.6736 6.65576 17.6736 5.82763ZM12.5012 6.08071C8.95609 6.08071 6.08184 8.95493 6.08184 12.5C6.08184 16.045 8.95609 18.9179 12.5012 18.9179C16.0463 18.9179 18.9195 16.045 18.9195 12.5C18.9195 8.95493 16.0463 6.08071 12.5012 6.08071ZM16.6679 12.5C16.6679 10.1987 14.8022 8.33335 12.5012 8.33335C10.1998 8.33335 8.33446 10.1987 8.33446 12.5C8.33446 14.8011 10.1998 16.6667 12.5012 16.6667C14.8022 16.6667 16.6679 14.8011 16.6679 12.5Z" fill="#B5B5B5"/>
</svg>
