<svg width="26" height="25" viewBox="0 0 26 25" fill="none" xmlns="http://www.w3.org/2000/svg">
<path d="M13 0C5.82021 0 0 5.59635 0 12.5C0 19.4036 5.82021 25 13 25C20.1798 25 26 19.4036 26 12.5C26 5.59635 20.1798 0 13 0ZM9.81771 17.681H7.18521V9.53516H9.81771V17.681ZM8.48521 8.53516C7.65375 8.53516 7.11615 7.96875 7.11615 7.26823C7.11615 6.55338 7.67 6.00391 8.51906 6.00391C9.36812 6.00391 9.88812 6.55338 9.90438 7.26823C9.90438 7.96875 9.36812 8.53516 8.48521 8.53516ZM19.4323 17.681H16.7998V13.1667C16.7998 12.1159 16.4179 11.4023 15.4659 11.4023C14.7388 11.4023 14.3068 11.8854 14.1158 12.3503C14.0454 12.5156 14.0278 12.75 14.0278 12.9831V17.6797H11.394V12.1328C11.394 11.1159 11.3601 10.2656 11.3249 9.53385H13.6121L13.7326 10.6654H13.7854C14.1321 10.1341 14.9811 9.35026 16.4017 9.35026C18.1336 9.35026 19.4323 10.4661 19.4323 12.8646V17.681Z" fill="#B5B5B5"/>
</svg>
