<svg width="18" height="18" viewBox="0 0 18 18" fill="none" xmlns="http://www.w3.org/2000/svg">
  <path d="M3.16671 10.5883C3.02873 10.5888 2.89344 10.5501 2.77657 10.4767C2.6597 10.4034 2.56605 10.2984 2.50649 10.1739C2.44693 10.0494 2.4239 9.91063 2.4401 9.7736C2.45629 9.63657 2.51103 9.50694 2.59796 9.39978L9.81671 1.96228C9.87086 1.89978 9.94465 1.85754 10.026 1.8425C10.1073 1.82747 10.1913 1.84052 10.2642 1.87953C10.3371 1.91853 10.3946 1.98117 10.4273 2.05715C10.4599 2.13314 10.4657 2.21796 10.4438 2.2977L9.0438 6.68728C9.00251 6.79777 8.98865 6.91662 9.00339 7.03364C9.01814 7.15066 9.06105 7.26236 9.12844 7.35916C9.19584 7.45595 9.28571 7.53495 9.39035 7.58938C9.49499 7.64381 9.61127 7.67204 9.72921 7.67166H14.8334C14.9714 7.67119 15.1066 7.70988 15.2235 7.78324C15.3404 7.85659 15.434 7.96161 15.4936 8.08608C15.5532 8.21054 15.5762 8.34936 15.56 8.48639C15.5438 8.62342 15.4891 8.75304 15.4021 8.8602L8.18338 16.2977C8.12923 16.3602 8.05544 16.4024 7.97412 16.4175C7.8928 16.4325 7.80879 16.4195 7.73587 16.3805C7.66295 16.3415 7.60545 16.2788 7.57282 16.2028C7.54019 16.1268 7.53436 16.042 7.5563 15.9623L8.9563 11.5727C8.99758 11.4622 9.01144 11.3434 8.9967 11.2263C8.98195 11.1093 8.93904 10.9976 8.87165 10.9008C8.80425 10.804 8.71438 10.725 8.60974 10.6706C8.5051 10.6162 8.38882 10.5879 8.27088 10.5883H3.16671Z" stroke="#FCC800" stroke-width="1.45833" stroke-linecap="round" stroke-linejoin="round" />
</svg>