<svg width="18" height="18" viewBox="0 0 18 18" fill="none" xmlns="http://www.w3.org/2000/svg">
  <path d="M14.8334 9.85917C14.8334 13.505 12.2813 15.3279 9.248 16.3852C9.08916 16.439 8.91662 16.4365 8.75946 16.3779C5.71883 15.3279 3.16675 13.505 3.16675 9.85917V4.75501C3.16675 4.56162 3.24357 4.37615 3.38032 4.23941C3.51706 4.10266 3.70253 4.02584 3.89591 4.02584C5.35425 4.02584 7.17716 3.15084 8.44591 2.04251C8.60039 1.91053 8.7969 1.83801 9.00008 1.83801C9.20326 1.83801 9.39977 1.91053 9.55425 2.04251C10.8303 3.15813 12.6459 4.02584 14.1042 4.02584C14.2976 4.02584 14.4831 4.10266 14.6198 4.23941C14.7566 4.37615 14.8334 4.56162 14.8334 4.75501V9.85917Z" stroke="#05DF72" stroke-width="1.45833" stroke-linecap="round" stroke-linejoin="round" />
</svg>