<svg width="18" height="19" viewBox="0 0 18 19" fill="none" xmlns="http://www.w3.org/2000/svg">
  <path d="M12.8958 2.12305H5.60409C3.59055 2.12305 1.95825 3.75534 1.95825 5.76888V13.0605C1.95825 15.0741 3.59055 16.7064 5.60409 16.7064H12.8958C14.9093 16.7064 16.5416 15.0741 16.5416 13.0605V5.76888C16.5416 3.75534 14.9093 2.12305 12.8958 2.12305Z" stroke="#99A1AF" stroke-width="1.45833" stroke-linecap="round" stroke-linejoin="round" />
  <path d="M12.1668 8.95564C12.2568 9.56249 12.1531 10.1823 11.8706 10.7268C11.588 11.2713 11.1409 11.7129 10.593 11.9887C10.045 12.2646 9.42398 12.3606 8.81829 12.2631C8.2126 12.1656 7.65306 11.8797 7.21927 11.4459C6.78547 11.0121 6.4995 10.4525 6.40204 9.84684C6.30457 9.24115 6.40058 8.62015 6.67639 8.07216C6.95221 7.52418 7.39379 7.07712 7.93833 6.79457C8.48287 6.51201 9.10264 6.40836 9.70949 6.49835C10.3285 6.59014 10.9016 6.87858 11.3441 7.32107C11.7865 7.76356 12.075 8.33663 12.1668 8.95564Z" stroke="#99A1AF" stroke-width="1.45833" stroke-linecap="round" stroke-linejoin="round" />
  <path d="M13.2605 5.4043H13.2678" stroke="#99A1AF" stroke-width="1.45833" stroke-linecap="round" stroke-linejoin="round" />
</svg>