<svg width="18" height="19" viewBox="0 0 18 19" fill="none" xmlns="http://www.w3.org/2000/svg">
  <path d="M11.6667 6.49805C12.8271 6.49805 13.9399 6.95898 14.7603 7.77945C15.5808 8.59993 16.0417 9.71272 16.0417 10.873V15.9772H13.1251V10.873C13.1251 10.4863 12.9714 10.1153 12.6979 9.84185C12.4245 9.56836 12.0535 9.41471 11.6667 9.41471C11.28 9.41471 10.909 9.56836 10.6356 9.84185C10.3621 10.1153 10.2084 10.4863 10.2084 10.873V15.9772H7.29175V10.873C7.29175 9.71272 7.75268 8.59993 8.57316 7.77945C9.39363 6.95898 10.5064 6.49805 11.6667 6.49805Z" stroke="#99A1AF" stroke-width="1.45833" stroke-linecap="round" stroke-linejoin="round" />
  <path d="M4.37492 7.22754H1.45825V15.9775H4.37492V7.22754Z" stroke="#99A1AF" stroke-width="1.45833" stroke-linecap="round" stroke-linejoin="round" />
  <path d="M2.91659 5.03971C3.722 5.03971 4.37492 4.3868 4.37492 3.58138C4.37492 2.77596 3.722 2.12305 2.91659 2.12305C2.11117 2.12305 1.45825 2.77596 1.45825 3.58138C1.45825 4.3868 2.11117 5.03971 2.91659 5.03971Z" stroke="#99A1AF" stroke-width="1.45833" stroke-linecap="round" stroke-linejoin="round" />
</svg>