<svg width="126" height="52" viewBox="0 0 126 52" fill="none" xmlns="http://www.w3.org/2000/svg">
  <path fill-rule="evenodd" clip-rule="evenodd" d="M0.046875 18.196V29.2333L0.675269 28.4938C3.31221 25.3908 4.38743 24.318 5.82406 23.357C7.30137 22.3689 8.40634 21.8781 10.2181 21.4055C10.9933 21.2033 11.3532 21.1917 18.6689 21.1344C27.1967 21.0676 26.5141 21.1298 27.3865 20.3416C28.0317 19.7587 28.321 19.0963 28.326 18.1902C28.3296 17.5598 28.2851 17.3455 28.0629 16.9251C27.7448 16.323 27.2864 15.8704 26.6642 15.5445L26.2088 15.3058L18.6183 15.2496C11.28 15.1951 11.0006 15.186 10.2091 14.9766C8.57101 14.5432 7.07558 13.8399 5.62316 12.8196C4.56322 12.075 2.72491 10.2495 1.36256 8.58835C0.72243 7.80794 0.164578 7.167 0.12278 7.16406C0.0809817 7.16113 0.046875 12.1255 0.046875 18.196ZM26.7148 29.2327C26.4365 29.2726 23.3624 29.3116 19.8834 29.3195L13.558 29.3338L14.317 29.5604C15.3939 29.8819 16.4853 30.4899 17.2205 31.1777C17.6316 31.5623 18.9617 33.2822 21.0173 36.0873C22.7576 38.4621 24.3563 40.5962 24.5703 40.8297C25.0853 41.3918 25.8162 41.8503 26.5722 42.0856C27.1401 42.2624 27.5608 42.2774 31.9468 42.2774C35.9044 42.2774 36.6966 42.2543 36.6528 42.1405C36.624 42.0653 35.4672 40.4371 34.0822 38.5223C32.6973 36.6077 30.619 33.7332 29.4638 32.1346C28.3087 30.536 27.3315 29.2128 27.2922 29.1941C27.253 29.1754 26.9932 29.1928 26.7148 29.2327ZM4.37387 33.677C2.14965 34.2389 0.652698 36.5014 1.0467 38.706C1.21976 39.6743 1.53482 40.3023 2.21736 41.0396C3.56431 42.4943 5.52722 42.8577 7.37313 41.9939C9.84358 40.8378 10.6472 37.6369 9.02087 35.4303C8.49986 34.7233 8.06396 34.3764 7.17365 33.9597C6.6248 33.7029 6.35539 33.6427 5.63085 33.6148C5.148 33.5963 4.58235 33.6242 4.37387 33.677Z" fill="#B5B5B5" />
  <path fill-rule="evenodd" clip-rule="evenodd" d="M0.101207 7.11465C0.177517 7.21191 0.876411 8.00448 1.52353 8.78387C4.26329 12.0834 6.42101 13.8077 9.35075 14.7558C10.888 15.2533 11.3836 15.3124 18.8642 15.3124C26.9368 15.3124 26.3535 15.2618 27.436 16.1222C27.8726 16.5584 28.0472 16.8233 28.1697 17.236C28.4982 18.342 28.2908 19.2576 27.5207 20.1001C26.594 21.114 27.3474 20.972 18.4702 21.0812C12.1954 21.0812 10.5255 21.1551 9.77035 21.4741C8.58239 21.8073 7.39645 22.3121 6.42861 22.8967C4.75526 23.9074 3.73412 24.7822 1.61931 27.2548C0.809957 28.2011 0.093374 29.0823 0.00795559 29.1518C-0.116529 29.2533 1.18215 29.2786 6.57708 29.2798C25.6038 29.284 25.8689 29.2819 27.0282 29.1202C31.4649 28.5014 35.1318 25.2597 36.2211 20.9933C36.8864 18.3877 36.6381 15.7454 35.5069 13.393C34.8825 12.0947 34.3526 11.3418 33.3641 10.348C32.0707 9.04782 30.6343 8.17754 28.7757 7.56818C27.0785 7.01174 27.1461 7.01407 13.0613 7.01347C0.70618 7.01286 -0.0309692 6.94634 0.101207 7.11465Z" fill="#FCBF09" />
  <path d="M21.5977 15.8217C21.5977 15.5513 21.8169 15.332 22.0874 15.332H26.5813C28.021 15.332 29.1882 16.4991 29.1882 17.9389C29.1882 19.6516 27.7997 21.0401 26.0869 21.0401H22.0136C21.7839 21.0401 21.5977 20.8539 21.5977 20.6242V15.8217Z" fill="#B5B5B5" />
  <path d="M45.5784 22.377C45.1333 21.9362 45.0661 17.4648 45.4982 17.037C45.7023 16.835 47.9334 16.7841 54.6776 16.8278L63.5875 16.8852L63.6507 19.5264C63.7054 21.8181 63.6631 22.204 63.33 22.4453C63.0369 22.6574 60.9338 22.7231 54.437 22.7231C46.9983 22.7231 45.8841 22.6794 45.5784 22.377Z" fill="#B5B5B5" />
  <path d="M69.0891 29.5522C69.0553 23.07 69.0822 17.5433 69.1489 17.2708C69.2664 16.7912 69.3566 16.7751 71.9235 16.7751C73.4015 16.7751 74.6356 16.87 74.7102 16.9892C74.7836 17.1071 74.8377 21.3202 74.8301 26.3518L74.8163 35.5002H80.7846C85.1299 35.5002 86.8254 35.572 87.0199 35.7645C87.4178 36.1584 87.3857 40.8725 86.9827 41.2034C86.7646 41.3827 84.1989 41.4369 77.9146 41.3957L69.1507 41.338L69.0891 29.5522Z" fill="#B5B5B5" />
  <path d="M92.236 29.3319C92.2042 22.7286 92.2262 17.202 92.2847 17.0505C92.4483 16.6273 97.6606 16.6636 97.9016 17.0897C97.9995 17.2626 98.0296 22.7891 97.9684 29.3711L97.8571 41.338H95.0755H92.2938L92.236 29.3319Z" fill="#B5B5B5" />
  <path d="M45.2288 33.8195C45.2288 27.659 45.275 26.6741 45.5784 26.3736C45.8808 26.0744 46.8316 26.0275 52.6027 26.0275C56.7783 26.0275 59.4386 26.113 59.7079 26.2555C60.0949 26.4606 60.1383 26.7375 60.1383 29.0015C60.1383 31.2654 60.0949 31.5424 59.7079 31.7475C59.4566 31.8805 57.603 31.9755 55.2573 31.9755H51.2371V33.7378V35.5002H57.2009C61.5426 35.5002 63.2372 35.572 63.4317 35.7645C63.6088 35.9399 63.6987 36.8951 63.6987 38.6048C63.6987 40.7505 63.64 41.203 63.3467 41.3144C63.1531 41.388 59.1175 41.4481 54.3787 41.4481C47.9741 41.4481 45.6943 41.3803 45.4958 41.1838C45.2991 40.989 45.2288 39.048 45.2288 33.8195Z" fill="#B5B5B5" />
</svg>