<svg width="26" height="22" viewBox="0 0 26 22" fill="none" xmlns="http://www.w3.org/2000/svg">
<mask id="path-1-outside-1_4555_34180" maskUnits="userSpaceOnUse" x="0" y="0" width="26" height="22" fill="black">
<rect fill="white" width="26" height="22"/>
<path fill-rule="evenodd" clip-rule="evenodd" d="M15.3263 4.72501C13.3559 5.53412 9.41795 7.20887 3.51239 9.74906C2.55341 10.1256 2.05107 10.4938 2.00533 10.854C1.92804 11.4626 2.70009 11.7023 3.7514 12.0287C3.8944 12.0731 4.04257 12.1191 4.19448 12.1678C5.22881 12.4998 6.62015 12.8881 7.34347 12.9036C7.99957 12.9174 8.73186 12.6505 9.54034 12.1023C15.0581 8.42503 17.9064 6.56643 18.0853 6.52643C18.2113 6.49814 18.3862 6.46261 18.5046 6.56664C18.6232 6.67045 18.6115 6.86722 18.599 6.92019C18.5224 7.24205 15.4919 10.0237 13.9235 11.463C13.4347 11.9119 13.0878 12.2301 13.0169 12.3029C12.8581 12.4656 12.6964 12.6198 12.5408 12.7679C11.5799 13.6824 10.8592 14.3682 12.5807 15.488C13.4079 16.0262 14.0698 16.4713 14.7303 16.9154C15.4514 17.4003 16.1708 17.8838 17.1014 18.4862C17.3386 18.6396 17.5652 18.7992 17.7856 18.9542C18.6249 19.545 19.3791 20.0757 20.3106 19.9911C20.852 19.9419 21.411 19.4395 21.695 17.9408C22.3662 14.3987 23.6854 6.72427 23.9903 3.56174C24.0169 3.28469 23.9832 2.93007 23.9564 2.77442C23.9293 2.61876 23.873 2.39697 23.668 2.23279C23.4253 2.03836 23.0507 1.99736 22.883 2.00013C22.1212 2.01353 20.9521 2.41482 15.3263 4.72501Z"/>
</mask>
<path fill-rule="evenodd" clip-rule="evenodd" d="M15.3263 4.72501C13.3559 5.53412 9.41795 7.20887 3.51239 9.74906C2.55341 10.1256 2.05107 10.4938 2.00533 10.854C1.92804 11.4626 2.70009 11.7023 3.7514 12.0287C3.8944 12.0731 4.04257 12.1191 4.19448 12.1678C5.22881 12.4998 6.62015 12.8881 7.34347 12.9036C7.99957 12.9174 8.73186 12.6505 9.54034 12.1023C15.0581 8.42503 17.9064 6.56643 18.0853 6.52643C18.2113 6.49814 18.3862 6.46261 18.5046 6.56664C18.6232 6.67045 18.6115 6.86722 18.599 6.92019C18.5224 7.24205 15.4919 10.0237 13.9235 11.463C13.4347 11.9119 13.0878 12.2301 13.0169 12.3029C12.8581 12.4656 12.6964 12.6198 12.5408 12.7679C11.5799 13.6824 10.8592 14.3682 12.5807 15.488C13.4079 16.0262 14.0698 16.4713 14.7303 16.9154C15.4514 17.4003 16.1708 17.8838 17.1014 18.4862C17.3386 18.6396 17.5652 18.7992 17.7856 18.9542C18.6249 19.545 19.3791 20.0757 20.3106 19.9911C20.852 19.9419 21.411 19.4395 21.695 17.9408C22.3662 14.3987 23.6854 6.72427 23.9903 3.56174C24.0169 3.28469 23.9832 2.93007 23.9564 2.77442C23.9293 2.61876 23.873 2.39697 23.668 2.23279C23.4253 2.03836 23.0507 1.99736 22.883 2.00013C22.1212 2.01353 20.9521 2.41482 15.3263 4.72501Z" stroke="#B5B5B5" stroke-width="4" mask="url(#path-1-outside-1_4555_34180)"/>
</svg>
