<svg width="16" height="17" viewBox="0 0 16 17" fill="none" xmlns="http://www.w3.org/2000/svg">
  <path fill-rule="evenodd" clip-rule="evenodd" d="M14.5 7.07513V5.05428L14.4999 4.50775C13.8319 4.50877 13.1771 4.32087 12.6104 3.96525C11.7664 3.43582 11.1583 2.56234 10.98 1.54002C10.963 1.44236 10.95 1.34411 10.9409 1.24537V0.915039H8.37215V11.1695C8.36799 12.3647 7.40314 13.3327 6.21295 13.3327C5.87555 13.3332 5.54275 13.2538 5.24144 13.1011C4.53691 12.7436 4.05365 12.0097 4.05365 11.1621C4.05365 9.96329 5.02027 8.99135 6.21295 8.99135C6.44141 8.99135 6.66175 9.02717 6.86823 9.09305V7.0501L6.86833 6.46848C6.65369 6.43896 6.43729 6.4242 6.22065 6.42428C3.61349 6.42407 1.5 8.54871 1.5 11.1695C1.5 12.8125 2.33053 14.2607 3.59278 15.1125C4.36975 15.6372 5.28479 15.9166 6.22066 15.915C8.82761 15.915 10.941 13.7904 10.941 11.1695L10.9409 5.93028C11.9443 6.65106 13.1729 7.07513 14.5 7.07513Z" stroke="#99A1AF" stroke-width="1.46" />
</svg>