<svg width="56" height="57" viewBox="0 0 56 57" fill="none" xmlns="http://www.w3.org/2000/svg">
<rect y="0.100098" width="56" height="56" rx="28" fill="#DBEAFE"/>
<path d="M39.6667 19.0259H16.3334C14.7226 19.0259 13.4167 20.3801 13.4167 22.0506V34.1493C13.4167 35.8198 14.7226 37.174 16.3334 37.174H39.6667C41.2776 37.174 42.5834 35.8198 42.5834 34.1493V22.0506C42.5834 20.3801 41.2776 19.0259 39.6667 19.0259Z" stroke="#155DFC" stroke-width="2.91667" stroke-linecap="round" stroke-linejoin="round"/>
<path d="M27.9999 31.1251C29.6107 31.1251 30.9166 29.7709 30.9166 28.1004C30.9166 26.4299 29.6107 25.0757 27.9999 25.0757C26.3891 25.0757 25.0833 26.4299 25.0833 28.1004C25.0833 29.7709 26.3891 31.1251 27.9999 31.1251Z" stroke="#155DFC" stroke-width="2.91667" stroke-linecap="round" stroke-linejoin="round"/>
<path d="M19.25 28.1001H19.2646M36.75 28.1001H36.7646" stroke="#155DFC" stroke-width="2.91667" stroke-linecap="round" stroke-linejoin="round"/>
</svg>
