<svg width="56" height="57" viewBox="0 0 56 57" fill="none" xmlns="http://www.w3.org/2000/svg">
<rect y="0.100098" width="56" height="56" rx="28" fill="#DBEAFE"/>
<path d="M18.6667 30.4332C18.446 30.434 18.2295 30.3721 18.0425 30.2547C17.8555 30.1373 17.7057 29.9693 17.6104 29.7701C17.5151 29.571 17.4782 29.3489 17.5042 29.1296C17.5301 28.9104 17.6176 28.703 17.7567 28.5315L29.3067 16.6315C29.3934 16.5315 29.5114 16.464 29.6416 16.4399C29.7717 16.4158 29.9061 16.4367 30.0228 16.4991C30.1394 16.5615 30.2314 16.6618 30.2836 16.7833C30.3358 16.9049 30.3452 17.0406 30.3101 17.1682L28.0701 24.1915C28.004 24.3683 27.9818 24.5585 28.0054 24.7457C28.029 24.933 28.0977 25.1117 28.2055 25.2665C28.3133 25.4214 28.4571 25.5478 28.6246 25.6349C28.792 25.722 28.978 25.7672 29.1667 25.7665H37.3334C37.5542 25.7658 37.7706 25.8277 37.9576 25.9451C38.1446 26.0624 38.2945 26.2305 38.3898 26.4296C38.4851 26.6288 38.5219 26.8509 38.496 27.0701C38.4701 27.2894 38.3825 27.4968 38.2434 27.6682L26.6934 39.5682C26.6068 39.6682 26.4887 39.7358 26.3586 39.7599C26.2285 39.7839 26.0941 39.763 25.9774 39.7006C25.8607 39.6382 25.7687 39.538 25.7165 39.4164C25.6643 39.2948 25.655 39.1591 25.6901 39.0315L27.9301 32.0082C27.9961 31.8314 28.0183 31.6413 27.9947 31.454C27.9711 31.2668 27.9025 31.0881 27.7946 30.9332C27.6868 30.7783 27.543 30.6519 27.3756 30.5649C27.2082 30.4778 27.0221 30.4326 26.8334 30.4332H18.6667Z" stroke="#155DFC" stroke-width="2.33333" stroke-linecap="round" stroke-linejoin="round"/>
</svg>
