<svg width="56" height="57" viewBox="0 0 56 57" fill="none" xmlns="http://www.w3.org/2000/svg">
<rect y="0.100098" width="56" height="56" rx="28" fill="#DBEAFE"/>
<path d="M27.9999 39.7669C34.4432 39.7669 39.6666 34.5436 39.6666 28.1003C39.6666 21.6569 34.4432 16.4336 27.9999 16.4336C21.5566 16.4336 16.3333 21.6569 16.3333 28.1003C16.3333 34.5436 21.5566 39.7669 27.9999 39.7669Z" stroke="#155DFC" stroke-width="2.33333" stroke-linecap="round" stroke-linejoin="round"/>
<path d="M27.9999 16.4336C25.0042 19.5791 23.3333 23.7565 23.3333 28.1003C23.3333 32.4441 25.0042 36.6214 27.9999 39.7669C30.9956 36.6214 32.6666 32.4441 32.6666 28.1003C32.6666 23.7565 30.9956 19.5791 27.9999 16.4336Z" stroke="#155DFC" stroke-width="2.33333" stroke-linecap="round" stroke-linejoin="round"/>
<path d="M16.3333 28.1001H39.6666" stroke="#155DFC" stroke-width="2.33333" stroke-linecap="round" stroke-linejoin="round"/>
</svg>
