<svg width="22" height="21" viewBox="0 0 22 21" fill="none" xmlns="http://www.w3.org/2000/svg">
  <path d="M4.00005 12.25C3.83447 12.2506 3.67213 12.2041 3.53189 12.1161C3.39165 12.0281 3.27926 11.9021 3.20779 11.7527C3.13631 11.6033 3.10869 11.4368 3.12812 11.2723C3.14755 11.1079 3.21324 10.9523 3.31755 10.8238L11.9801 1.89876C12.045 1.82375 12.1336 1.77307 12.2312 1.75502C12.3287 1.73698 12.4296 1.75264 12.5171 1.79945C12.6046 1.84625 12.6736 1.92141 12.7127 2.0126C12.7519 2.10378 12.7589 2.20557 12.7326 2.30126L11.0526 7.56876C11.003 7.70134 10.9864 7.84396 11.0041 7.98439C11.0218 8.12481 11.0733 8.25885 11.1541 8.375C11.235 8.49116 11.3429 8.58596 11.4684 8.65127C11.594 8.71659 11.7335 8.75047 11.8751 8.75001H18.0001C18.1656 8.74944 18.328 8.79587 18.4682 8.8839C18.6085 8.97193 18.7209 9.09794 18.7923 9.24731C18.8638 9.39667 18.8914 9.56324 18.872 9.72768C18.8526 9.89212 18.7869 10.0477 18.6826 10.1763L10.0201 19.1013C9.95508 19.1763 9.86653 19.2269 9.76895 19.245C9.67136 19.263 9.57055 19.2474 9.48304 19.2006C9.39554 19.1538 9.32654 19.0786 9.28739 18.9874C9.24823 18.8962 9.24124 18.7944 9.26755 18.6988L10.9476 13.4313C10.9971 13.2987 11.0137 13.1561 10.996 13.0156C10.9783 12.8752 10.9269 12.7412 10.846 12.625C10.7651 12.5089 10.6573 12.4141 10.5317 12.3487C10.4061 12.2834 10.2666 12.2495 10.1251 12.25H4.00005Z" stroke="#0A0A0A" stroke-width="1.75" stroke-linecap="round" stroke-linejoin="round" />
</svg>