<svg width="25" height="23" viewBox="0 0 25 23" fill="none" xmlns="http://www.w3.org/2000/svg">
<path d="M16.7275 22H7.42607" stroke="black" stroke-width="2" stroke-linecap="round"/>
<path d="M8.36011 1.16675L16.6401 1.16675" stroke="black" stroke-width="2" stroke-linecap="round"/>
<path d="M8.36011 3.16675L8.36011 1.16675" stroke="black" stroke-width="2" stroke-linecap="round"/>
<path d="M8.27236 22C5.93733 22 5.7356 20.3835 5.7356 19.0052" stroke="black" stroke-width="2"/>
<path d="M16.7281 22C19.0632 22 19.2649 20.3835 19.2649 19.0052" stroke="black" stroke-width="2"/>
<path d="M18.5879 8.66675L19.2644 19.5001" stroke="black" stroke-width="2" stroke-linecap="round"/>
<path d="M24 17.8335L19.9412 17.8335" stroke="black" stroke-width="2" stroke-linecap="round"/>
<path d="M6.41187 8.66675L5.73539 19.5001" stroke="black" stroke-width="2" stroke-linecap="round"/>
<path d="M1.00024 17.8335L5.05907 17.8335" stroke="black" stroke-width="2" stroke-linecap="round"/>
<path d="M8.36024 3.16669C2.18539 3.16669 1.00024 11.1217 1.00024 17.8335" stroke="black" stroke-width="2" stroke-linecap="round"/>
<path d="M16.6399 3.16675L16.6399 1.16675" stroke="black" stroke-width="2" stroke-linecap="round"/>
<path d="M16.64 3.16669C22.8149 3.16669 24 11.1217 24 17.8335" stroke="black" stroke-width="2" stroke-linecap="round"/>
</svg>
