<svg width="28" height="29" viewBox="0 0 28 29" fill="none" xmlns="http://www.w3.org/2000/svg">
  <path d="M18.6666 4C18.0477 4 17.4543 4.24583 17.0167 4.68342C16.5791 5.121 16.3333 5.71449 16.3333 6.33333V13.3333C16.3333 13.9522 16.5791 14.5457 17.0167 14.9832C17.4543 15.4208 18.0477 15.6667 18.6666 15.6667C18.976 15.6667 19.2728 15.7896 19.4915 16.0084C19.7103 16.2272 19.8333 16.5239 19.8333 16.8333V18C19.8333 18.6188 19.5874 19.2123 19.1498 19.6499C18.7122 20.0875 18.1188 20.3333 17.4999 20.3333C17.1905 20.3333 16.8938 20.4562 16.675 20.675C16.4562 20.8938 16.3333 21.1906 16.3333 21.5V23.8333C16.3333 24.1428 16.4562 24.4395 16.675 24.6583C16.8938 24.8771 17.1905 25 17.4999 25C19.3564 25 21.1369 24.2625 22.4497 22.9497C23.7624 21.637 24.4999 19.8565 24.4999 18V6.33333C24.4999 5.71449 24.2541 5.121 23.8165 4.68342C23.3789 4.24583 22.7854 4 22.1666 4H18.6666Z" stroke="#EFB100" stroke-width="2.33333" stroke-linecap="round" stroke-linejoin="round" />
  <path d="M5.83333 4C5.21449 4 4.621 4.24583 4.18342 4.68342C3.74583 5.121 3.5 5.71449 3.5 6.33333V13.3333C3.5 13.9522 3.74583 14.5457 4.18342 14.9832C4.621 15.4208 5.21449 15.6667 5.83333 15.6667C6.14275 15.6667 6.4395 15.7896 6.65829 16.0084C6.87708 16.2272 7 16.5239 7 16.8333V18C7 18.6188 6.75417 19.2123 6.31658 19.6499C5.879 20.0875 5.28551 20.3333 4.66667 20.3333C4.35725 20.3333 4.0605 20.4562 3.84171 20.675C3.62292 20.8938 3.5 21.1906 3.5 21.5V23.8333C3.5 24.1428 3.62292 24.4395 3.84171 24.6583C4.0605 24.8771 4.35725 25 4.66667 25C6.52318 25 8.30366 24.2625 9.61641 22.9497C10.9292 21.637 11.6667 19.8565 11.6667 18V6.33333C11.6667 5.71449 11.4208 5.121 10.9832 4.68342C10.5457 4.24583 9.95217 4 9.33333 4H5.83333Z" stroke="#EFB100" stroke-width="2.33333" stroke-linecap="round" stroke-linejoin="round" />
</svg>