<svg width="14" height="15" viewBox="0 0 14 15" fill="none" xmlns="http://www.w3.org/2000/svg">
  <path d="M6.72283 2.11831C6.74839 2.06666 6.78788 2.02319 6.83684 1.99279C6.8858 1.9624 6.94228 1.94629 6.99991 1.94629C7.05754 1.94629 7.11402 1.9624 7.16298 1.99279C7.21194 2.02319 7.25143 2.06666 7.27699 2.11831L8.62449 4.84773C8.71326 5.02737 8.8443 5.1828 9.00636 5.30066C9.16842 5.41852 9.35665 5.49529 9.55491 5.52439L12.5684 5.96539C12.6255 5.97367 12.6792 5.99775 12.7233 6.03493C12.7674 6.0721 12.8002 6.12088 12.8181 6.17575C12.8359 6.23061 12.8381 6.28938 12.8243 6.3454C12.8104 6.40142 12.7812 6.45245 12.7399 6.49273L10.5606 8.61489C10.4169 8.75495 10.3093 8.92784 10.2472 9.11868C10.1851 9.30951 10.1704 9.51258 10.2042 9.71039L10.7187 12.7087C10.7287 12.7658 10.7226 12.8246 10.7009 12.8783C10.6792 12.932 10.6428 12.9786 10.5959 13.0126C10.549 13.0467 10.4935 13.0669 10.4357 13.0709C10.3778 13.0749 10.3201 13.0626 10.2689 13.0354L7.57508 11.6191C7.39758 11.5259 7.2001 11.4772 6.99962 11.4772C6.79914 11.4772 6.60166 11.5259 6.42416 11.6191L3.73091 13.0354C3.67977 13.0625 3.62206 13.0746 3.56434 13.0705C3.50662 13.0664 3.45121 13.0462 3.40442 13.0122C3.35762 12.9782 3.32131 12.9317 3.29963 12.878C3.27794 12.8244 3.27174 12.7657 3.28174 12.7087L3.79566 9.71098C3.82961 9.51307 3.8149 9.30988 3.75281 9.11892C3.69071 8.92797 3.5831 8.75498 3.43924 8.61489L1.25991 6.49331C1.21826 6.45308 1.18874 6.40196 1.17472 6.34577C1.1607 6.28958 1.16275 6.23059 1.18062 6.1755C1.1985 6.12042 1.23148 6.07147 1.27582 6.03422C1.32016 5.99697 1.37407 5.97292 1.43141 5.96481L4.44433 5.52439C4.64281 5.49552 4.8313 5.41884 4.99358 5.30097C5.15586 5.18309 5.28707 5.02755 5.37591 4.84773L6.72283 2.11831Z" fill="#FCC800" stroke="#FCC800" stroke-width="1.16667" stroke-linecap="round" stroke-linejoin="round" />
</svg>