<svg width="20" height="20" viewBox="0 0 20 20" fill="none" xmlns="http://www.w3.org/2000/svg">
  <g clip-path="url(#clip0_7051_68661)">
    <path d="M18.1673 8.33357C18.5479 10.2013 18.2767 12.1431 17.3989 13.8351C16.5211 15.527 15.0897 16.8669 13.3436 17.6313C11.5975 18.3957 9.64203 18.5384 7.80342 18.0355C5.96482 17.5327 4.35417 16.4147 3.24007 14.8681C2.12597 13.3214 1.57577 11.4396 1.68123 9.53639C1.78668 7.63318 2.5414 5.82364 3.81955 4.40954C5.09769 2.99545 6.82199 2.06226 8.70489 1.76561C10.5878 1.46897 12.5155 1.82679 14.1665 2.7794" stroke="#00A63E" stroke-width="1.66667" stroke-linecap="round" stroke-linejoin="round" />
    <path d="M7.5 9.16683L10 11.6668L18.3333 3.3335" stroke="#00A63E" stroke-width="1.66667" stroke-linecap="round" stroke-linejoin="round" />
  </g>
  <defs>
    <clipPath id="clip0_7051_68661">
      <rect width="20" height="20" fill="white" />
    </clipPath>
  </defs>
</svg>