<svg width="20" height="20" viewBox="0 0 20 20" fill="none" xmlns="http://www.w3.org/2000/svg">
  <path d="M12.5 1.6665H4.99998C4.55795 1.6665 4.13403 1.8421 3.82147 2.15466C3.50891 2.46722 3.33331 2.89114 3.33331 3.33317V16.6665C3.33331 17.1085 3.50891 17.5325 3.82147 17.845C4.13403 18.1576 4.55795 18.3332 4.99998 18.3332H15C15.442 18.3332 15.8659 18.1576 16.1785 17.845C16.4911 17.5325 16.6666 17.1085 16.6666 16.6665V5.83317L12.5 1.6665Z" stroke="#E7000B" stroke-width="1.66667" stroke-linecap="round" stroke-linejoin="round" />
  <path d="M11.6667 1.6665V4.99984C11.6667 5.44186 11.8423 5.86579 12.1548 6.17835C12.4674 6.49091 12.8913 6.6665 13.3334 6.6665H16.6667" stroke="#E7000B" stroke-width="1.66667" stroke-linecap="round" stroke-linejoin="round" />
  <path d="M8.33335 7.5H6.66669" stroke="#E7000B" stroke-width="1.66667" stroke-linecap="round" stroke-linejoin="round" />
  <path d="M13.3334 10.8335H6.66669" stroke="#E7000B" stroke-width="1.66667" stroke-linecap="round" stroke-linejoin="round" />
  <path d="M13.3334 14.1665H6.66669" stroke="#E7000B" stroke-width="1.66667" stroke-linecap="round" stroke-linejoin="round" />
</svg>