<svg width="36" height="36" viewBox="0 0 36 36" fill="none" xmlns="http://www.w3.org/2000/svg">
<path d="M0 0H36V36H0V0Z" fill="#F3F4F6"/>
<path d="M18.0001 26.3332C22.6025 26.3332 26.3334 22.6022 26.3334 17.9998C26.3334 13.3975 22.6025 9.6665 18.0001 9.6665C13.3977 9.6665 9.66675 13.3975 9.66675 17.9998C9.66675 22.6022 13.3977 26.3332 18.0001 26.3332Z" stroke="#364153" stroke-width="1.66667" stroke-linecap="round" stroke-linejoin="round"/>
<path d="M15.575 15.5C15.7709 14.943 16.1576 14.4734 16.6666 14.1743C17.1756 13.8751 17.774 13.7658 18.3559 13.8656C18.9378 13.9654 19.4656 14.2679 19.8458 14.7196C20.2261 15.1713 20.4342 15.7429 20.4333 16.3333C20.4333 18 17.9333 18.8333 17.9333 18.8333" stroke="#364153" stroke-width="1.66667" stroke-linecap="round" stroke-linejoin="round"/>
<path d="M18 22.1665H18.0083" stroke="#364153" stroke-width="1.66667" stroke-linecap="round" stroke-linejoin="round"/>
</svg>
