<svg width="21" height="21" viewBox="0 0 21 21" fill="none" xmlns="http://www.w3.org/2000/svg">
<path fill-rule="evenodd" clip-rule="evenodd" d="M18.9414 10.978C18.9414 13.0998 18.0986 15.1346 16.5983 16.6349C15.098 18.1352 13.0631 18.978 10.9414 18.978C8.81967 18.978 6.78484 18.1352 5.28455 16.6349C3.78426 15.1346 2.94141 13.0998 2.94141 10.978C2.94141 8.8563 3.78426 6.82146 5.28455 5.32117C6.78484 3.82088 8.81967 2.97803 10.9414 2.97803C13.0631 2.97803 15.098 3.82088 16.5983 5.32117C18.0986 6.82146 18.9414 8.8563 18.9414 10.978ZM7.94141 8.97803C7.94141 8.71281 8.04676 8.45846 8.2343 8.27092C8.42184 8.08338 8.67619 7.97803 8.94141 7.97803C9.20662 7.97803 9.46098 8.08338 9.64851 8.27092C9.83605 8.45846 9.94141 8.71281 9.94141 8.97803V12.978C9.94141 13.2432 9.83605 13.4976 9.64851 13.6851C9.46098 13.8727 9.20662 13.978 8.94141 13.978C8.67619 13.978 8.42184 13.8727 8.2343 13.6851C8.04676 13.4976 7.94141 13.2432 7.94141 12.978V8.97803ZM12.9414 7.97803C12.6762 7.97803 12.4218 8.08338 12.2343 8.27092C12.0468 8.45846 11.9414 8.71281 11.9414 8.97803V12.978C11.9414 13.2432 12.0468 13.4976 12.2343 13.6851C12.4218 13.8727 12.6762 13.978 12.9414 13.978C13.2066 13.978 13.461 13.8727 13.6485 13.6851C13.836 13.4976 13.9414 13.2432 13.9414 12.978V8.97803C13.9414 8.71281 13.836 8.45846 13.6485 8.27092C13.461 8.08338 13.2066 7.97803 12.9414 7.97803Z" fill="white"/>
</svg>
