<svg width="21" height="21" viewBox="0 0 21 21" fill="none" xmlns="http://www.w3.org/2000/svg">
<path fill-rule="evenodd" clip-rule="evenodd" d="M9.7248 3.5599C9.90748 3.63565 10.0636 3.76386 10.1734 3.92833C10.2833 4.0928 10.3418 4.28614 10.3418 4.4839V16.4839C10.3418 16.6817 10.2831 16.875 10.1732 17.0394C10.0633 17.2038 9.90715 17.3319 9.72445 17.4076C9.54175 17.4833 9.34072 17.5031 9.14677 17.4645C8.95281 17.4259 8.77465 17.3307 8.6348 17.1909L4.9278 13.4839H2.3418C2.07658 13.4839 1.82223 13.3785 1.63469 13.191C1.44715 13.0035 1.3418 12.7491 1.3418 12.4839V8.4839C1.3418 8.21869 1.44715 7.96433 1.63469 7.7768C1.82223 7.58926 2.07658 7.4839 2.3418 7.4839H4.9278L8.6348 3.7769C8.77464 3.63697 8.95285 3.54166 9.14687 3.50303C9.3409 3.46441 9.54202 3.4842 9.7248 3.5599ZM14.9988 3.4129C15.1863 3.22543 15.4406 3.12012 15.7058 3.12012C15.971 3.12012 16.2253 3.22543 16.4128 3.4129C17.3426 4.34056 18.08 5.44276 18.5827 6.65621C19.0853 7.86967 19.3433 9.17047 19.3418 10.4839C19.3433 11.7973 19.0853 13.0981 18.5827 14.3116C18.08 15.525 17.3426 16.6273 16.4128 17.5549C16.2242 17.7371 15.9716 17.8379 15.7094 17.8356C15.4472 17.8333 15.1964 17.7281 15.011 17.5427C14.8256 17.3573 14.7204 17.1065 14.7181 16.8443C14.7158 16.5821 14.8166 16.3295 14.9988 16.1409C15.7429 15.399 16.333 14.5172 16.7351 13.5464C17.1372 12.5755 17.3434 11.5347 17.3418 10.4839C17.3418 8.2739 16.4478 6.2759 14.9988 4.8269C14.8113 4.63938 14.706 4.38507 14.706 4.1199C14.706 3.85474 14.8113 3.60043 14.9988 3.4129ZM12.1698 6.2409C12.2627 6.14793 12.373 6.07417 12.4944 6.02384C12.6158 5.97352 12.7459 5.94762 12.8773 5.94762C13.0087 5.94762 13.1388 5.97352 13.2602 6.02384C13.3816 6.07417 13.4919 6.14793 13.5848 6.2409C14.1427 6.79757 14.5851 7.45897 14.8866 8.18711C15.1881 8.91526 15.3428 9.6958 15.3418 10.4839C15.3428 11.272 15.188 12.0525 14.8865 12.7807C14.585 13.5088 14.1426 14.1702 13.5848 14.7269C13.3972 14.9145 13.1427 15.02 12.8773 15.02C12.6119 15.02 12.3574 14.9145 12.1698 14.7269C11.9822 14.5393 11.8767 14.2848 11.8767 14.0194C11.8767 13.754 11.9822 13.4995 12.1698 13.3119C12.542 12.9411 12.8371 12.5003 13.0383 12.015C13.2394 11.5296 13.3426 11.0093 13.3418 10.4839C13.3426 9.95852 13.2395 9.43817 13.0383 8.95281C12.8372 8.46746 12.542 8.02669 12.1698 7.6559C12.0768 7.56303 12.0031 7.45274 11.9527 7.33134C11.9024 7.20995 11.8765 7.07982 11.8765 6.9484C11.8765 6.81699 11.9024 6.68686 11.9527 6.56546C12.0031 6.44407 12.0768 6.33378 12.1698 6.2409Z" fill="white"/>
</svg>
