<svg width="19" height="18" viewBox="0 0 19 18" fill="none" xmlns="http://www.w3.org/2000/svg">
  <path d="M1.5 1H1.74217C2.16972 1 2.38388 1 2.55826 1.07598C2.71201 1.14297 2.84347 1.25082 2.93826 1.38759C3.0456 1.54245 3.08436 1.74924 3.16172 2.16202L5.10978 12.5556L14.5148 12.5556C14.9238 12.5556 15.1289 12.5556 15.2983 12.4844C15.4479 12.4215 15.577 12.3197 15.6728 12.1902C15.7812 12.0437 15.8272 11.8477 15.9189 11.4561L15.9196 11.4533L17.3357 5.40885L17.336 5.40759C17.4752 4.81347 17.545 4.51569 17.4684 4.28212C17.4012 4.07717 17.2597 3.90342 17.0721 3.79282C16.8581 3.66667 16.5488 3.66667 15.9288 3.66667H3.75609M15.0366 17C14.5382 17 14.1341 16.602 14.1341 16.1111C14.1341 15.6202 14.5382 15.2222 15.0366 15.2222C15.535 15.2222 15.939 15.6202 15.939 16.1111C15.939 16.602 15.535 17 15.0366 17ZM6.01219 17C5.51378 17 5.10975 16.602 5.10975 16.1111C5.10975 15.6202 5.51378 15.2222 6.01219 15.2222C6.51059 15.2222 6.91462 15.6202 6.91462 16.1111C6.91462 16.602 6.51059 17 6.01219 17Z" stroke="#F5B80B" stroke-width="1.8" stroke-linecap="round" stroke-linejoin="round" />
</svg>