<svg width="17" height="18" viewBox="0 0 17 18" fill="none" xmlns="http://www.w3.org/2000/svg">
  <path d="M16 14.0626V8.63104C16 8.10791 15.9996 7.8462 15.9387 7.60277C15.8847 7.38705 15.7961 7.18291 15.6762 6.99843C15.5408 6.79026 15.3527 6.61763 14.9757 6.27315L10.4757 2.16123C9.77576 1.52165 9.42579 1.20202 9.03192 1.08038C8.68487 0.973205 8.31495 0.973205 7.96789 1.08038C7.57432 1.20193 7.22486 1.52126 6.52597 2.15988L2.02448 6.27315C1.64748 6.61764 1.45941 6.79026 1.3241 6.99843C1.20418 7.18291 1.11489 7.38705 1.06091 7.60277C1 7.8462 1 8.1079 1 8.63104V14.0626C1 14.975 1 15.431 1.14273 15.7908C1.33303 16.2706 1.6978 16.6522 2.15723 16.8509C2.5018 17 2.93862 17 3.81226 17C4.6859 17 5.1232 17 5.46777 16.8509C5.9272 16.6522 6.29188 16.2707 6.48218 15.7909C6.6249 15.431 6.625 14.9749 6.625 14.0625V13.0835C6.625 12.0021 7.46447 11.1255 8.5 11.1255C9.53553 11.1255 10.375 12.0021 10.375 13.0835V14.0625C10.375 14.9749 10.375 15.431 10.5177 15.7909C10.708 16.2707 11.0728 16.6522 11.5322 16.8509C11.8768 17 12.3136 17 13.1873 17C14.0609 17 14.4982 17 14.8428 16.8509C15.3022 16.6522 15.6669 16.2706 15.8572 15.7908C15.9999 15.431 16 14.975 16 14.0626Z" stroke="#F5B80B" stroke-width="1.8" stroke-linecap="round" stroke-linejoin="round" />
</svg>