<svg width="18" height="18" viewBox="0 0 18 18" fill="none" xmlns="http://www.w3.org/2000/svg">
  <path d="M16.5 14.0626V8.63104C16.5 8.10791 16.4996 7.8462 16.4387 7.60277C16.3847 7.38705 16.2961 7.18291 16.1762 6.99843C16.0408 6.79026 15.8527 6.61763 15.4757 6.27315L10.9757 2.16123C10.2758 1.52165 9.92579 1.20202 9.53192 1.08038C9.18487 0.973205 8.81495 0.973205 8.46789 1.08038C8.07432 1.20193 7.72486 1.52126 7.02597 2.15988L2.52448 6.27315C2.14748 6.61764 1.95941 6.79026 1.8241 6.99843C1.70418 7.18291 1.61489 7.38705 1.56091 7.60277C1.5 7.8462 1.5 8.1079 1.5 8.63104V14.0626C1.5 14.975 1.5 15.431 1.64273 15.7908C1.83303 16.2706 2.1978 16.6522 2.65723 16.8509C3.0018 17 3.43862 17 4.31226 17C5.1859 17 5.6232 17 5.96777 16.8509C6.4272 16.6522 6.79188 16.2707 6.98218 15.7909C7.1249 15.431 7.125 14.9749 7.125 14.0625V13.0835C7.125 12.0021 7.96447 11.1255 9 11.1255C10.0355 11.1255 10.875 12.0021 10.875 13.0835V14.0625C10.875 14.9749 10.875 15.431 11.0177 15.7909C11.208 16.2707 11.5728 16.6522 12.0322 16.8509C12.3768 17 12.8136 17 13.6873 17C14.5609 17 14.9982 17 15.3428 16.8509C15.8022 16.6522 16.1669 16.2706 16.3572 15.7908C16.4999 15.431 16.5 14.975 16.5 14.0626Z" stroke="#A09E96" stroke-width="1.5" stroke-linecap="round" stroke-linejoin="round" />
</svg>