<svg width="15" height="18" viewBox="0 0 15 18" fill="none" xmlns="http://www.w3.org/2000/svg">
  <path d="M0.599609 6.84162C0.599609 11.216 4.54093 14.8335 6.28546 16.2204C6.53513 16.4189 6.66146 16.5193 6.84773 16.5702C6.99277 16.6099 7.20624 16.6099 7.35129 16.5702C7.53791 16.5192 7.66335 16.4198 7.91397 16.2205C9.6585 14.8336 13.5996 11.2164 13.5996 6.84202C13.5996 5.18658 12.9148 3.59875 11.6958 2.42817C10.4768 1.2576 8.82364 0.599976 7.09972 0.599976C5.3758 0.599976 3.72242 1.2577 2.50343 2.42827C1.28443 3.59884 0.599609 5.18618 0.599609 6.84162Z" stroke="black" stroke-width="1.2" stroke-linecap="round" stroke-linejoin="round" />
  <path d="M5.24249 6.00958C5.24249 7.00546 6.07397 7.81278 7.09965 7.81278C8.12532 7.81278 8.9568 7.00546 8.9568 6.00958C8.9568 5.0137 8.12532 4.20638 7.09965 4.20638C6.07397 4.20638 5.24249 5.0137 5.24249 6.00958Z" stroke="black" stroke-width="1.2" stroke-linecap="round" stroke-linejoin="round" />
</svg>