<svg width="56" height="56" viewBox="0 0 56 56" fill="none" xmlns="http://www.w3.org/2000/svg">
<rect width="56" height="56" rx="28" fill="#DCFCE7"/>
<path d="M31.5001 16.333H21.0001C20.3812 16.333 19.7878 16.5788 19.3502 17.0164C18.9126 17.454 18.6667 18.0475 18.6667 18.6663V37.333C18.6667 37.9518 18.9126 38.5453 19.3502 38.9829C19.7878 39.4205 20.3812 39.6663 21.0001 39.6663H35.0001C35.6189 39.6663 36.2124 39.4205 36.65 38.9829C37.0876 38.5453 37.3334 37.9518 37.3334 37.333V22.1663L31.5001 16.333Z" stroke="#00A63E" stroke-width="2.33333" stroke-linecap="round" stroke-linejoin="round"/>
<path d="M30.3333 16.333V20.9997C30.3333 21.6185 30.5791 22.212 31.0167 22.6496C31.4543 23.0872 32.0477 23.333 32.6666 23.333H37.3333" stroke="#00A63E" stroke-width="2.33333" stroke-linecap="round" stroke-linejoin="round"/>
<path d="M24.5 31.5003L26.8333 33.8337L31.5 29.167" stroke="#00A63E" stroke-width="2.33333" stroke-linecap="round" stroke-linejoin="round"/>
</svg>
