<svg width="56" height="56" viewBox="0 0 56 56" fill="none" xmlns="http://www.w3.org/2000/svg">
<rect width="56" height="56" rx="28" fill="#DCFCE7"/>
<path d="M36.1667 26.833H19.8333C18.5447 26.833 17.5 27.8777 17.5 29.1663V37.333C17.5 38.6217 18.5447 39.6663 19.8333 39.6663H36.1667C37.4553 39.6663 38.5 38.6217 38.5 37.333V29.1663C38.5 27.8777 37.4553 26.833 36.1667 26.833Z" stroke="#00A63E" stroke-width="2.33333" stroke-linecap="round" stroke-linejoin="round"/>
<path d="M22.1667 26.833V22.1663C22.1667 20.6192 22.7813 19.1355 23.8753 18.0416C24.9693 16.9476 26.453 16.333 28.0001 16.333C29.5472 16.333 31.0309 16.9476 32.1249 18.0416C33.2188 19.1355 33.8334 20.6192 33.8334 22.1663V26.833" stroke="#00A63E" stroke-width="2.33333" stroke-linecap="round" stroke-linejoin="round"/>
</svg>
