<svg width="56" height="56" viewBox="0 0 56 56" fill="none" xmlns="http://www.w3.org/2000/svg">
<rect width="56" height="56" rx="28" fill="#DCFCE7"/>
<path d="M37.3334 29.1669C37.3334 35.0002 33.2501 37.9169 28.3967 39.6085C28.1426 39.6947 27.8665 39.6905 27.6151 39.5969C22.7501 37.9169 18.6667 35.0002 18.6667 29.1669V21.0002C18.6667 20.6908 18.7897 20.394 19.0085 20.1752C19.2272 19.9564 19.524 19.8335 19.8334 19.8335C22.1667 19.8335 25.0834 18.4335 27.1134 16.6602C27.3606 16.449 27.675 16.333 28.0001 16.333C28.3252 16.333 28.6396 16.449 28.8867 16.6602C30.9284 18.4452 33.8334 19.8335 36.1667 19.8335C36.4762 19.8335 36.7729 19.9564 36.9917 20.1752C37.2105 20.394 37.3334 20.6908 37.3334 21.0002V29.1669Z" stroke="#00A63E" stroke-width="2.33333" stroke-linecap="round" stroke-linejoin="round"/>
</svg>
