<svg width="25" height="25" viewBox="0 0 25 25" fill="none" xmlns="http://www.w3.org/2000/svg">
<path d="M1 1H1.34811C1.96272 1 2.27057 1 2.52125 1.10922C2.74226 1.20552 2.93123 1.36056 3.0675 1.55716C3.2218 1.77977 3.27751 2.07704 3.38873 2.6704L6.18906 17.6112L19.7087 17.6111C20.2967 17.6111 20.5915 17.6111 20.835 17.5088C21.0502 17.4184 21.2357 17.272 21.3735 17.0859C21.5293 16.8754 21.5953 16.5936 21.7272 16.0306L21.7282 16.0266L23.7639 7.33773L23.7643 7.33591C23.9644 6.48187 24.0647 6.05381 23.9546 5.71804C23.8579 5.42344 23.6546 5.17366 23.3849 5.01468C23.0772 4.83333 22.6327 4.83333 21.7414 4.83333H4.24313M20.4588 24C19.7423 24 19.1615 23.4279 19.1615 22.7222C19.1615 22.0165 19.7423 21.4444 20.4588 21.4444C21.1753 21.4444 21.7561 22.0165 21.7561 22.7222C21.7561 23.4279 21.1753 24 20.4588 24ZM7.48627 24C6.76981 24 6.18901 23.4279 6.18901 22.7222C6.18901 22.0165 6.76981 21.4444 7.48627 21.4444C8.20272 21.4444 8.78352 22.0165 8.78352 22.7222C8.78352 23.4279 8.20272 24 7.48627 24Z" stroke="#101010" stroke-opacity="0.301961" stroke-width="1.5" stroke-linecap="round" stroke-linejoin="round"/>
</svg>
