<svg width="19" height="19" viewBox="0 0 19 19" fill="none" xmlns="http://www.w3.org/2000/svg">
  <path d="M17.4696 18.5302C17.7625 18.8231 18.2373 18.8231 18.5302 18.5302C18.8231 18.2373 18.8231 17.7625 18.5302 17.4696L17.4696 18.5302ZM1.53033 0.46967C1.23744 0.176777 0.762563 0.176777 0.46967 0.46967C0.176777 0.762563 0.176777 1.23744 0.46967 1.53033L1.53033 0.46967ZM18.5303 1.53033C18.8232 1.23744 18.8232 0.762563 18.5303 0.46967C18.2374 0.176777 17.7626 0.176777 17.4697 0.46967L18.5303 1.53033ZM0.46967 17.4697C0.176777 17.7626 0.176777 18.2374 0.46967 18.5303C0.762563 18.8232 1.23744 18.8232 1.53033 18.5303L0.46967 17.4697ZM18.5302 17.4696L10.0303 8.96967L8.96967 10.0303L17.4696 18.5302L18.5302 17.4696ZM10.0303 8.96967L1.53033 0.46967L0.46967 1.53033L8.96967 10.0303L10.0303 8.96967ZM17.4697 0.46967L8.96967 8.96967L10.0303 10.0303L18.5303 1.53033L17.4697 0.46967ZM8.96967 8.96967L0.46967 17.4697L1.53033 18.5303L10.0303 10.0303L8.96967 8.96967Z" fill="black" />
</svg>