<svg width="15" height="18" viewBox="0 0 15 18" fill="none" xmlns="http://www.w3.org/2000/svg">
<path d="M1 7.24165C1 11.6161 4.94132 15.2335 6.68585 16.6204C6.93552 16.8189 7.06185 16.9193 7.24812 16.9703C7.39316 17.0099 7.60663 17.0099 7.75168 16.9703C7.9383 16.9192 8.06374 16.8198 8.31436 16.6206C10.0589 15.2336 14 11.6165 14 7.24205C14 5.58661 13.3152 3.99877 12.0962 2.8282C10.8772 1.65762 9.22403 1 7.50011 1C5.7762 1 4.12281 1.65772 2.90382 2.82829C1.68482 3.99887 1 5.58621 1 7.24165Z" stroke="black" stroke-linecap="round" stroke-linejoin="round"/>
<path d="M5.64288 6.4096C5.64288 7.40548 6.47436 8.2128 7.50004 8.2128C8.52571 8.2128 9.35719 7.40548 9.35719 6.4096C9.35719 5.41372 8.52571 4.6064 7.50004 4.6064C6.47436 4.6064 5.64288 5.41372 5.64288 6.4096Z" stroke="black" stroke-linecap="round" stroke-linejoin="round"/>
</svg>
