<svg width="104" height="58" viewBox="0 0 104 58" fill="none" xmlns="http://www.w3.org/2000/svg">
<path d="M24 15.2884C24 12.7371 24 11.4621 23.5204 10.4876C23.0986 9.63042 22.426 8.93279 21.5981 8.49604C20.6578 8 19.4262 8 16.9668 8L9.0332 8C6.57379 8 5.34403 8 4.40374 8.49604C3.57582 8.93279 2.90095 9.63041 2.4791 10.4876C2 11.4611 2 12.7344 2 15.2807L2 41.7181C2 44.2645 2 45.5396 2.4791 46.5131C2.90094 47.3703 3.57582 48.0667 4.40373 48.5035C5.34495 49 6.57534 49 9.03957 49L16.9596 49C19.4238 49 20.6568 49 21.598 48.5035C22.426 48.0667 23.0986 47.3703 23.5204 46.5131C24 45.5386 24 45.5513 24 43" stroke="#333333" stroke-width="2" stroke-linecap="round" stroke-linejoin="round"/>
<path d="M52 39.36V16.64H61.728C62.7307 16.64 63.648 16.8533 64.48 17.28C65.312 17.6853 66.0373 18.24 66.656 18.944C67.2747 19.6267 67.7547 20.4053 68.096 21.28C68.4373 22.1333 68.608 23.008 68.608 23.904C68.608 24.9493 68.4053 25.9413 68 26.88C67.616 27.8187 67.0613 28.6187 66.336 29.28C65.632 29.9413 64.8 30.4 63.84 30.656L69.344 39.36H66.08L60.896 31.2H54.88V39.36H52ZM54.88 28.64H61.76C62.5493 28.64 63.232 28.4267 63.808 28C64.4053 27.552 64.864 26.9653 65.184 26.24C65.5253 25.5147 65.696 24.736 65.696 23.904C65.696 23.0507 65.504 22.272 65.12 21.568C64.736 20.8427 64.2347 20.2667 63.616 19.84C62.9973 19.4133 62.3147 19.2 61.568 19.2H54.88V28.64Z" fill="#333333"/>
<path d="M79.444 39.68C78.1853 39.68 77.0333 39.456 75.988 39.008C74.964 38.5387 74.068 37.9093 73.3 37.12C72.5533 36.3093 71.9667 35.3813 71.54 34.336C71.1347 33.2907 70.932 32.1813 70.932 31.008C70.932 29.4293 71.2947 27.9893 72.02 26.688C72.7453 25.3867 73.748 24.3413 75.028 23.552C76.3293 22.7627 77.812 22.368 79.476 22.368C81.1613 22.368 82.6227 22.7733 83.86 23.584C85.1187 24.3733 86.0893 25.4187 86.772 26.72C87.476 28 87.828 29.3867 87.828 30.88C87.828 31.0933 87.8173 31.3067 87.796 31.52C87.796 31.712 87.7853 31.8613 87.764 31.968H73.908C73.9933 33.056 74.292 34.0267 74.804 34.88C75.3373 35.712 76.02 36.3733 76.852 36.864C77.684 37.3333 78.58 37.568 79.54 37.568C80.564 37.568 81.524 37.312 82.42 36.8C83.3373 36.288 83.9667 35.616 84.308 34.784L86.74 35.456C86.3773 36.2667 85.8333 36.992 85.108 37.632C84.404 38.272 83.5613 38.7733 82.58 39.136C81.62 39.4987 80.5747 39.68 79.444 39.68ZM73.812 30.016H85.204C85.1187 28.928 84.8093 27.968 84.276 27.136C83.7427 26.304 83.06 25.6533 82.228 25.184C81.396 24.7147 80.4787 24.48 79.476 24.48C78.4947 24.48 77.588 24.7147 76.756 25.184C75.924 25.6533 75.2413 26.304 74.708 27.136C74.196 27.968 73.8973 28.928 73.812 30.016Z" fill="#333333"/>
<path d="M93.6862 39.36H91.1862V16H93.6862V39.36Z" fill="#333333"/>
<path d="M98.427 39.36V22.656H101.243V39.36H98.427ZM98.427 19.52V16H101.243V19.52H98.427Z" fill="#333333"/>
<circle cx="13" cy="44" r="2" fill="#333333"/>
<path d="M35.3719 37.7778C35.3719 38.4528 35.9275 39 36.6128 39C37.2981 39 37.8536 38.4528 37.8536 37.7778C37.8536 37.1028 37.2981 36.5556 36.6128 36.5556C35.9275 36.5556 35.3719 37.1028 35.3719 37.7778Z" fill="#F5B80B"/>
<path d="M22.9634 37.7778C22.9634 38.4528 23.519 39 24.2043 39C24.8896 39 25.4451 38.4528 25.4451 37.7778C25.4451 37.1028 24.8896 36.5556 24.2043 36.5556C23.519 36.5556 22.9634 37.1028 22.9634 37.7778Z" fill="#F5B80B"/>
<path d="M18 17H18.333C18.9209 17 19.2153 17 19.4551 17.1045C19.6665 17.1966 19.8473 17.3449 19.9776 17.5329C20.1252 17.7459 20.1785 18.0302 20.2849 18.5978L21.8061 26.7139M21.1021 20.6667H27.5M21.8061 26.7139L22.9635 32.8889L27.5 32.8889M21.8061 26.7139H38.9186M38.9186 26.7139L39.7741 23.0622L39.7745 23.0604C39.9659 22.2435 40.0619 21.8341 39.9565 21.5129C39.8641 21.2311 39.6696 20.9922 39.4116 20.8401C39.1174 20.6667 38.6922 20.6667 37.8396 20.6667H33.5M38.9186 26.7139L37.827 31.3733L37.826 31.3771C37.6998 31.9156 37.6367 32.1851 37.4877 32.3865C37.3559 32.5645 37.1784 32.7046 36.9726 32.791C36.7397 32.8889 36.4577 32.8889 35.8953 32.8889L33.5 32.8889M27.5 20.6667H29.4709H33.5M27.5 20.6667V32.8889M27.5 32.8889L33.5 32.8889M33.5 20.6667V32.8889M36.6128 39C35.9275 39 35.3719 38.4528 35.3719 37.7778C35.3719 37.1028 35.9275 36.5556 36.6128 36.5556C37.2981 36.5556 37.8536 37.1028 37.8536 37.7778C37.8536 38.4528 37.2981 39 36.6128 39ZM24.2043 39C23.519 39 22.9634 38.4528 22.9634 37.7778C22.9634 37.1028 23.519 36.5556 24.2043 36.5556C24.8896 36.5556 25.4451 37.1028 25.4451 37.7778C25.4451 38.4528 24.8896 39 24.2043 39Z" stroke="#F5B80B" stroke-width="2" stroke-linecap="round" stroke-linejoin="round"/>
</svg>
