<svg width="28" height="24" viewBox="0 0 28 24" fill="none" xmlns="http://www.w3.org/2000/svg">
<path d="M9.83333 6.5C9.83333 8.77817 11.6988 10.625 14 10.625C16.3012 10.625 18.1667 8.77817 18.1667 6.5M1.5 18.6003V5.40027C1.5 3.86012 1.5 3.08948 1.80276 2.50122C2.06907 1.98377 2.49371 1.56338 3.01638 1.29973C3.61058 1 4.38901 1 5.94472 1H22.0558C23.6115 1 24.3883 1 24.9825 1.29973C25.5052 1.56338 25.9312 1.98377 26.1975 2.50122C26.5 3.0889 26.5 3.85862 26.5 5.39575V18.6049C26.5 20.1421 26.5 20.9107 26.1975 21.4983C25.9312 22.0158 25.5052 22.4369 24.9825 22.7006C24.3889 23 23.6125 23 22.0598 23H5.94015C4.38749 23 3.61 23 3.01638 22.7006C2.49371 22.4369 2.06907 22.0158 1.80276 21.4983C1.5 20.9101 1.5 20.1404 1.5 18.6003Z" stroke="black" stroke-width="1.5" stroke-linecap="round" stroke-linejoin="round"/>
</svg>
