<svg width="27" height="34" viewBox="0 0 27 34" fill="none" xmlns="http://www.w3.org/2000/svg">
  <path d="M8.57143 25.6111H18.4286M8.57143 20.4444H18.4286M15.1435 1.5015C14.9865 1.5 14.81 1.5 14.6085 1.5H7.25746C5.41729 1.5 4.49652 1.5 3.79367 1.87542C3.17542 2.20565 2.67313 2.7322 2.35812 3.38032C2 4.11712 2 5.08238 2 7.01145V26.9892C2 28.9183 2 29.8823 2.35812 30.6191C2.67314 31.2672 3.17542 31.7947 3.79367 32.1249C4.49584 32.5 5.41551 32.5 7.25211 32.5L19.7479 32.5C21.5845 32.5 22.5028 32.5 23.205 32.1249C23.8233 31.7947 24.3272 31.2672 24.6422 30.6191C25 29.883 25 28.9203 25 26.9951V12.3942C25 12.183 24.9998 11.9979 24.9984 11.8333M15.1435 1.5015C15.6124 1.50598 15.908 1.52423 16.1913 1.59553C16.5266 1.67991 16.8479 1.81907 17.1419 2.00792C17.4734 2.22086 17.758 2.51923 18.3259 3.11458L23.4606 8.49736C24.0289 9.09308 24.3114 9.39012 24.5146 9.73772C24.6948 10.0459 24.8281 10.3819 24.9086 10.7334C24.9766 11.0304 24.9941 11.3417 24.9984 11.8333M15.1435 1.5015L15.1429 6.32258C15.1429 8.25165 15.1429 9.21582 15.501 9.95262C15.816 10.6007 16.3183 11.128 16.9365 11.4583C17.6387 11.8333 18.5584 11.8333 20.3949 11.8333H24.9984" stroke="white" stroke-width="2.92" stroke-linecap="round" stroke-linejoin="round" />
</svg>