<svg width="36" height="35" viewBox="0 0 36 35" fill="none" xmlns="http://www.w3.org/2000/svg">
  <path d="M22.375 30.625V23.3333C22.375 22.9466 22.2214 22.5756 21.9479 22.3021C21.6744 22.0286 21.3034 21.875 20.9167 21.875H15.0833C14.6966 21.875 14.3256 22.0286 14.0521 22.3021C13.7786 22.5756 13.625 22.9466 13.625 23.3333V30.625" stroke="white" stroke-width="2.91667" stroke-linecap="round" stroke-linejoin="round" />
  <path d="M26.4204 15.0355C26.1164 14.7445 25.7118 14.582 25.2909 14.582C24.8701 14.582 24.4654 14.7445 24.1614 15.0355C23.4833 15.6823 22.5822 16.0431 21.6451 16.0431C20.708 16.0431 19.8068 15.6823 19.1287 15.0355C18.8248 14.7449 18.4205 14.5827 18 14.5827C17.5795 14.5827 17.1752 14.7449 16.8712 15.0355C16.193 15.6827 15.2916 16.0438 14.3541 16.0438C13.4167 16.0438 12.5152 15.6827 11.8371 15.0355C11.533 14.7445 11.1284 14.582 10.7076 14.582C10.2867 14.582 9.88211 14.7445 9.5781 15.0355C8.92308 15.6606 8.05891 16.0195 7.1538 16.0425C6.24869 16.0656 5.3674 15.751 4.68146 15.16C3.99552 14.569 3.55401 13.744 3.44287 12.8454C3.33172 11.9469 3.5589 11.0391 4.08018 10.2988L8.2933 4.19716C8.56063 3.8027 8.92052 3.47974 9.34152 3.25653C9.76252 3.03332 10.2318 2.91666 10.7083 2.91675H25.2916C25.7668 2.91657 26.2347 3.03245 26.6548 3.25433C27.075 3.47622 27.4345 3.79737 27.7023 4.18987L31.9241 10.3032C32.4455 11.0441 32.6724 11.9525 32.5606 12.8516C32.4488 13.7506 32.0062 14.5758 31.3192 15.1663C30.6322 15.7568 29.7499 16.0704 28.8442 16.046C27.9386 16.0215 27.0745 15.6608 26.4204 15.034" stroke="white" stroke-width="2.91667" stroke-linecap="round" stroke-linejoin="round" />
  <path d="M6.33325 15.9688V27.7083C6.33325 28.4819 6.64054 29.2237 7.18752 29.7707C7.7345 30.3177 8.47637 30.625 9.24992 30.625H26.7499C27.5235 30.625 28.2653 30.3177 28.8123 29.7707C29.3593 29.2237 29.6666 28.4819 29.6666 27.7083V15.9688" stroke="white" stroke-width="2.91667" stroke-linecap="round" stroke-linejoin="round" />
</svg>