<svg width="36" height="35" viewBox="0 0 36 35" fill="none" xmlns="http://www.w3.org/2000/svg">
  <path d="M23.8334 30.625V27.7083C23.8334 26.1612 23.2188 24.6775 22.1249 23.5835C21.0309 22.4896 19.5472 21.875 18.0001 21.875H9.25008C7.70299 21.875 6.21925 22.4896 5.12529 23.5835C4.03133 24.6775 3.41675 26.1612 3.41675 27.7083V30.625" stroke="white" stroke-width="2.91667" stroke-linecap="round" stroke-linejoin="round" />
  <path d="M13.6251 16.0417C16.8467 16.0417 19.4584 13.43 19.4584 10.2083C19.4584 6.98667 16.8467 4.375 13.6251 4.375C10.4034 4.375 7.79175 6.98667 7.79175 10.2083C7.79175 13.43 10.4034 16.0417 13.6251 16.0417Z" stroke="white" stroke-width="2.91667" stroke-linecap="round" stroke-linejoin="round" />
  <path d="M28.2083 11.6667V20.4167" stroke="white" stroke-width="2.91667" stroke-linecap="round" stroke-linejoin="round" />
  <path d="M32.5833 16.0417H23.8333" stroke="white" stroke-width="2.91667" stroke-linecap="round" stroke-linejoin="round" />
</svg>