<svg width="17" height="18" viewBox="0 0 17 18" fill="none" xmlns="http://www.w3.org/2000/svg">
<path d="M5.41176 13.4444C4.43714 13.4444 3.64706 14.2404 3.64706 15.2222C3.64706 16.2041 4.43714 17 5.41176 17C6.38638 17 7.17647 16.2041 7.17647 15.2222C7.17647 14.2404 6.38638 13.4444 5.41176 13.4444ZM5.41176 13.4444H12.4706M5.41176 13.4444L4.52941 9.88889M12.4706 13.4444C11.496 13.4444 10.7059 14.2404 10.7059 15.2222C10.7059 16.2041 11.496 17 12.4706 17C13.4452 17 14.2353 16.2041 14.2353 15.2222C14.2353 14.2404 13.4452 13.4444 12.4706 13.4444ZM13.3529 9.88889H4.52941M4.52941 9.88889L2.76471 3.66667M2.76471 3.66667H7.61853M2.76471 3.66667L2.06588 1H1M10.7059 3.66667H16M13.3529 6.33333V1" stroke="#2BAE91" stroke-width="1.5" stroke-linecap="round" stroke-linejoin="round"/>
</svg>
