<svg width="18" height="18" viewBox="0 0 18 18" fill="none" xmlns="http://www.w3.org/2000/svg">
<path d="M1 10H4.439C4.63238 10.0005 4.82139 10.0576 4.98274 10.1642C5.14408 10.2708 5.2707 10.4223 5.347 10.6C5.65463 11.3136 6.16452 11.9214 6.8137 12.3485C7.46288 12.7756 8.22293 13.0032 9 13.0032C9.77707 13.0032 10.5371 12.7756 11.1863 12.3485C11.8355 11.9214 12.3454 11.3136 12.653 10.6C12.7293 10.4223 12.8559 10.2708 13.0173 10.1642C13.1786 10.0576 13.3676 10.0005 13.561 10H17M1 10V16C1 16.2652 1.10536 16.5196 1.29289 16.7071C1.48043 16.8946 1.73478 17 2 17H16C16.2652 17 16.5196 16.8946 16.7071 16.7071C16.8946 16.5196 17 16.2652 17 16V10M1 10L3 1H15L17 10M6 4H12M5 7H13" stroke="#2BAE91" stroke-width="1.5" stroke-linecap="round" stroke-linejoin="round"/>
</svg>
