<svg width="30" height="34" viewBox="0 0 30 34" fill="none" xmlns="http://www.w3.org/2000/svg">
  <path d="M17.5747 31.2422L26.395 26.162C27.3366 25.6196 27.8064 25.3484 28.1488 24.9691C28.4517 24.6334 28.6808 24.2381 28.8207 23.8085C28.9785 23.3242 28.9785 22.7829 28.9785 21.7033V11.5281C28.9785 10.4485 28.9785 9.90734 28.8207 9.42299C28.6808 8.99343 28.4517 8.59775 28.1488 8.2621C27.8079 7.88438 27.3391 7.61436 26.4056 7.07673L17.5732 1.98949C16.6316 1.44717 16.1618 1.17656 15.6612 1.07043C15.2184 0.976523 14.7605 0.976523 14.3177 1.07043C13.8172 1.17656 13.3458 1.44717 12.4042 1.98949L3.58229 7.07065C2.64182 7.61233 2.17195 7.88296 1.82976 8.2621C1.52681 8.59775 1.29803 8.99343 1.15812 9.42299C1 9.90848 1 10.4511 1 11.5357V21.6962C1 22.7808 1 23.323 1.15812 23.8085C1.29803 24.2381 1.52681 24.6334 1.82976 24.9691C2.17215 25.3484 2.64237 25.6196 3.58394 26.162L12.4042 31.2422C13.3457 31.7845 13.8172 32.0552 14.3177 32.1613C14.7605 32.2553 15.2184 32.2553 15.6612 32.1613C16.1618 32.0552 16.6332 31.7845 17.5747 31.2422Z" stroke="white" stroke-width="2" stroke-linecap="round" stroke-linejoin="round" />
  <path d="M10.1432 16.6157C10.1432 19.2857 12.3128 21.4502 14.9892 21.4502C17.6656 21.4502 19.8353 19.2857 19.8353 16.6157C19.8353 13.9457 17.6656 11.7812 14.9892 11.7812C12.3128 11.7812 10.1432 13.9457 10.1432 16.6157Z" stroke="white" stroke-width="2" stroke-linecap="round" stroke-linejoin="round" />
</svg>