<svg width="39" height="30" viewBox="0 0 39 30" fill="none" xmlns="http://www.w3.org/2000/svg">
  <path d="M23.9592 2.5V15C23.9592 16.375 22.5217 17.5 20.7648 17.5H3.19531V7.5C3.19531 4.7375 6.05434 2.5 9.5842 2.5H23.9592Z" stroke="white" stroke-width="2" stroke-linecap="round" stroke-linejoin="round" />
  <path d="M35.1398 17.5V21.25C35.1398 23.325 32.9995 25 30.3481 25H28.7509C28.7509 23.625 27.3134 22.5 25.5564 22.5C23.7995 22.5 22.362 23.625 22.362 25H15.9731C15.9731 23.625 14.5356 22.5 12.7786 22.5C11.0217 22.5 9.5842 23.625 9.5842 25H7.98698C5.33559 25 3.19531 23.325 3.19531 21.25V17.5H20.7648C22.5217 17.5 23.9592 16.375 23.9592 15V6.25H26.8981C28.0481 6.25 29.1022 6.73751 29.6772 7.51251L32.4085 11.25H30.3481C29.4696 11.25 28.7509 11.8125 28.7509 12.5V16.25C28.7509 16.9375 29.4696 17.5 30.3481 17.5H35.1398Z" stroke="white" stroke-width="2" stroke-linecap="round" stroke-linejoin="round" />
  <path d="M12.7765 27.5C14.5407 27.5 15.9709 26.3807 15.9709 25C15.9709 23.6193 14.5407 22.5 12.7765 22.5C11.0122 22.5 9.58203 23.6193 9.58203 25C9.58203 26.3807 11.0122 27.5 12.7765 27.5Z" stroke="white" stroke-width="2" stroke-linecap="round" stroke-linejoin="round" />
  <path d="M25.5577 27.5C27.322 27.5 28.7522 26.3807 28.7522 25C28.7522 23.6193 27.322 22.5 25.5577 22.5C23.7935 22.5 22.3633 23.6193 22.3633 25C22.3633 26.3807 23.7935 27.5 25.5577 27.5Z" stroke="white" stroke-width="2" stroke-linecap="round" stroke-linejoin="round" />
  <path d="M35.1389 15V17.5H30.3472C29.4688 17.5 28.75 16.9375 28.75 16.25V12.5C28.75 11.8125 29.4688 11.25 30.3472 11.25H32.4077L35.1389 15Z" stroke="white" stroke-width="2" stroke-linecap="round" stroke-linejoin="round" />
</svg>