<svg width="31" height="32" viewBox="0 0 31 32" fill="none" xmlns="http://www.w3.org/2000/svg">
  <path d="M21.1219 14.1549L14.1273 21.3215L10.63 17.7382M1.88672 24.5467V14.965C1.88672 14.0077 1.88672 13.5288 2.00033 13.0833C2.10101 12.6885 2.26756 12.3149 2.49123 11.9773C2.74363 11.5964 3.09441 11.2804 3.7976 10.65L12.1939 3.12261C13.4975 1.95392 14.1494 1.36954 14.8835 1.14711C15.5308 0.950965 16.2208 0.950965 16.8681 1.14711C17.6028 1.3697 18.2555 1.95464 19.5611 3.12509L27.9546 10.65C28.6578 11.2804 29.0087 11.5964 29.2611 11.9773C29.4848 12.3149 29.6501 12.6885 29.7508 13.0833C29.8644 13.5288 29.8652 14.0077 29.8652 14.965V24.5529C29.8652 26.5558 29.8652 27.5584 29.4844 28.3242C29.1491 28.9984 28.6127 29.5461 27.9546 29.8896C27.2072 30.2798 26.2297 30.2798 24.2749 30.2798H7.47701C5.52216 30.2798 4.54328 30.2798 3.79589 29.8896C3.13783 29.5461 2.6032 28.9984 2.2679 28.3242C1.88672 27.5576 1.88672 26.5535 1.88672 24.5467Z" stroke="white" stroke-width="2" stroke-linecap="round" stroke-linejoin="round" />
</svg>