<svg width="32" height="29" viewBox="0 0 32 29" fill="none" xmlns="http://www.w3.org/2000/svg">
  <path d="M10.9768 7.66929C14.2046 7.66929 13.2102 7.66928 15.9652 7.66929C18.7202 7.66929 16.4054 7.66929 20.9536 7.66929M1 22.342V6.33575C1 4.46818 1 3.5337 1.36247 2.82038C1.68131 2.19292 2.18969 1.68316 2.81544 1.36345C3.52683 1 4.45878 1 6.32129 1H25.6098C27.4723 1 28.4023 1 29.1137 1.36345C29.7394 1.68316 30.2495 2.19292 30.5683 2.82038C30.9305 3.533 30.9305 4.46635 30.9305 6.33028V22.3477C30.9305 24.2116 30.9305 25.1436 30.5683 25.8562C30.2495 26.4837 29.7394 26.9943 29.1137 27.314C28.403 27.6771 27.4735 27.6771 25.6146 27.6771H6.31583C4.45696 27.6771 3.52613 27.6771 2.81544 27.314C2.18969 26.9943 1.68131 26.4837 1.36247 25.8562C1 25.1429 1 24.2096 1 22.342Z" stroke="white" stroke-width="2" stroke-linecap="round" stroke-linejoin="round" />
</svg>