<svg width="16" height="16" viewBox="0 0 16 16" fill="none" xmlns="http://www.w3.org/2000/svg">
  <g clip-path="url(#clip0_6108_3184)">
    <path d="M7.32937 14.4786C7.53194 14.5955 7.76174 14.6571 7.99566 14.6571C8.22958 14.6571 8.45937 14.5955 8.66195 14.4786L13.326 11.8134C13.5284 11.6966 13.6965 11.5286 13.8134 11.3262C13.9304 11.1239 13.9921 10.8944 13.9923 10.6607V5.33037C13.9921 5.09669 13.9304 4.86717 13.8134 4.66486C13.6965 4.46254 13.5284 4.29453 13.326 4.17769L8.66195 1.51252C8.45937 1.39556 8.22958 1.33398 7.99566 1.33398C7.76174 1.33398 7.53194 1.39556 7.32937 1.51252L2.66532 4.17769C2.46294 4.29453 2.29484 4.46254 2.1779 4.66486C2.06095 4.86717 1.99926 5.09669 1.99902 5.33037V10.6607C1.99926 10.8944 2.06095 11.1239 2.1779 11.3262C2.29484 11.5286 2.46294 11.6966 2.66532 11.8134L7.32937 14.4786Z" stroke="#99A1AF" stroke-width="1.33259" stroke-linecap="round" stroke-linejoin="round" />
    <path d="M7.99512 14.6585V7.99561" stroke="#99A1AF" stroke-width="1.33259" stroke-linecap="round" stroke-linejoin="round" />
    <path d="M2.19238 4.66406L7.99579 7.99553L13.7992 4.66406" stroke="#99A1AF" stroke-width="1.33259" stroke-linecap="round" stroke-linejoin="round" />
    <path d="M4.99707 2.84521L10.9937 6.27662" stroke="#99A1AF" stroke-width="1.33259" stroke-linecap="round" stroke-linejoin="round" />
  </g>
  <defs>
    <clipPath id="clip0_6108_3184">
      <rect width="15.991" height="15.991" fill="white" />
    </clipPath>
  </defs>
</svg>