<svg width="16" height="16" viewBox="0 0 16 16" fill="none" xmlns="http://www.w3.org/2000/svg">
  <g clip-path="url(#clip0_6108_3212)">
    <path d="M8.39034 1.22416C8.14035 0.974097 7.80127 0.833572 7.44767 0.833496H2.66634C2.31272 0.833496 1.97358 0.973972 1.72353 1.22402C1.47348 1.47407 1.33301 1.81321 1.33301 2.16683V6.94816C1.33308 7.30176 1.47361 7.64084 1.72367 7.89083L7.52634 13.6935C7.82935 13.9946 8.23917 14.1636 8.66634 14.1636C9.09351 14.1636 9.50333 13.9946 9.80634 13.6935L14.193 9.30683C14.4941 9.00382 14.6631 8.594 14.6631 8.16683C14.6631 7.73966 14.4941 7.32984 14.193 7.02683L8.39034 1.22416Z" stroke="white" stroke-width="1.33333" stroke-linecap="round" stroke-linejoin="round" />
    <path d="M5.00033 4.83317C5.18442 4.83317 5.33366 4.68393 5.33366 4.49984C5.33366 4.31574 5.18442 4.1665 5.00033 4.1665C4.81623 4.1665 4.66699 4.31574 4.66699 4.49984C4.66699 4.68393 4.81623 4.83317 5.00033 4.83317Z" fill="white" stroke="white" stroke-width="1.33333" stroke-linecap="round" stroke-linejoin="round" />
  </g>
  <defs>
    <clipPath id="clip0_6108_3212">
      <rect width="16" height="16" fill="white" />
    </clipPath>
  </defs>
</svg>