<svg width="16" height="16" viewBox="0 0 16 16" fill="none" xmlns="http://www.w3.org/2000/svg">
  <path d="M9.33301 11.4998V3.49984C9.33301 3.14622 9.19253 2.80708 8.94248 2.55703C8.69243 2.30698 8.3533 2.1665 7.99967 2.1665H2.66634C2.31272 2.1665 1.97358 2.30698 1.72353 2.55703C1.47348 2.80708 1.33301 3.14622 1.33301 3.49984V10.8332C1.33301 11.01 1.40325 11.1796 1.52827 11.3046C1.65329 11.4296 1.82286 11.4998 1.99967 11.4998H3.33301" stroke="#3F7F6D" stroke-width="1.33333" stroke-linecap="round" stroke-linejoin="round" />
  <path d="M10 11.5H6" stroke="#3F7F6D" stroke-width="1.33333" stroke-linecap="round" stroke-linejoin="round" />
  <path d="M12.6663 11.5002H13.9997C14.1765 11.5002 14.3461 11.4299 14.4711 11.3049C14.5961 11.1799 14.6663 11.0103 14.6663 10.8335V8.40016C14.6661 8.24887 14.6144 8.10217 14.5197 7.98416L12.1997 5.08416C12.1373 5.00608 12.0582 4.94302 11.9682 4.89963C11.8782 4.85624 11.7796 4.83364 11.6797 4.8335H9.33301" stroke="#3F7F6D" stroke-width="1.33333" stroke-linecap="round" stroke-linejoin="round" />
  <path d="M11.3333 12.8332C12.0697 12.8332 12.6667 12.2362 12.6667 11.4998C12.6667 10.7635 12.0697 10.1665 11.3333 10.1665C10.597 10.1665 10 10.7635 10 11.4998C10 12.2362 10.597 12.8332 11.3333 12.8332Z" stroke="#3F7F6D" stroke-width="1.33333" stroke-linecap="round" stroke-linejoin="round" />
  <path d="M4.66634 12.8332C5.40272 12.8332 5.99967 12.2362 5.99967 11.4998C5.99967 10.7635 5.40272 10.1665 4.66634 10.1665C3.92996 10.1665 3.33301 10.7635 3.33301 11.4998C3.33301 12.2362 3.92996 12.8332 4.66634 12.8332Z" stroke="#3F7F6D" stroke-width="1.33333" stroke-linecap="round" stroke-linejoin="round" />
</svg>